<?xml version="1.0" encoding="utf-8"?>
<!-- Generator: Adobe Illustrator 20.1.0, SVG Export Plug-In . SVG Version: 6.00 Build 0)  -->
<svg version="1.1" id="Layer_1" xmlns="http://www.w3.org/2000/svg" xmlns:xlink="http://www.w3.org/1999/xlink" x="0px" y="0px"
	 viewBox="0 0 2595.3 1876" style="enable-background:new 0 0 2595.3 1876;" xml:space="preserve">
<style type="text/css">
	.st0{fill:#404041;stroke:#231F20;stroke-miterlimit:10;}
	.st1{fill:none;stroke:#231F20;stroke-miterlimit:10;}
	.st2{fill:#FFD700;stroke:#211F21;stroke-width:9;stroke-miterlimit:10;}
	.st3{fill:none;stroke:#211F21;stroke-width:9;stroke-miterlimit:10;}
	.st4{fill:#FFFFFF;stroke:#211F21;stroke-width:9;stroke-miterlimit:10;}
	.st5{fill:none;stroke:#211F21;stroke-width:6;stroke-miterlimit:10;}
	.st6{fill:#FFD700;stroke:#211F21;stroke-width:6;stroke-miterlimit:10;}
	.st7{fill:#211F21;}
</style>
<rect x="4.5" y="4.5" class="st2" width="2586.3" height="1867"/>
<g>
	<g>
		<g>
			<g>
				<g>
					<g>
						<g>
							<path class="st3" d="M394.8,1835.2c-66.3,0-120-53.7-120-120"/>
						</g>
						<g>
							<path class="st3" d="M394.8,1835.2c66.3,0,120-53.7,120-120"/>
							<path class="st3" d="M634.8,1835.2c-66.3,0-120-53.7-120-120"/>
						</g>
						<g>
							<path class="st3" d="M634.8,1835.2c66.3,0,120-53.7,120-120"/>
							<path class="st3" d="M874.8,1835.2c-66.3,0-120-53.7-120-120"/>
						</g>
						<g>
							<path class="st3" d="M874.8,1835.2c66.3,0,120-53.7,120-120"/>
							<path class="st3" d="M1114.8,1835.2c-66.3,0-120-53.7-120-120"/>
						</g>
						<g>
							<path class="st3" d="M1114.8,1835.2c66.3,0,120-53.7,120-120"/>
							<path class="st3" d="M1354.8,1835.2c-66.3,0-120-53.7-120-120"/>
						</g>
						<g>
							<path class="st3" d="M1354.8,1835.2c66.3,0,120-53.7,120-120"/>
							<path class="st3" d="M1594.8,1835.2c-66.3,0-120-53.7-120-120"/>
						</g>
						<g>
							<path class="st3" d="M1594.8,1835.2c66.3,0,120-53.7,120-120"/>
						</g>
					</g>
					<g>
						<g>
							<path class="st3" d="M280.5,1835.2c-66.3,0-120-53.7-120-120"/>
						</g>
						<g>
							<path class="st3" d="M280.5,1835.2c66.3,0,120-53.7,120-120"/>
							<path class="st3" d="M520.5,1835.2c-66.3,0-120-53.7-120-120"/>
						</g>
						<g>
							<path class="st3" d="M520.5,1835.2c66.3,0,120-53.7,120-120"/>
							<path class="st3" d="M760.5,1835.2c-66.3,0-120-53.7-120-120"/>
						</g>
						<g>
							<path class="st3" d="M760.5,1835.2c66.3,0,120-53.7,120-120"/>
							<path class="st3" d="M1000.5,1835.2c-66.3,0-120-53.7-120-120"/>
						</g>
						<g>
							<path class="st3" d="M1000.5,1835.2c66.3,0,120-53.7,120-120"/>
							<path class="st3" d="M1240.5,1835.2c-66.3,0-120-53.7-120-120"/>
						</g>
						<g>
							<path class="st3" d="M1240.5,1835.2c66.3,0,120-53.7,120-120"/>
							<path class="st3" d="M1480.5,1835.2c-66.3,0-120-53.7-120-120"/>
						</g>
						<g>
							<path class="st3" d="M1480.5,1835.2c66.3,0,120-53.7,120-120"/>
							<path class="st3" d="M1720.5,1835.2c-66.3,0-120-53.7-120-120"/>
						</g>
					</g>
				</g>
				<g>
					<g>
						<g>
							<path class="st3" d="M40.5,635.2c0-66.3,53.7-120,120-120"/>
						</g>
						<g>
							<path class="st3" d="M40.5,635.2c0,66.3,53.7,120,120,120"/>
							<path class="st3" d="M40.5,875.2c0-66.3,53.7-120,120-120"/>
						</g>
						<g>
							<path class="st3" d="M40.5,875.2c0,66.3,53.7,120,120,120"/>
							<path class="st3" d="M40.5,1115.2c0-66.3,53.7-120,120-120"/>
						</g>
						<g>
							<path class="st3" d="M40.5,1115.2c0,66.3,53.7,120,120,120"/>
							<path class="st3" d="M40.5,1355.2c0-66.3,53.7-120,120-120"/>
						</g>
						<g>
							<path class="st3" d="M40.5,1355.2c0,66.3,53.7,120,120,120"/>
							<path class="st3" d="M40.5,1595.2c0-66.3,53.7-120,120-120"/>
						</g>
						<g>
							<path class="st3" d="M40.5,1595.2c0,66.3,53.7,120,120,120"/>
						</g>
					</g>
					<g>
						<g>
							<path class="st3" d="M40.5,520.9c0,66.3,53.7,120,120,120"/>
							<path class="st3" d="M40.5,760.9c0-66.3,53.7-120,120-120"/>
						</g>
						<g>
							<path class="st3" d="M40.5,760.9c0,66.3,53.7,120,120,120"/>
							<path class="st3" d="M40.5,1000.9c0-66.3,53.7-120,120-120"/>
						</g>
						<g>
							<path class="st3" d="M40.5,1000.9c0,66.3,53.7,120,120,120"/>
							<path class="st3" d="M40.5,1240.9c0-66.3,53.7-120,120-120"/>
						</g>
						<g>
							<path class="st3" d="M40.5,1240.9c0,66.3,53.7,120,120,120"/>
							<path class="st3" d="M40.5,1480.9c0-66.3,53.7-120,120-120"/>
						</g>
						<g>
							<path class="st3" d="M40.5,1480.9c0,66.3,53.7,120,120,120"/>
						</g>
					</g>
				</g>
				<path class="st3" d="M274.8,1715.2c0,66.3-53.7,120-120,120h-0.6c0-62.8-50.9-113.7-113.7-113.7v-0.6c0-66.3,53.7-120,120-120"
					/>
				<path class="st3" d="M160.5,1715.2c-66.3,0-120,53.7-120,120C106.8,1835.2,160.5,1781.4,160.5,1715.2z"/>
				<g>
				</g>
			</g>
			<g>
				<path class="st3" d="M1834.8,1835.2c-66.3,0-120-53.7-120-120"/>
				<g>
					<path class="st3" d="M1834.8,1835.2c66.3,0,120-53.7,120-120"/>
				</g>
				<path class="st3" d="M1720.5,1835.2c66.3,0,120-53.7,120-120"/>
				<path class="st3" d="M1960.5,1835.2c-66.3,0-120-53.7-120-120"/>
			</g>
			<path class="st3" d="M2074.8,1835.2c-66.3,0-120-53.7-120-120"/>
			<g>
				<path class="st3" d="M2074.8,1835.2c66.3,0,120-53.7,120-120"/>
				<path class="st3" d="M2314.8,1835.2c-66.3,0-120-53.7-120-120"/>
			</g>
			<path class="st3" d="M1960.5,1835.2c66.3,0,120-53.7,120-120"/>
			<path class="st3" d="M2200.5,1835.2c-66.3,0-120-53.7-120-120"/>
			<g>
				<path class="st3" d="M2200.5,1835.2c66.3,0,120-53.7,120-120"/>
			</g>
			<path class="st3" d="M2314.8,1835.2c66.3,0,120-53.7,120-120"/>
			<g>
				<g>
					<g>
						<path class="st3" d="M2554.8,635.2c0-66.3-53.7-120-120-120"/>
					</g>
					<g>
						<path class="st3" d="M2554.8,635.2c0,66.3-53.7,120-120,120"/>
						<path class="st3" d="M2554.8,875.2c0-66.3-53.7-120-120-120"/>
					</g>
					<g>
						<path class="st3" d="M2554.8,875.2c0,66.3-53.7,120-120,120"/>
						<path class="st3" d="M2554.8,1115.2c0-66.3-53.7-120-120-120"/>
					</g>
					<g>
						<path class="st3" d="M2554.8,1115.2c0,66.3-53.7,120-120,120"/>
						<path class="st3" d="M2554.8,1355.2c0-66.3-53.7-120-120-120"/>
					</g>
					<g>
						<path class="st3" d="M2554.8,1355.2c0,66.3-53.7,120-120,120"/>
						<path class="st3" d="M2554.8,1595.2c0-66.3-53.7-120-120-120"/>
					</g>
					<g>
						<path class="st3" d="M2554.8,1595.2c0,66.3-53.7,120-120,120"/>
					</g>
				</g>
				<g>
					<g>
						<path class="st3" d="M2554.8,520.9c0,66.3-53.7,120-120,120"/>
						<path class="st3" d="M2554.8,760.9c0-66.3-53.7-120-120-120"/>
					</g>
					<g>
						<path class="st3" d="M2554.8,760.9c0,66.3-53.7,120-120,120"/>
						<path class="st3" d="M2554.8,1000.9c0-66.3-53.7-120-120-120"/>
					</g>
					<g>
						<path class="st3" d="M2554.8,1000.9c0,66.3-53.7,120-120,120"/>
						<path class="st3" d="M2554.8,1240.9c0-66.3-53.7-120-120-120"/>
					</g>
					<g>
						<path class="st3" d="M2554.8,1240.9c0,66.3-53.7,120-120,120"/>
						<path class="st3" d="M2554.8,1480.9c0-66.3-53.7-120-120-120"/>
					</g>
					<g>
						<path class="st3" d="M2554.8,1480.9c0,66.3-53.7,120-120,120"/>
					</g>
				</g>
			</g>
			<path class="st3" d="M2320.5,1715.2c0,66.3,53.7,120,120,120h0.6c0-62.8,50.9-113.7,113.7-113.7v-0.6c0-66.3-53.7-120-120-120"/>
			<path class="st3" d="M2434.8,1715.2c66.3,0,120,53.7,120,120C2488.5,1835.2,2434.8,1781.4,2434.8,1715.2z"/>
		</g>
	</g>
	<g>
		<g>
			<g>
				<g>
					<path class="st3" d="M394.8,40.9c-66.3,0-120,53.7-120,120"/>
				</g>
				<g>
					<path class="st3" d="M394.8,40.9c66.3,0,120,53.7,120,120"/>
					<path class="st3" d="M634.8,40.9c-66.3,0-120,53.7-120,120"/>
				</g>
				<g>
					<path class="st3" d="M634.8,40.9c66.3,0,120,53.7,120,120"/>
					<path class="st3" d="M874.8,40.9c-66.3,0-120,53.7-120,120"/>
				</g>
				<g>
					<path class="st3" d="M874.8,40.9c66.3,0,120,53.7,120,120"/>
					<path class="st3" d="M1114.8,40.9c-66.3,0-120,53.7-120,120"/>
				</g>
				<g>
					<path class="st3" d="M1114.8,40.9c66.3,0,120,53.7,120,120"/>
					<path class="st3" d="M1354.8,40.9c-66.3,0-120,53.7-120,120"/>
				</g>
				<g>
					<path class="st3" d="M1354.8,40.9c66.3,0,120,53.7,120,120"/>
					<path class="st3" d="M1594.8,40.9c-66.3,0-120,53.7-120,120"/>
				</g>
				<g>
					<path class="st3" d="M1594.8,40.9c66.3,0,120,53.7,120,120"/>
				</g>
			</g>
			<g>
				<g>
					<path class="st3" d="M280.5,40.9c-66.3,0-120,53.7-120,120"/>
				</g>
				<g>
					<path class="st3" d="M280.5,40.9c66.3,0,120,53.7,120,120"/>
					<path class="st3" d="M520.5,40.9c-66.3,0-120,53.7-120,120"/>
				</g>
				<g>
					<path class="st3" d="M520.5,40.9c66.3,0,120,53.7,120,120"/>
					<path class="st3" d="M760.5,40.9c-66.3,0-120,53.7-120,120"/>
				</g>
				<g>
					<path class="st3" d="M760.5,40.9c66.3,0,120,53.7,120,120"/>
					<path class="st3" d="M1000.5,40.9c-66.3,0-120,53.7-120,120"/>
				</g>
				<g>
					<path class="st3" d="M1000.5,40.9c66.3,0,120,53.7,120,120"/>
					<path class="st3" d="M1240.5,40.9c-66.3,0-120,53.7-120,120"/>
				</g>
				<g>
					<path class="st3" d="M1240.5,40.9c66.3,0,120,53.7,120,120"/>
					<path class="st3" d="M1480.5,40.9c-66.3,0-120,53.7-120,120"/>
				</g>
				<g>
					<path class="st3" d="M1480.5,40.9c66.3,0,120,53.7,120,120"/>
					<path class="st3" d="M1720.5,40.9c-66.3,0-120,53.7-120,120"/>
				</g>
			</g>
		</g>
		<path class="st3" d="M40.5,280.9c0-66.3,53.7-120,120-120"/>
		<path class="st3" d="M274.8,160.9c0-66.3-53.7-120-120-120h-0.6c0,62.8-50.9,113.7-113.7,113.7v0.6c0,66.3,53.7,120,120,120"/>
		<path class="st3" d="M160.5,160.9c-66.3,0-120-53.7-120-120C106.8,40.9,160.5,94.6,160.5,160.9z"/>
		<path class="st3" d="M1834.8,40.9c-66.3,0-120,53.7-120,120"/>
		<g>
			<path class="st3" d="M1834.8,40.9c66.3,0,120,53.7,120,120"/>
		</g>
		<path class="st3" d="M1720.5,40.9c66.3,0,120,53.7,120,120"/>
		<path class="st3" d="M1960.5,40.9c-66.3,0-120,53.7-120,120"/>
		<path class="st3" d="M2074.8,40.9c-66.3,0-120,53.7-120,120"/>
		<g>
			<path class="st3" d="M2074.8,40.9c66.3,0,120,53.7,120,120"/>
			<path class="st3" d="M2314.8,40.9c-66.3,0-120,53.7-120,120"/>
		</g>
		<path class="st3" d="M1960.5,40.9c66.3,0,120,53.7,120,120"/>
		<path class="st3" d="M2200.5,40.9c-66.3,0-120,53.7-120,120"/>
		<g>
			<path class="st3" d="M2200.5,40.9c66.3,0,120,53.7,120,120"/>
		</g>
		<path class="st3" d="M2314.8,40.9c66.3,0,120,53.7,120,120"/>
		<path class="st3" d="M2554.8,280.9c0-66.3-53.7-120-120-120"/>
		<path class="st3" d="M2320.5,160.9c0-66.3,53.7-120,120-120h0.6c0,62.8,50.9,113.7,113.7,113.7v0.6c0,66.3-53.7,120-120,120"/>
		<path class="st3" d="M2434.8,160.9c66.3,0,120-53.7,120-120C2488.5,40.9,2434.8,94.6,2434.8,160.9z"/>
	</g>
	<g>
		<path class="st3" d="M40.5,395.2c0-66.3,53.7-120,120-120"/>
	</g>
	<path class="st3" d="M40.5,395.2c0,66.3,53.7,120,120,120"/>
	<path class="st3" d="M40.5,280.9c0,66.3,53.7,120,120,120"/>
	<path class="st3" d="M40.5,520.9c0-66.3,53.7-120,120-120"/>
	<g>
	</g>
	<g>
		<path class="st3" d="M2554.8,395.2c0-66.3-53.7-120-120-120"/>
	</g>
	<path class="st3" d="M2554.8,395.2c0,66.3-53.7,120-120,120"/>
	<path class="st3" d="M2554.8,280.9c0,66.3-53.7,120-120,120"/>
	<path class="st3" d="M2554.8,520.9c0-66.3-53.7-120-120-120"/>
</g>
<rect x="160.5" y="160.9" class="st4" width="2274.3" height="1554.3"/>
<g>
	<line class="st5" x1="346.7" y1="350.9" x2="1047.8" y2="350.9"/>
	<line class="st5" x1="2234.5" y1="350.9" x2="1020.8" y2="350.9"/>
	<g>
		<path class="st6" d="M346.7,350.9c22.6-22.6,59.2-22.6,81.8,0C405.9,373.5,369.3,373.5,346.7,350.9z"/>
	</g>
	<g>
		<path class="st6" d="M2152.8,350.9c22.6-22.6,59.2-22.6,81.8,0C2212,373.5,2175.3,373.5,2152.8,350.9z"/>
	</g>
</g>
<g>
	<line class="st5" x1="1047.8" y1="1530" x2="393.5" y2="1530"/>
	<line class="st5" x1="2234.5" y1="1530" x2="1534" y2="1530"/>
	<g>
		<path class="st6" d="M346.7,1530c22.6-22.6,59.2-22.6,81.8,0C405.9,1552.6,369.3,1552.6,346.7,1530z"/>
	</g>
	<g>
		<path class="st6" d="M2152.8,1530c22.6-22.6,59.2-22.6,81.8,0C2212,1552.6,2175.3,1552.6,2152.8,1530z"/>
	</g>
</g>
<g>
	<g>
		<path class="st3" d="M1101.7,1530c46.9-46.9,122.8-46.9,169.7,0C1224.5,1576.9,1148.6,1576.9,1101.7,1530z"/>
		<circle class="st7" cx="1186.6" cy="1530" r="35.1"/>
	</g>
	<g>
		<path class="st3" d="M1309.9,1530c46.9-46.9,122.8-46.9,169.7,0C1432.7,1576.9,1356.7,1576.9,1309.9,1530z"/>
		<circle class="st7" cx="1394.7" cy="1530" r="35.1"/>
	</g>
</g>
<g>
	<path d="M579.6,760V555.7h99.5V595h-51.9v47.3h37.9v38.6h-37.9V760H579.6z"/>
	<path d="M747.6,555.7V760h-47.7V555.7H747.6z"/>
	<path d="M819.3,555.7v165.1h55.1V760H771.6V555.7H819.3z"/>
	<path d="M942.8,555.7v165.1h55.1V760H895.1V555.7H942.8z"/>
	<path d="M1196.4,670.5c0,58.7-18.5,92.1-66.2,92.1s-66.1-33.4-66.1-92.1v-25.3c0-58.7,18.5-92.1,66.1-92.1s66.2,33.4,66.2,92.1
		V670.5z M1113.4,693.5c0,18.2,2.9,30.5,16.9,30.5s16.9-12.3,16.9-30.5v-71.3c0-18.2-2.9-30.5-16.9-30.5s-16.9,12.3-16.9,30.5V693.5
		z"/>
	<path d="M1216.5,687.1V555.7h49v135.2c0,20.8,1.9,32.8,16.5,32.8c14.6,0,16.5-12,16.5-32.8V555.7h49v131.3
		c0,46-15.2,75.9-65.5,75.9C1231.7,762.9,1216.5,733.1,1216.5,687.1z"/>
	<path d="M1406.5,760V595h-38.9v-39.2h126.1V595h-39.9V760H1406.5z"/>
	<path d="M1598.8,760V595h-38.9v-39.2H1686V595h-39.9V760H1598.8z"/>
	<path d="M1706.8,760V555.7h47.7v81.1h33.7v-81.1h47.7V760h-47.7v-84.3h-33.7V760H1706.8z"/>
	<path d="M1963.3,760h-103.4V555.7h103.4V595h-56.7v41.8h42.2v38.9h-42.2v45.1h56.7V760z"/>
	<path d="M418.1,950.5c0,46-11.3,76.5-39.2,87.6l19.8,26.9h-48l-17.2-24.6c-34-7.8-47.7-39.2-47.7-89.8v-25.3
		c0-58.7,18.5-92.1,66.2-92.1s66.2,33.4,66.2,92.1V950.5z M335.1,973.5c0,18.2,2.9,30.5,16.9,30.5s16.9-12.3,16.9-30.5v-71.3
		c0-18.2-2.9-30.5-16.9-30.5s-16.9,12.3-16.9,30.5V973.5z"/>
	<path d="M438.3,967.1V835.7h49v135.2c0,20.8,1.9,32.8,16.5,32.8c14.6,0,16.5-12,16.5-32.8V835.7h49v131.3c0,46-15.2,75.9-65.5,75.9
		C453.5,1042.9,438.3,1013.1,438.3,967.1z"/>
	<path d="M696,1040H592.6V835.7H696V875h-56.7v41.8h42.2v38.9h-42.2v45.1H696V1040z"/>
	<path d="M755.4,970.9v8.1c0,15.2,6.5,25.3,19.1,25.3c11,0,16.9-6.2,16.9-17.5c0-11.7-7.5-16.2-19.8-23l-17.2-9.4
		c-21.7-12-40.5-26.6-40.5-61.6c0-36.3,23.7-59.7,58.7-59.7c37.3,0,58.7,21.4,58.7,63.2v8.1h-41.8V896c0-16.5-5.2-24.6-16.9-24.6
		c-10.1,0-15.2,7.1-15.2,18.2c0,10.4,5.8,16.9,15.6,22L792,922c26.9,14.6,43.1,28.9,43.1,60.6c0,39.6-24.3,60-60.6,60
		s-61-20.1-61-63.9v-7.8H755.4z"/>
	<path d="M884.4,1040V875h-38.9v-39.2h126.1V875h-39.9V1040H884.4z"/>
	<path d="M1040.1,835.7V1040h-47.7V835.7H1040.1z"/>
	<path d="M1193.1,950.5c0,58.7-18.5,92.1-66.1,92.1c-47.7,0-66.2-33.4-66.2-92.1v-25.3c0-58.7,18.5-92.1,66.2-92.1
		c47.7,0,66.1,33.4,66.1,92.1V950.5z M1110.1,973.5c0,18.2,2.9,30.5,16.9,30.5s16.9-12.3,16.9-30.5v-71.3c0-18.2-2.9-30.5-16.9-30.5
		s-16.9,12.3-16.9,30.5V973.5z"/>
	<path d="M1298.2,835.7h44.1V1040h-36l-47-105.4h-1.3V1040h-44.1V835.7h43.5l39.6,94h1.3V835.7z"/>
	<path d="M1403.6,970.9v8.1c0,15.2,6.5,25.3,19.1,25.3c11,0,16.9-6.2,16.9-17.5c0-11.7-7.5-16.2-19.8-23l-17.2-9.4
		c-21.7-12-40.5-26.6-40.5-61.6c0-36.3,23.7-59.7,58.7-59.7c37.3,0,58.7,21.4,58.7,63.2v8.1h-41.8V896c0-16.5-5.2-24.6-16.9-24.6
		c-10.1,0-15.2,7.1-15.2,18.2c0,10.4,5.8,16.9,15.6,22l19.1,10.4c26.9,14.6,43.1,28.9,43.1,60.6c0,39.6-24.3,60-60.6,60
		s-61-20.1-61-63.9v-7.8H1403.6z"/>
	<path d="M1587.8,1040V875h-38.9v-39.2H1675V875h-39.9V1040H1587.8z"/>
	<path d="M1818.3,950.5c0,58.7-18.5,92.1-66.2,92.1s-66.1-33.4-66.1-92.1v-25.3c0-58.7,18.5-92.1,66.1-92.1s66.2,33.4,66.2,92.1
		V950.5z M1735.3,973.5c0,18.2,2.9,30.5,16.9,30.5s16.9-12.3,16.9-30.5v-71.3c0-18.2-2.9-30.5-16.9-30.5s-16.9,12.3-16.9,30.5V973.5
		z"/>
	<path d="M1925,970.9v8.1c0,15.2,6.5,25.3,19.1,25.3c11,0,16.9-6.2,16.9-17.5c0-11.7-7.5-16.2-19.8-23l-17.2-9.4
		c-21.7-12-40.5-26.6-40.5-61.6c0-36.3,23.7-59.7,58.7-59.7c37.3,0,58.7,21.4,58.7,63.2v8.1h-41.8V896c0-16.5-5.2-24.6-16.9-24.6
		c-10.1,0-15.2,7.1-15.2,18.2c0,10.4,5.8,16.9,15.6,22l19.1,10.4c26.9,14.6,43.1,28.9,43.1,60.6c0,39.6-24.3,60-60.6,60
		s-61-20.1-61-63.9v-7.8H1925z"/>
	<path d="M2128.3,1040h-103.4V835.7h103.4V875h-56.7v41.8h42.2v38.9h-42.2v45.1h56.7V1040z"/>
	<path d="M2253.8,1040h-103.4V835.7h103.4V875h-56.7v41.8h42.2v38.9h-42.2v45.1h56.7V1040z"/>
	<path d="M604.4,1115.7h47l-47.7,132.6v71.7h-46.4v-71.7l-47.7-132.6H559l23.7,75.2L604.4,1115.7z"/>
	<path d="M786,1230.5c0,58.7-18.5,92.1-66.2,92.1s-66.2-33.4-66.2-92.1v-25.3c0-58.7,18.5-92.1,66.2-92.1s66.2,33.4,66.2,92.1
		V1230.5z M703,1253.5c0,18.2,2.9,30.5,16.9,30.5s16.9-12.3,16.9-30.5v-71.3c0-18.2-2.9-30.5-16.9-30.5S703,1164,703,1182.2V1253.5z
		"/>
	<path d="M806.1,1247.1v-131.3h49v135.2c0,20.8,1.9,32.8,16.5,32.8s16.5-12,16.5-32.8v-135.2h49v131.3c0,46-15.2,75.9-65.5,75.9
		C821.4,1322.9,806.1,1293.1,806.1,1247.1z"/>
	<path d="M1039,1320c-2.6-7.8-3.2-19.8-4.5-44.4c-1-19.5-5.8-29.5-20.8-29.5h-6.2v73.9h-47v-204.3h58.7c45.7,0,66.2,24,66.2,60.3
		c0,32.1-14.6,48-35.3,51.6c21.4,4.9,28.5,20.1,30.2,45.7c1.6,26.9,1.3,37.3,5.8,46.7H1039z M1012,1208.5c19.1,0,26.6-6.2,26.6-26.9
		c0-18.5-7.5-27.6-26.6-27.6h-4.5v54.5H1012z"/>
	<path d="M1233.2,1320c-2.6-7.8-3.2-19.8-4.5-44.4c-1-19.5-5.8-29.5-20.8-29.5h-6.2v73.9h-47v-204.3h58.7c45.7,0,66.2,24,66.2,60.3
		c0,32.1-14.6,48-35.3,51.6c21.4,4.9,28.5,20.1,30.2,45.7c1.6,26.9,1.3,37.3,5.8,46.7H1233.2z M1206.3,1208.5
		c19.1,0,26.6-6.2,26.6-26.9c0-18.5-7.5-27.6-26.6-27.6h-4.5v54.5H1206.3z"/>
	<path d="M1403.8,1320h-103.4v-204.3h103.4v39.2H1347v41.8h42.2v38.9H1347v45.1h56.7V1320z"/>
	<path d="M1463.1,1250.9v8.1c0,15.2,6.5,25.3,19.1,25.3c11,0,16.9-6.2,16.9-17.5c0-11.7-7.5-16.2-19.8-23l-17.2-9.4
		c-21.7-12-40.5-26.6-40.5-61.6c0-36.3,23.7-59.7,58.7-59.7c37.3,0,58.7,21.4,58.7,63.2v8.1h-41.8v-8.4c0-16.5-5.2-24.6-16.9-24.6
		c-10.1,0-15.2,7.1-15.2,18.2c0,10.4,5.8,16.9,15.6,22l19.1,10.4c26.9,14.6,43.1,28.9,43.1,60.6c0,39.6-24.3,60-60.6,60
		s-61-20.1-61-63.9v-7.8H1463.1z"/>
	<path d="M1562.3,1247.1v-131.3h49v135.2c0,20.8,1.9,32.8,16.5,32.8c14.6,0,16.5-12,16.5-32.8v-135.2h49v131.3
		c0,46-15.2,75.9-65.5,75.9C1577.6,1322.9,1562.3,1293.1,1562.3,1247.1z"/>
	<path d="M1764.3,1115.7v165.1h55.1v39.2h-102.8v-204.3H1764.3z"/>
	<path d="M1853.2,1320V1155h-38.9v-39.2h126.1v39.2h-39.9V1320H1853.2z"/>
	<path d="M1996.8,1250.9v8.1c0,15.2,6.5,25.3,19.1,25.3c11,0,16.9-6.2,16.9-17.5c0-11.7-7.5-16.2-19.8-23l-17.2-9.4
		c-21.7-12-40.5-26.6-40.5-61.6c0-36.3,23.7-59.7,58.7-59.7c37.3,0,58.7,21.4,58.7,63.2v8.1h-41.8v-8.4c0-16.5-5.2-24.6-16.9-24.6
		c-10.1,0-15.2,7.1-15.2,18.2c0,10.4,5.8,16.9,15.6,22l19.1,10.4c26.9,14.6,43.1,28.9,43.1,60.6c0,39.6-24.3,60-60.6,60
		c-36.3,0-61-20.1-61-63.9v-7.8H1996.8z"/>
</g>
</svg>
