<?xml version="1.0" encoding="utf-8"?>
<!-- Generator: Adobe Illustrator 19.1.0, SVG Export Plug-In . SVG Version: 6.00 Build 0)  -->
<svg version="1.1" id="Layer_1" xmlns="http://www.w3.org/2000/svg" xmlns:xlink="http://www.w3.org/1999/xlink" x="0px" y="0px"
	 viewBox="338 -398 2595.3 1876" style="enable-background:new 338 -398 2595.3 1876;" xml:space="preserve">
<style type="text/css">
	.st0{fill:#FFD700;stroke:#211F21;stroke-width:9;stroke-miterlimit:10;}
	.st1{fill:none;stroke:#211F21;stroke-width:9;stroke-miterlimit:10;}
	.st2{fill:#FFFFFF;stroke:#211F21;stroke-width:9;stroke-miterlimit:10;}
	.st3{fill:none;stroke:#211F21;stroke-width:6;stroke-miterlimit:10;}
	.st4{fill:#FFD700;stroke:#211F21;stroke-width:6;stroke-miterlimit:10;}
	.st5{fill:#FFD700;}
	.st6{fill:none;}
	.st7{font-family:'FoundersGrotesk-Bold';}
	.st8{font-size:90px;}
</style>
<rect x="342.5" y="-393.5" class="st0" width="2586.3" height="1867"/>
<g>
	<g>
		<g>
			<g>
				<g>
					<g>
						<g>
							<path class="st1" d="M732.8,1437.2c-66.3,0-120-53.7-120-120"/>
						</g>
						<g>
							<path class="st1" d="M732.8,1437.2c66.3,0,120-53.7,120-120"/>
							<path class="st1" d="M972.8,1437.2c-66.3,0-120-53.7-120-120"/>
						</g>
						<g>
							<path class="st1" d="M972.8,1437.2c66.3,0,120-53.7,120-120"/>
							<path class="st1" d="M1212.8,1437.2c-66.3,0-120-53.7-120-120"/>
						</g>
						<g>
							<path class="st1" d="M1212.8,1437.2c66.3,0,120-53.7,120-120"/>
							<path class="st1" d="M1452.8,1437.2c-66.3,0-120-53.7-120-120"/>
						</g>
						<g>
							<path class="st1" d="M1452.8,1437.2c66.3,0,120-53.7,120-120"/>
							<path class="st1" d="M1692.8,1437.2c-66.3,0-120-53.7-120-120"/>
						</g>
						<g>
							<path class="st1" d="M1692.8,1437.2c66.3,0,120-53.7,120-120"/>
							<path class="st1" d="M1932.8,1437.2c-66.3,0-120-53.7-120-120"/>
						</g>
						<g>
							<path class="st1" d="M1932.8,1437.2c66.3,0,120-53.7,120-120"/>
						</g>
					</g>
					<g>
						<g>
							<path class="st1" d="M618.5,1437.2c-66.3,0-120-53.7-120-120"/>
						</g>
						<g>
							<path class="st1" d="M618.5,1437.2c66.3,0,120-53.7,120-120"/>
							<path class="st1" d="M858.5,1437.2c-66.3,0-120-53.7-120-120"/>
						</g>
						<g>
							<path class="st1" d="M858.5,1437.2c66.3,0,120-53.7,120-120"/>
							<path class="st1" d="M1098.5,1437.2c-66.3,0-120-53.7-120-120"/>
						</g>
						<g>
							<path class="st1" d="M1098.5,1437.2c66.3,0,120-53.7,120-120"/>
							<path class="st1" d="M1338.5,1437.2c-66.3,0-120-53.7-120-120"/>
						</g>
						<g>
							<path class="st1" d="M1338.5,1437.2c66.3,0,120-53.7,120-120"/>
							<path class="st1" d="M1578.5,1437.2c-66.3,0-120-53.7-120-120"/>
						</g>
						<g>
							<path class="st1" d="M1578.5,1437.2c66.3,0,120-53.7,120-120"/>
							<path class="st1" d="M1818.5,1437.2c-66.3,0-120-53.7-120-120"/>
						</g>
						<g>
							<path class="st1" d="M1818.5,1437.2c66.3,0,120-53.7,120-120"/>
							<path class="st1" d="M2058.5,1437.2c-66.3,0-120-53.7-120-120"/>
						</g>
					</g>
				</g>
				<g>
					<g>
						<g>
							<path class="st1" d="M378.5,237.2c0-66.3,53.7-120,120-120"/>
						</g>
						<g>
							<path class="st1" d="M378.5,237.2c0,66.3,53.7,120,120,120"/>
							<path class="st1" d="M378.5,477.2c0-66.3,53.7-120,120-120"/>
						</g>
						<g>
							<path class="st1" d="M378.5,477.2c0,66.3,53.7,120,120,120"/>
							<path class="st1" d="M378.5,717.2c0-66.3,53.7-120,120-120"/>
						</g>
						<g>
							<path class="st1" d="M378.5,717.2c0,66.3,53.7,120,120,120"/>
							<path class="st1" d="M378.5,957.2c0-66.3,53.7-120,120-120"/>
						</g>
						<g>
							<path class="st1" d="M378.5,957.2c0,66.3,53.7,120,120,120"/>
							<path class="st1" d="M378.5,1197.2c0-66.3,53.7-120,120-120"/>
						</g>
						<g>
							<path class="st1" d="M378.5,1197.2c0,66.3,53.7,120,120,120"/>
						</g>
					</g>
					<g>
						<g>
							<path class="st1" d="M378.5,122.9c0,66.3,53.7,120,120,120"/>
							<path class="st1" d="M378.5,362.9c0-66.3,53.7-120,120-120"/>
						</g>
						<g>
							<path class="st1" d="M378.5,362.9c0,66.3,53.7,120,120,120"/>
							<path class="st1" d="M378.5,602.9c0-66.3,53.7-120,120-120"/>
						</g>
						<g>
							<path class="st1" d="M378.5,602.9c0,66.3,53.7,120,120,120"/>
							<path class="st1" d="M378.5,842.9c0-66.3,53.7-120,120-120"/>
						</g>
						<g>
							<path class="st1" d="M378.5,842.9c0,66.3,53.7,120,120,120"/>
							<path class="st1" d="M378.5,1082.9c0-66.3,53.7-120,120-120"/>
						</g>
						<g>
							<path class="st1" d="M378.5,1082.9c0,66.3,53.7,120,120,120"/>
						</g>
					</g>
				</g>
				<path class="st1" d="M612.8,1317.2c0,66.3-53.7,120-120,120h-0.6c0-62.8-50.9-113.7-113.7-113.7v-0.6c0-66.3,53.7-120,120-120"
					/>
				<path class="st1" d="M498.5,1317.2c-66.3,0-120,53.7-120,120C444.8,1437.2,498.5,1383.4,498.5,1317.2z"/>
			</g>
			<g>
				<path class="st1" d="M2172.8,1437.2c-66.3,0-120-53.7-120-120"/>
				<g>
					<path class="st1" d="M2172.8,1437.2c66.3,0,120-53.7,120-120"/>
				</g>
				<path class="st1" d="M2058.5,1437.2c66.3,0,120-53.7,120-120"/>
				<path class="st1" d="M2298.5,1437.2c-66.3,0-120-53.7-120-120"/>
			</g>
			<path class="st1" d="M2412.8,1437.2c-66.3,0-120-53.7-120-120"/>
			<g>
				<path class="st1" d="M2412.8,1437.2c66.3,0,120-53.7,120-120"/>
				<path class="st1" d="M2652.8,1437.2c-66.3,0-120-53.7-120-120"/>
			</g>
			<path class="st1" d="M2298.5,1437.2c66.3,0,120-53.7,120-120"/>
			<path class="st1" d="M2538.5,1437.2c-66.3,0-120-53.7-120-120"/>
			<g>
				<path class="st1" d="M2538.5,1437.2c66.3,0,120-53.7,120-120"/>
			</g>
			<path class="st1" d="M2652.8,1437.2c66.3,0,120-53.7,120-120"/>
			<g>
				<g>
					<g>
						<path class="st1" d="M2892.8,237.2c0-66.3-53.7-120-120-120"/>
					</g>
					<g>
						<path class="st1" d="M2892.8,237.2c0,66.3-53.7,120-120,120"/>
						<path class="st1" d="M2892.8,477.2c0-66.3-53.7-120-120-120"/>
					</g>
					<g>
						<path class="st1" d="M2892.8,477.2c0,66.3-53.7,120-120,120"/>
						<path class="st1" d="M2892.8,717.2c0-66.3-53.7-120-120-120"/>
					</g>
					<g>
						<path class="st1" d="M2892.8,717.2c0,66.3-53.7,120-120,120"/>
						<path class="st1" d="M2892.8,957.2c0-66.3-53.7-120-120-120"/>
					</g>
					<g>
						<path class="st1" d="M2892.8,957.2c0,66.3-53.7,120-120,120"/>
						<path class="st1" d="M2892.8,1197.2c0-66.3-53.7-120-120-120"/>
					</g>
					<g>
						<path class="st1" d="M2892.8,1197.2c0,66.3-53.7,120-120,120"/>
					</g>
				</g>
				<g>
					<g>
						<path class="st1" d="M2892.8,122.9c0,66.3-53.7,120-120,120"/>
						<path class="st1" d="M2892.8,362.9c0-66.3-53.7-120-120-120"/>
					</g>
					<g>
						<path class="st1" d="M2892.8,362.9c0,66.3-53.7,120-120,120"/>
						<path class="st1" d="M2892.8,602.9c0-66.3-53.7-120-120-120"/>
					</g>
					<g>
						<path class="st1" d="M2892.8,602.9c0,66.3-53.7,120-120,120"/>
						<path class="st1" d="M2892.8,842.9c0-66.3-53.7-120-120-120"/>
					</g>
					<g>
						<path class="st1" d="M2892.8,842.9c0,66.3-53.7,120-120,120"/>
						<path class="st1" d="M2892.8,1082.9c0-66.3-53.7-120-120-120"/>
					</g>
					<g>
						<path class="st1" d="M2892.8,1082.9c0,66.3-53.7,120-120,120"/>
					</g>
				</g>
			</g>
			<path class="st1" d="M2658.5,1317.2c0,66.3,53.7,120,120,120h0.6c0-62.8,50.9-113.7,113.7-113.7v-0.6c0-66.3-53.7-120-120-120"/>
			<path class="st1" d="M2772.8,1317.2c66.3,0,120,53.7,120,120C2826.5,1437.2,2772.8,1383.4,2772.8,1317.2z"/>
		</g>
	</g>
	<g>
		<g>
			<g>
				<g>
					<path class="st1" d="M732.8-357.1c-66.3,0-120,53.7-120,120"/>
				</g>
				<g>
					<path class="st1" d="M732.8-357.1c66.3,0,120,53.7,120,120"/>
					<path class="st1" d="M972.8-357.1c-66.3,0-120,53.7-120,120"/>
				</g>
				<g>
					<path class="st1" d="M972.8-357.1c66.3,0,120,53.7,120,120"/>
					<path class="st1" d="M1212.8-357.1c-66.3,0-120,53.7-120,120"/>
				</g>
				<g>
					<path class="st1" d="M1212.8-357.1c66.3,0,120,53.7,120,120"/>
					<path class="st1" d="M1452.8-357.1c-66.3,0-120,53.7-120,120"/>
				</g>
				<g>
					<path class="st1" d="M1452.8-357.1c66.3,0,120,53.7,120,120"/>
					<path class="st1" d="M1692.8-357.1c-66.3,0-120,53.7-120,120"/>
				</g>
				<g>
					<path class="st1" d="M1692.8-357.1c66.3,0,120,53.7,120,120"/>
					<path class="st1" d="M1932.8-357.1c-66.3,0-120,53.7-120,120"/>
				</g>
				<g>
					<path class="st1" d="M1932.8-357.1c66.3,0,120,53.7,120,120"/>
				</g>
			</g>
			<g>
				<g>
					<path class="st1" d="M618.5-357.1c-66.3,0-120,53.7-120,120"/>
				</g>
				<g>
					<path class="st1" d="M618.5-357.1c66.3,0,120,53.7,120,120"/>
					<path class="st1" d="M858.5-357.1c-66.3,0-120,53.7-120,120"/>
				</g>
				<g>
					<path class="st1" d="M858.5-357.1c66.3,0,120,53.7,120,120"/>
					<path class="st1" d="M1098.5-357.1c-66.3,0-120,53.7-120,120"/>
				</g>
				<g>
					<path class="st1" d="M1098.5-357.1c66.3,0,120,53.7,120,120"/>
					<path class="st1" d="M1338.5-357.1c-66.3,0-120,53.7-120,120"/>
				</g>
				<g>
					<path class="st1" d="M1338.5-357.1c66.3,0,120,53.7,120,120"/>
					<path class="st1" d="M1578.5-357.1c-66.3,0-120,53.7-120,120"/>
				</g>
				<g>
					<path class="st1" d="M1578.5-357.1c66.3,0,120,53.7,120,120"/>
					<path class="st1" d="M1818.5-357.1c-66.3,0-120,53.7-120,120"/>
				</g>
				<g>
					<path class="st1" d="M1818.5-357.1c66.3,0,120,53.7,120,120"/>
					<path class="st1" d="M2058.5-357.1c-66.3,0-120,53.7-120,120"/>
				</g>
			</g>
		</g>
		<path class="st1" d="M378.5-117.1c0-66.3,53.7-120,120-120"/>
		<path class="st1" d="M612.8-237.1c0-66.3-53.7-120-120-120h-0.6c0,62.8-50.9,113.7-113.7,113.7v0.6c0,66.3,53.7,120,120,120"/>
		<path class="st1" d="M498.5-237.1c-66.3,0-120-53.7-120-120C444.8-357.1,498.5-303.4,498.5-237.1z"/>
		<path class="st1" d="M2172.8-357.1c-66.3,0-120,53.7-120,120"/>
		<g>
			<path class="st1" d="M2172.8-357.1c66.3,0,120,53.7,120,120"/>
		</g>
		<path class="st1" d="M2058.5-357.1c66.3,0,120,53.7,120,120"/>
		<path class="st1" d="M2298.5-357.1c-66.3,0-120,53.7-120,120"/>
		<path class="st1" d="M2412.8-357.1c-66.3,0-120,53.7-120,120"/>
		<g>
			<path class="st1" d="M2412.8-357.1c66.3,0,120,53.7,120,120"/>
			<path class="st1" d="M2652.8-357.1c-66.3,0-120,53.7-120,120"/>
		</g>
		<path class="st1" d="M2298.5-357.1c66.3,0,120,53.7,120,120"/>
		<path class="st1" d="M2538.5-357.1c-66.3,0-120,53.7-120,120"/>
		<g>
			<path class="st1" d="M2538.5-357.1c66.3,0,120,53.7,120,120"/>
		</g>
		<path class="st1" d="M2652.8-357.1c66.3,0,120,53.7,120,120"/>
		<path class="st1" d="M2892.8-117.1c0-66.3-53.7-120-120-120"/>
		<path class="st1" d="M2658.5-237.1c0-66.3,53.7-120,120-120h0.6c0,62.8,50.9,113.7,113.7,113.7v0.6c0,66.3-53.7,120-120,120"/>
		<path class="st1" d="M2772.8-237.1c66.3,0,120-53.7,120-120C2826.5-357.1,2772.8-303.4,2772.8-237.1z"/>
	</g>
	<g>
		<path class="st1" d="M378.5-2.8c0-66.3,53.7-120,120-120"/>
	</g>
	<path class="st1" d="M378.5-2.8c0,66.3,53.7,120,120,120"/>
	<path class="st1" d="M378.5-117.1c0,66.3,53.7,120,120,120"/>
	<path class="st1" d="M378.5,122.9c0-66.3,53.7-120,120-120"/>
	<g>
		<path class="st1" d="M2892.8-2.8c0-66.3-53.7-120-120-120"/>
	</g>
	<path class="st1" d="M2892.8-2.8c0,66.3-53.7,120-120,120"/>
	<path class="st1" d="M2892.8-117.1c0,66.3-53.7,120-120,120"/>
	<path class="st1" d="M2892.8,122.9c0-66.3-53.7-120-120-120"/>
</g>
<rect x="498.5" y="-237.1" class="st2" width="2274.3" height="1554.3"/>
<g>
	<path d="M757.9,147.5c0,15.1,1.9,24.8,13.5,24.8c11.6,0,13.5-9.7,13.5-24.8v-18.4h38.6v7.8c0,39.7-12.7,67.5-51.3,67.5
		c-39.7,0-55.1-26.7-55.1-75.6v-23.2c0-48.9,15.4-75.6,55.1-75.6c38.6,0,51.3,27.8,51.3,67.5v7.8h-38.6V87
		c0-15.1-1.9-24.8-13.5-24.8c-11.6,0-13.5,9.7-13.5,24.8V147.5z"/>
	<path d="M954.2,127.8c0,48.9-15.4,76.7-55.1,76.7c-39.7,0-55.1-27.8-55.1-76.7v-21.1c0-48.9,15.4-76.7,55.1-76.7
		s55.1,27.8,55.1,76.7V127.8z M885.1,147c0,15.1,2.4,25.4,14,25.4s14-10.3,14-25.4V87.6c0-15.1-2.4-25.4-14-25.4s-14,10.3-14,25.4
		V147z"/>
	<path d="M1047.6,32.2h36.7v170.1h-30l-39.2-87.8h-1.1v87.8h-36.7V32.2h36.2l32.9,78.3h1.1L1047.6,32.2L1047.6,32.2z"/>
	<path d="M1188.5,202.3l-3-15.1c-4.3,11.6-16.5,17.3-30,17.3c-33.8,0-48.1-26.7-48.1-75.6v-23.2c0-48.9,15.9-75.6,54.8-75.6
		c38.6,0,52.7,24.3,52.7,64v4.3h-38.6V87c0-15.1-2.4-24.8-14-24.8s-14,9.7-14,24.8v59.7c0,15.1,3.2,24.8,14.6,24.8
		c11.6,0,14.6-9.7,14.6-24.8v-2.4h-12.4v-29.7h50v87.8L1188.5,202.3L1188.5,202.3z"/>
	<path d="M1305.7,202.3c-2.2-6.5-2.7-16.5-3.8-37c-0.8-16.2-4.9-24.6-17.3-24.6h-5.1v61.6h-39.2V32.2h48.9c38.1,0,55.1,20,55.1,50.2
		c0,26.7-12.1,40-29.4,42.9c17.8,4,23.8,16.7,25.1,38.1c1.3,22.4,1.1,31.1,4.9,38.9L1305.7,202.3L1305.7,202.3z M1283.3,109.4
		c15.9,0,22.1-5.1,22.1-22.4c0-15.4-6.2-23-22.1-23h-3.8v45.4H1283.3z"/>
	<path d="M1445.6,32.2l36.7,170.1h-39.4l-5.7-30.2h-33.5l-5.9,30.2h-36.2l36.7-170.1L1445.6,32.2L1445.6,32.2z M1409.4,142.1h22.4
		l-10.3-56.2h-1.1L1409.4,142.1z"/>
	<path d="M1517.1,202.3V64.9h-32.4V32.2h105v32.7h-33.2v137.4H1517.1z"/>
	<path d="M1612.4,141.6V32.2h40.8v112.6c0,17.3,1.6,27.3,13.8,27.3s13.8-10,13.8-27.3V32.2h40.8v109.4c0,38.3-12.7,63.2-54.5,63.2
		S1612.4,179.9,1612.4,141.6z"/>
	<path d="M1786.6,32.2v137.4h45.9v32.7h-85.6V32.2H1786.6z"/>
	<path d="M1933.7,32.2l36.7,170.1H1931l-5.7-30.2h-33.5l-5.9,30.2h-36.2l36.7-170.1L1933.7,32.2L1933.7,32.2z M1897.6,142.1h22.4
		l-10.3-56.2h-1.1L1897.6,142.1z"/>
	<path d="M2005.3,202.3V64.9h-32.4V32.2h105v32.7h-33.2v137.4H2005.3z"/>
	<path d="M2140.8,32.2v170.1h-39.7V32.2H2140.8z"/>
	<path d="M2274.2,127.8c0,48.9-15.4,76.7-55.1,76.7c-39.7,0-55.1-27.8-55.1-76.7v-21.1c0-48.9,15.4-76.7,55.1-76.7
		c39.7,0,55.1,27.8,55.1,76.7V127.8z M2205.1,147c0,15.1,2.4,25.4,14,25.4c11.6,0,14-10.3,14-25.4V87.6c0-15.1-2.4-25.4-14-25.4
		c-11.6,0-14,10.3-14,25.4V147z"/>
	<path d="M2367.6,32.2h36.7v170.1h-30l-39.2-87.8h-1.1v87.8h-36.7V32.2h36.2l32.9,78.3h1.1L2367.6,32.2L2367.6,32.2z"/>
	<path d="M2461.3,144.8v6.8c0,12.7,5.4,21.1,15.9,21.1c9.2,0,14-5.1,14-14.6c0-9.7-6.2-13.5-16.5-19.2l-14.3-7.8
		c-18.1-10-33.8-22.1-33.8-51.3c0-30.2,19.7-49.7,48.9-49.7c31.1,0,48.9,17.8,48.9,52.7v6.8h-34.8v-7c0-13.8-4.3-20.5-14-20.5
		c-8.4,0-12.7,5.9-12.7,15.1c0,8.6,4.9,14,13,18.4l15.9,8.6c22.4,12.1,35.9,24,35.9,50.5c0,32.9-20.2,50-50.5,50
		s-50.8-16.7-50.8-53.2V145h34.9L2461.3,144.8L2461.3,144.8z"/>
</g>
<g>
	<line class="st3" x1="722.7" y1="293.1" x2="2534.6" y2="293.1"/>
	<line class="st3" x1="722.7" y1="275.1" x2="2534.6" y2="275.1"/>
	<line class="st3" x1="722.7" y1="311.1" x2="2534.6" y2="311.1"/>
</g>
<g>
	<line class="st3" x1="684.7" y1="-47.1" x2="1385.8" y2="-47.1"/>
	<line class="st3" x1="2572.5" y1="-47.1" x2="1358.8" y2="-47.1"/>
	<g>
		<path class="st4" d="M684.7-47.1c22.6-22.6,59.2-22.6,81.8,0C743.9-24.5,707.3-24.5,684.7-47.1z"/>
	</g>
	<g>
		<path class="st4" d="M2490.8-47.1c22.6-22.6,59.2-22.6,81.8,0C2550-24.5,2513.3-24.5,2490.8-47.1z"/>
	</g>
</g>
<g>
	<line class="st3" x1="2572.5" y1="1132" x2="731.5" y2="1132"/>
	<g>
		<path class="st4" d="M684.7,1132c22.6-22.6,59.2-22.6,81.8,0C743.9,1154.6,707.3,1154.6,684.7,1132z"/>
	</g>
	<g>
		<path class="st4" d="M2490.8,1132c22.6-22.6,59.2-22.6,81.8,0C2550,1154.6,2513.3,1154.6,2490.8,1132z"/>
	</g>
</g>
<g>
	<line class="st3" x1="1404.6" y1="887.8" x2="722.7" y2="887.8"/>
	<line class="st3" x1="1852.8" y1="887.8" x2="2534.6" y2="887.8"/>
</g>
<g>
	<path class="st5" d="M1798.3,887.8c-34.4-34.4-84.5-43.6-127.3-27.4c-27.3-10.3-57.6-10.3-84.8,0c-42.8-16.1-92.8-7-127.3,27.4
		c34.4,34.4,84.5,43.6,127.3,27.5c27.3,10.3,57.6,10.3,84.8,0C1713.8,931.4,1763.9,922.2,1798.3,887.8z"/>
	<g>
		<path class="st1" d="M1458.9,887.8c46.9-46.9,122.8-46.9,169.7,0C1581.8,934.7,1505.9,934.7,1458.9,887.8z"/>
	</g>
	<g>
		<path class="st1" d="M1543.8,887.8c46.9-46.9,122.8-46.9,169.7,0C1666.6,934.7,1590.6,934.7,1543.8,887.8z"/>
	</g>
	<g>
		<path class="st1" d="M1628.6,887.8c46.9-46.9,122.8-46.9,169.7,0C1751.4,934.7,1675.4,934.7,1628.6,887.8z"/>
	</g>
</g>
<g>
	<polyline class="st6" points="2609.1,977.7 658.2,977.7 658.2,1416.7 2609.1,1416.7 	"/>
	<text transform="matrix(1 0 0 1 862.7142 1034.4155)" class="st7 st8">Treat yourself tonight. You’ve earned it.</text>
</g>
</svg>
