<?xml version="1.0" encoding="utf-8"?>
<!-- Generator: Adobe Illustrator 21.0.0, SVG Export Plug-In . SVG Version: 6.00 Build 0)  -->
<svg version="1.1" id="Layer_1" xmlns="http://www.w3.org/2000/svg" xmlns:xlink="http://www.w3.org/1999/xlink" x="0px" y="0px"
	 viewBox="0 0 2595.3 1876" style="enable-background:new 0 0 2595.3 1876;" xml:space="preserve">
<style type="text/css">
	.st0{fill:#FFD700;stroke:#211F21;stroke-width:9;stroke-miterlimit:10;}
	.st1{fill:none;stroke:#211F21;stroke-width:9;stroke-miterlimit:10;}
	.st2{fill:#FFFFFF;stroke:#211F21;stroke-width:9;stroke-miterlimit:10;}
	.st3{fill:none;stroke:#211F21;stroke-width:6;stroke-miterlimit:10;}
	.st4{fill:#FFD700;stroke:#211F21;stroke-width:6;stroke-miterlimit:10;}
	.st5{fill:#211F21;}
	.st6{fill:none;}
	.st7{enable-background:new    ;}
</style>
<rect x="4.5" y="4.5" class="st0" width="2586.3" height="1867"/>
<g>
	<g>
		<g>
			<g>
				<g>
					<g>
						<g>
							<path class="st1" d="M394.8,1835.2c-66.3,0-120-53.7-120-120"/>
						</g>
						<g>
							<path class="st1" d="M394.8,1835.2c66.3,0,120-53.7,120-120"/>
							<path class="st1" d="M634.8,1835.2c-66.3,0-120-53.7-120-120"/>
						</g>
						<g>
							<path class="st1" d="M634.8,1835.2c66.3,0,120-53.7,120-120"/>
							<path class="st1" d="M874.8,1835.2c-66.3,0-120-53.7-120-120"/>
						</g>
						<g>
							<path class="st1" d="M874.8,1835.2c66.3,0,120-53.7,120-120"/>
							<path class="st1" d="M1114.8,1835.2c-66.3,0-120-53.7-120-120"/>
						</g>
						<g>
							<path class="st1" d="M1114.8,1835.2c66.3,0,120-53.7,120-120"/>
							<path class="st1" d="M1354.8,1835.2c-66.3,0-120-53.7-120-120"/>
						</g>
						<g>
							<path class="st1" d="M1354.8,1835.2c66.3,0,120-53.7,120-120"/>
							<path class="st1" d="M1594.8,1835.2c-66.3,0-120-53.7-120-120"/>
						</g>
						<g>
							<path class="st1" d="M1594.8,1835.2c66.3,0,120-53.7,120-120"/>
						</g>
					</g>
					<g>
						<g>
							<path class="st1" d="M280.5,1835.2c-66.3,0-120-53.7-120-120"/>
						</g>
						<g>
							<path class="st1" d="M280.5,1835.2c66.3,0,120-53.7,120-120"/>
							<path class="st1" d="M520.5,1835.2c-66.3,0-120-53.7-120-120"/>
						</g>
						<g>
							<path class="st1" d="M520.5,1835.2c66.3,0,120-53.7,120-120"/>
							<path class="st1" d="M760.5,1835.2c-66.3,0-120-53.7-120-120"/>
						</g>
						<g>
							<path class="st1" d="M760.5,1835.2c66.3,0,120-53.7,120-120"/>
							<path class="st1" d="M1000.5,1835.2c-66.3,0-120-53.7-120-120"/>
						</g>
						<g>
							<path class="st1" d="M1000.5,1835.2c66.3,0,120-53.7,120-120"/>
							<path class="st1" d="M1240.5,1835.2c-66.3,0-120-53.7-120-120"/>
						</g>
						<g>
							<path class="st1" d="M1240.5,1835.2c66.3,0,120-53.7,120-120"/>
							<path class="st1" d="M1480.5,1835.2c-66.3,0-120-53.7-120-120"/>
						</g>
						<g>
							<path class="st1" d="M1480.5,1835.2c66.3,0,120-53.7,120-120"/>
							<path class="st1" d="M1720.5,1835.2c-66.3,0-120-53.7-120-120"/>
						</g>
					</g>
				</g>
				<g>
					<g>
						<g>
							<path class="st1" d="M40.5,635.2c0-66.3,53.7-120,120-120"/>
						</g>
						<g>
							<path class="st1" d="M40.5,635.2c0,66.3,53.7,120,120,120"/>
							<path class="st1" d="M40.5,875.2c0-66.3,53.7-120,120-120"/>
						</g>
						<g>
							<path class="st1" d="M40.5,875.2c0,66.3,53.7,120,120,120"/>
							<path class="st1" d="M40.5,1115.2c0-66.3,53.7-120,120-120"/>
						</g>
						<g>
							<path class="st1" d="M40.5,1115.2c0,66.3,53.7,120,120,120"/>
							<path class="st1" d="M40.5,1355.2c0-66.3,53.7-120,120-120"/>
						</g>
						<g>
							<path class="st1" d="M40.5,1355.2c0,66.3,53.7,120,120,120"/>
							<path class="st1" d="M40.5,1595.2c0-66.3,53.7-120,120-120"/>
						</g>
						<g>
							<path class="st1" d="M40.5,1595.2c0,66.3,53.7,120,120,120"/>
						</g>
					</g>
					<g>
						<g>
							<path class="st1" d="M40.5,520.9c0,66.3,53.7,120,120,120"/>
							<path class="st1" d="M40.5,760.9c0-66.3,53.7-120,120-120"/>
						</g>
						<g>
							<path class="st1" d="M40.5,760.9c0,66.3,53.7,120,120,120"/>
							<path class="st1" d="M40.5,1000.9c0-66.3,53.7-120,120-120"/>
						</g>
						<g>
							<path class="st1" d="M40.5,1000.9c0,66.3,53.7,120,120,120"/>
							<path class="st1" d="M40.5,1240.9c0-66.3,53.7-120,120-120"/>
						</g>
						<g>
							<path class="st1" d="M40.5,1240.9c0,66.3,53.7,120,120,120"/>
							<path class="st1" d="M40.5,1480.9c0-66.3,53.7-120,120-120"/>
						</g>
						<g>
							<path class="st1" d="M40.5,1480.9c0,66.3,53.7,120,120,120"/>
						</g>
					</g>
				</g>
				<path class="st1" d="M274.8,1715.2c0,66.3-53.7,120-120,120h-0.6c0-62.8-50.9-113.7-113.7-113.7v-0.6c0-66.3,53.7-120,120-120"
					/>
				<path class="st1" d="M160.5,1715.2c-66.3,0-120,53.7-120,120C106.8,1835.2,160.5,1781.4,160.5,1715.2z"/>
			</g>
			<g>
				<path class="st1" d="M1834.8,1835.2c-66.3,0-120-53.7-120-120"/>
				<g>
					<path class="st1" d="M1834.8,1835.2c66.3,0,120-53.7,120-120"/>
				</g>
				<path class="st1" d="M1720.5,1835.2c66.3,0,120-53.7,120-120"/>
				<path class="st1" d="M1960.5,1835.2c-66.3,0-120-53.7-120-120"/>
			</g>
			<path class="st1" d="M2074.8,1835.2c-66.3,0-120-53.7-120-120"/>
			<g>
				<path class="st1" d="M2074.8,1835.2c66.3,0,120-53.7,120-120"/>
				<path class="st1" d="M2314.8,1835.2c-66.3,0-120-53.7-120-120"/>
			</g>
			<path class="st1" d="M1960.5,1835.2c66.3,0,120-53.7,120-120"/>
			<path class="st1" d="M2200.5,1835.2c-66.3,0-120-53.7-120-120"/>
			<g>
				<path class="st1" d="M2200.5,1835.2c66.3,0,120-53.7,120-120"/>
			</g>
			<path class="st1" d="M2314.8,1835.2c66.3,0,120-53.7,120-120"/>
			<g>
				<g>
					<g>
						<path class="st1" d="M2554.8,635.2c0-66.3-53.7-120-120-120"/>
					</g>
					<g>
						<path class="st1" d="M2554.8,635.2c0,66.3-53.7,120-120,120"/>
						<path class="st1" d="M2554.8,875.2c0-66.3-53.7-120-120-120"/>
					</g>
					<g>
						<path class="st1" d="M2554.8,875.2c0,66.3-53.7,120-120,120"/>
						<path class="st1" d="M2554.8,1115.2c0-66.3-53.7-120-120-120"/>
					</g>
					<g>
						<path class="st1" d="M2554.8,1115.2c0,66.3-53.7,120-120,120"/>
						<path class="st1" d="M2554.8,1355.2c0-66.3-53.7-120-120-120"/>
					</g>
					<g>
						<path class="st1" d="M2554.8,1355.2c0,66.3-53.7,120-120,120"/>
						<path class="st1" d="M2554.8,1595.2c0-66.3-53.7-120-120-120"/>
					</g>
					<g>
						<path class="st1" d="M2554.8,1595.2c0,66.3-53.7,120-120,120"/>
					</g>
				</g>
				<g>
					<g>
						<path class="st1" d="M2554.8,520.9c0,66.3-53.7,120-120,120"/>
						<path class="st1" d="M2554.8,760.9c0-66.3-53.7-120-120-120"/>
					</g>
					<g>
						<path class="st1" d="M2554.8,760.9c0,66.3-53.7,120-120,120"/>
						<path class="st1" d="M2554.8,1000.9c0-66.3-53.7-120-120-120"/>
					</g>
					<g>
						<path class="st1" d="M2554.8,1000.9c0,66.3-53.7,120-120,120"/>
						<path class="st1" d="M2554.8,1240.9c0-66.3-53.7-120-120-120"/>
					</g>
					<g>
						<path class="st1" d="M2554.8,1240.9c0,66.3-53.7,120-120,120"/>
						<path class="st1" d="M2554.8,1480.9c0-66.3-53.7-120-120-120"/>
					</g>
					<g>
						<path class="st1" d="M2554.8,1480.9c0,66.3-53.7,120-120,120"/>
					</g>
				</g>
			</g>
			<path class="st1" d="M2320.5,1715.2c0,66.3,53.7,120,120,120h0.6c0-62.8,50.9-113.7,113.7-113.7v-0.6c0-66.3-53.7-120-120-120"/>
			<path class="st1" d="M2434.8,1715.2c66.3,0,120,53.7,120,120C2488.5,1835.2,2434.8,1781.4,2434.8,1715.2z"/>
		</g>
	</g>
	<g>
		<g>
			<g>
				<g>
					<path class="st1" d="M394.8,40.9c-66.3,0-120,53.7-120,120"/>
				</g>
				<g>
					<path class="st1" d="M394.8,40.9c66.3,0,120,53.7,120,120"/>
					<path class="st1" d="M634.8,40.9c-66.3,0-120,53.7-120,120"/>
				</g>
				<g>
					<path class="st1" d="M634.8,40.9c66.3,0,120,53.7,120,120"/>
					<path class="st1" d="M874.8,40.9c-66.3,0-120,53.7-120,120"/>
				</g>
				<g>
					<path class="st1" d="M874.8,40.9c66.3,0,120,53.7,120,120"/>
					<path class="st1" d="M1114.8,40.9c-66.3,0-120,53.7-120,120"/>
				</g>
				<g>
					<path class="st1" d="M1114.8,40.9c66.3,0,120,53.7,120,120"/>
					<path class="st1" d="M1354.8,40.9c-66.3,0-120,53.7-120,120"/>
				</g>
				<g>
					<path class="st1" d="M1354.8,40.9c66.3,0,120,53.7,120,120"/>
					<path class="st1" d="M1594.8,40.9c-66.3,0-120,53.7-120,120"/>
				</g>
				<g>
					<path class="st1" d="M1594.8,40.9c66.3,0,120,53.7,120,120"/>
				</g>
			</g>
			<g>
				<g>
					<path class="st1" d="M280.5,40.9c-66.3,0-120,53.7-120,120"/>
				</g>
				<g>
					<path class="st1" d="M280.5,40.9c66.3,0,120,53.7,120,120"/>
					<path class="st1" d="M520.5,40.9c-66.3,0-120,53.7-120,120"/>
				</g>
				<g>
					<path class="st1" d="M520.5,40.9c66.3,0,120,53.7,120,120"/>
					<path class="st1" d="M760.5,40.9c-66.3,0-120,53.7-120,120"/>
				</g>
				<g>
					<path class="st1" d="M760.5,40.9c66.3,0,120,53.7,120,120"/>
					<path class="st1" d="M1000.5,40.9c-66.3,0-120,53.7-120,120"/>
				</g>
				<g>
					<path class="st1" d="M1000.5,40.9c66.3,0,120,53.7,120,120"/>
					<path class="st1" d="M1240.5,40.9c-66.3,0-120,53.7-120,120"/>
				</g>
				<g>
					<path class="st1" d="M1240.5,40.9c66.3,0,120,53.7,120,120"/>
					<path class="st1" d="M1480.5,40.9c-66.3,0-120,53.7-120,120"/>
				</g>
				<g>
					<path class="st1" d="M1480.5,40.9c66.3,0,120,53.7,120,120"/>
					<path class="st1" d="M1720.5,40.9c-66.3,0-120,53.7-120,120"/>
				</g>
			</g>
		</g>
		<path class="st1" d="M40.5,280.9c0-66.3,53.7-120,120-120"/>
		<path class="st1" d="M274.8,160.9c0-66.3-53.7-120-120-120h-0.6c0,62.8-50.9,113.7-113.7,113.7v0.6c0,66.3,53.7,120,120,120"/>
		<path class="st1" d="M160.5,160.9c-66.3,0-120-53.7-120-120C106.8,40.9,160.5,94.6,160.5,160.9z"/>
		<path class="st1" d="M1834.8,40.9c-66.3,0-120,53.7-120,120"/>
		<g>
			<path class="st1" d="M1834.8,40.9c66.3,0,120,53.7,120,120"/>
		</g>
		<path class="st1" d="M1720.5,40.9c66.3,0,120,53.7,120,120"/>
		<path class="st1" d="M1960.5,40.9c-66.3,0-120,53.7-120,120"/>
		<path class="st1" d="M2074.8,40.9c-66.3,0-120,53.7-120,120"/>
		<g>
			<path class="st1" d="M2074.8,40.9c66.3,0,120,53.7,120,120"/>
			<path class="st1" d="M2314.8,40.9c-66.3,0-120,53.7-120,120"/>
		</g>
		<path class="st1" d="M1960.5,40.9c66.3,0,120,53.7,120,120"/>
		<path class="st1" d="M2200.5,40.9c-66.3,0-120,53.7-120,120"/>
		<g>
			<path class="st1" d="M2200.5,40.9c66.3,0,120,53.7,120,120"/>
		</g>
		<path class="st1" d="M2314.8,40.9c66.3,0,120,53.7,120,120"/>
		<path class="st1" d="M2554.8,280.9c0-66.3-53.7-120-120-120"/>
		<path class="st1" d="M2320.5,160.9c0-66.3,53.7-120,120-120h0.6c0,62.8,50.9,113.7,113.7,113.7v0.6c0,66.3-53.7,120-120,120"/>
		<path class="st1" d="M2434.8,160.9c66.3,0,120-53.7,120-120C2488.5,40.9,2434.8,94.6,2434.8,160.9z"/>
	</g>
	<g>
		<path class="st1" d="M40.5,395.2c0-66.3,53.7-120,120-120"/>
	</g>
	<path class="st1" d="M40.5,395.2c0,66.3,53.7,120,120,120"/>
	<path class="st1" d="M40.5,280.9c0,66.3,53.7,120,120,120"/>
	<path class="st1" d="M40.5,520.9c0-66.3,53.7-120,120-120"/>
	<g>
		<path class="st1" d="M2554.8,395.2c0-66.3-53.7-120-120-120"/>
	</g>
	<path class="st1" d="M2554.8,395.2c0,66.3-53.7,120-120,120"/>
	<path class="st1" d="M2554.8,280.9c0,66.3-53.7,120-120,120"/>
	<path class="st1" d="M2554.8,520.9c0-66.3-53.7-120-120-120"/>
</g>
<rect x="160.5" y="160.9" class="st2" width="2274.3" height="1554.3"/>
<g>
	<path d="M381.4,608.5V477.2h49v135.2c0,20.8,1.9,32.8,16.5,32.8s16.5-12,16.5-32.8V477.2h49v131.3c0,46-15.2,75.9-65.5,75.9
		S381.4,654.5,381.4,608.5z"/>
	<path d="M627.2,477.2h44.1v204.3h-36l-47-105.4H587v105.4h-44.1V477.2h43.5l39.6,94h1.3L627.2,477.2L627.2,477.2z"/>
	<path d="M831.1,595.5c0,54.5-20.8,85.9-66.5,85.9h-62.3V477.2h62.3c45.7,0,66.5,31.5,66.5,85.9V595.5z M782.5,546.6
		c0-20.1-6.8-31.8-23.7-31.8H750v129.1h8.8c16.9,0,23.7-11.7,23.7-31.8V546.6z"/>
	<path d="M962.5,681.4H859V477.2h103.4v39.2h-56.7v41.8h42.2v38.9h-42.2v45.1h56.7L962.5,681.4L962.5,681.4z"/>
	<path d="M1070.1,681.4c-2.6-7.8-3.2-19.8-4.5-44.4c-1-19.5-5.8-29.5-20.8-29.5h-6.2v73.9h-47V477.2h58.7c45.7,0,66.2,24,66.2,60.3
		c0,32.1-14.6,48-35.3,51.6c21.4,4.9,28.5,20.1,30.2,45.7c1.6,26.9,1.3,37.3,5.8,46.7L1070.1,681.4L1070.1,681.4z M1043.2,569.9
		c19.1,0,26.6-6.2,26.6-26.9c0-18.5-7.5-27.6-26.6-27.6h-4.5v54.5H1043.2z"/>
	<path d="M1191.7,681.4h-47.3V477.2h57.7c44.7,0,65.8,24.6,65.8,68.4s-21.1,68.7-65.8,68.7h-10.4L1191.7,681.4L1191.7,681.4z
		 M1196.6,575.7c19.8,0,25.3-7.8,25.3-29.8s-5.5-30.5-25.3-30.5h-4.9v60.3H1196.6z"/>
	<path d="M1372.4,477.2l44.1,204.3h-47.3l-6.8-36.3h-40.2l-7.1,36.3h-43.5l44.1-204.3H1372.4z M1328.9,609.1h26.9l-12.3-67.4h-1.3
		L1328.9,609.1z"/>
	<path d="M1508.5,477.2h47l-47.7,132.6v71.7h-46.4v-71.7l-47.7-132.6h49.3l23.7,75.2L1508.5,477.2z"/>
	<path d="M1662.6,580.9h1.3l19.5-103.8h60v204.3h-44.1V565h-1.3l-22.4,116.4h-29.8l-23-116.4h-1.3v116.4h-41.8V477.2h61.3
		L1662.6,580.9z"/>
	<path d="M1877.9,681.4h-103.4V477.2h103.4v39.2h-56.7v41.8h42.2v38.9h-42.2v45.1h56.7V681.4z"/>
	<path d="M1991.4,477.2h44.1v204.3h-36l-47-105.4h-1.3v105.4h-44.1V477.2h43.5l39.6,94h1.3L1991.4,477.2L1991.4,477.2z"/>
	<path d="M2102.3,681.4v-165h-38.9v-39.2h126.1v39.2h-39.9v165.1L2102.3,681.4L2102.3,681.4z"/>
</g>
<g>
	<line class="st3" x1="384.7" y1="772.2" x2="2196.6" y2="772.2"/>
	<line class="st3" x1="384.7" y1="754.2" x2="2196.6" y2="754.2"/>
	<line class="st3" x1="384.7" y1="790.2" x2="2196.6" y2="790.2"/>
</g>
<g>
	<g>
		<path d="M1134.7,352.4h16v74.3h-13.1l-17.1-38.3h-0.5v38.3h-16v-74.3h15.8l14.4,34.2h0.5L1134.7,352.4L1134.7,352.4z"/>
		<path d="M1202.8,394.1c0,21.3-6.7,33.5-24.1,33.5s-24.1-12.1-24.1-33.5v-9.2c0-21.3,6.7-33.5,24.1-33.5s24.1,12.1,24.1,33.5V394.1
			z M1172.6,402.5c0,6.6,1.1,11.1,6.1,11.1c5.1,0,6.1-4.5,6.1-11.1v-25.9c0-6.6-1.1-11.1-6.1-11.1c-5.1,0-6.1,4.5-6.1,11.1V402.5z"
			/>
		<path d="M1217.4,426.7v-60h-14.1v-14.3h45.9v14.3h-14.5v60H1217.4z"/>
		<path d="M1270.5,352.4v74.3h-17.3v-74.3L1270.5,352.4L1270.5,352.4z"/>
		<path d="M1292.3,402.7c0,6.6,0.8,10.8,5.9,10.8s5.9-4.2,5.9-10.8v-8h16.9v3.4c0,17.3-5.5,29.5-22.4,29.5
			c-17.3,0-24.1-11.7-24.1-33v-10.1c0-21.3,6.7-33,24.1-33c16.9,0,22.4,12.1,22.4,29.5v3.4h-16.9v-8c0-6.6-0.8-10.8-5.9-10.8
			s-5.9,4.2-5.9,10.8V402.7z"/>
		<path d="M1362.6,426.7H1325v-74.3h37.6v14.3H1342v15.2h15.3V396H1342v16.4h20.6V426.7z"/>
		<path d="M1428.1,394.1c0,21.3-6.7,33.5-24.1,33.5s-24.1-12.1-24.1-33.5v-9.2c0-21.3,6.7-33.5,24.1-33.5s24.1,12.1,24.1,33.5V394.1
			z M1397.9,402.5c0,6.6,1.1,11.1,6.1,11.1s6.1-4.5,6.1-11.1v-25.9c0-6.6-1.1-11.1-6.1-11.1s-6.1,4.5-6.1,11.1V402.5z"/>
		<path d="M1432.1,426.7v-74.3h36.2v14.3h-18.9v17.2h13.8v14h-13.8v28.8H1432.1z"/>
	</g>
	<line class="st3" x1="346.7" y1="398.2" x2="1047.8" y2="398.2"/>
	<line class="st3" x1="2234.5" y1="398.2" x2="1527.8" y2="398.2"/>
	<g>
		<path class="st4" d="M346.7,398.2c22.6-22.6,59.2-22.6,81.8,0C405.9,420.8,369.3,420.8,346.7,398.2z"/>
	</g>
	<g>
		<path class="st4" d="M2152.8,398.2c22.6-22.6,59.2-22.6,81.8,0C2212,420.8,2175.3,420.8,2152.8,398.2z"/>
	</g>
</g>
<g>
	<line class="st3" x1="2234.5" y1="1505.1" x2="393.5" y2="1505.1"/>
	<g>
		<path class="st4" d="M346.7,1505.1c22.6-22.6,59.2-22.6,81.8,0C405.9,1527.7,369.3,1527.7,346.7,1505.1z"/>
	</g>
	<g>
		<path class="st4" d="M2152.8,1505.1c22.6-22.6,59.2-22.6,81.8,0C2212,1527.7,2175.3,1527.7,2152.8,1505.1z"/>
	</g>
</g>
<g>
	<g>
		<line class="st3" x1="1047.3" y1="1260.9" x2="384.7" y2="1260.9"/>
		<line class="st3" x1="1534" y1="1260.9" x2="2196.6" y2="1260.9"/>
	</g>
	<g>
		<g>
			<path class="st1" d="M1101.7,1260.9c46.9-46.9,122.8-46.9,169.7,0C1224.5,1307.7,1148.6,1307.7,1101.7,1260.9z"/>
			<circle class="st5" cx="1186.6" cy="1260.9" r="35.1"/>
		</g>
		<g>
			<path class="st1" d="M1309.9,1260.9c46.9-46.9,122.8-46.9,169.7,0C1432.7,1307.7,1356.7,1307.7,1309.9,1260.9z"/>
			<circle class="st5" cx="1394.7" cy="1260.9" r="35.1"/>
		</g>
	</g>
</g>
<g>
	<polyline class="st6" points="2272.1,1350.9 321.2,1350.9 321.2,1789.9 2272.1,1789.9 	"/>
	<g class="st7">
		<path d="M656.5,1350.9h15.3v56.7h-15.3V1350.9z"/>
		<path d="M681.5,1396.5v-18.9h-5.4v-9l3-0.4c1.9-0.3,3.3-0.9,4.2-1.9c0.9-1,1.6-2.5,2.1-4.5l1.4-5.2h9.2v11.1h10.4v10.1h-10.4v14.7
			c0,3.2,1.5,4.8,4.6,4.8c1.9,0,4-0.4,6.2-1.3v9.5c-3.2,2.4-7.3,3.6-12.1,3.6c-3.8,0-7-0.9-9.5-2.8
			C682.8,1404,681.5,1400.9,681.5,1396.5z"/>
		<path d="M768.1,1374.3c1.1-2.3,2.9-4.2,5.3-5.7c2.4-1.5,5.2-2.2,8.4-2.2c5.1,0,8.8,1.5,11,4.5c2.2,3,3.3,6.8,3.3,11.6v25.2h-14.6
			v-21.3c0-2.9-0.4-5.1-1.1-6.4c-0.8-1.3-2.2-2-4.3-2c-4.3,0-6.5,3.3-6.5,10v19.7h-14.6v-21.3c0-2.9-0.4-5.1-1.2-6.4
			c-0.8-1.3-2.2-2-4.3-2c-4.3,0-6.5,3.3-6.5,10v19.7h-14.6v-40.1h14.6v6c2.3-4.7,6.5-7.1,12.5-7.1
			C762,1366.4,766.2,1369.1,768.1,1374.3z"/>
		<path d="M803.5,1363.7v-12.8h14.8v12.8H803.5z M803.6,1367.5h14.6v40.1h-14.6V1367.5z"/>
		<path d="M864,1380.2c0,4.1-1.8,7.5-5.4,9.9c-3.6,2.5-8.3,3.7-14.1,3.7c-3.3,0-6.2-0.4-8.7-1.2c-0.5,0.5-0.8,1.1-0.8,1.9
			c0,1.6,1.1,2.4,3.4,2.4H855c4.4,0,7.8,1.1,10.2,3.2c2.3,2.1,3.5,4.9,3.5,8.4c0,3.2-1.2,5.9-3.6,8.1s-5.5,3.9-9.2,4.9
			c-3.7,1-7.8,1.5-12.3,1.5c-14.2,0-21.3-3.3-21.3-9.8c0-1.7,0.7-3.2,2.2-4.5s3.3-2,5.5-2.2c-1.7-0.6-3.1-1.6-4.2-3.1
			c-1.1-1.4-1.6-3-1.6-4.8c0-4,2.3-6.8,6.8-8.5c-3.8-2.5-5.8-5.9-5.8-10.2c0-4.2,1.8-7.5,5.4-10c3.6-2.5,8.2-3.7,13.9-3.7
			c5,0,9.3,1.1,12.9,3.2c1.3-1.7,2.9-3.2,5-4.4c2.1-1.2,4.2-1.8,6.3-1.8v11c-2,0-4,0.2-5.8,0.6C863.6,1376.6,864,1378.3,864,1380.2z
			 M834.1,1411.9c0,2.5,3.1,3.7,9.4,3.7c3.5,0,6.3-0.3,8.5-1s3.2-1.6,3.2-2.8c0-1.6-1.2-2.3-3.7-2.3h-14.8
			C835,1409.4,834.1,1410.3,834.1,1411.9z M848.9,1380.2c0-1.7-0.4-3.1-1.2-4.2c-0.8-1-1.8-1.6-3.1-1.6s-2.3,0.5-3.1,1.6
			c-0.8,1-1.2,2.4-1.2,4.2c0,1.8,0.4,3.2,1.2,4.3c0.8,1.1,1.8,1.6,3.1,1.6s2.3-0.5,3.1-1.6C848.5,1383.4,848.9,1382,848.9,1380.2z"
			/>
		<path d="M887.2,1387.9v19.7h-14.6v-56.7h14.6v22.6c1.1-2.2,2.8-4,5-5.2c2.3-1.3,4.9-1.9,7.9-1.9c5.1,0,8.8,1.5,11.1,4.5
			c2.3,3,3.4,6.8,3.4,11.5v25.2h-14.6v-21.3c0-2.8-0.5-4.9-1.4-6.3c-0.9-1.4-2.4-2.1-4.6-2.1
			C889.5,1377.9,887.2,1381.3,887.2,1387.9z"/>
		<path d="M923.6,1396.5v-18.9h-5.4v-9l3-0.4c1.9-0.3,3.3-0.9,4.2-1.9c0.9-1,1.6-2.5,2.1-4.5l1.4-5.2h9.2v11.1h10.4v10.1H938v14.7
			c0,3.2,1.5,4.8,4.6,4.8c1.9,0,4-0.4,6.2-1.3v9.5c-3.2,2.4-7.3,3.6-12.1,3.6c-3.8,0-7-0.9-9.5-2.8
			C924.8,1404,923.6,1400.9,923.6,1396.5z"/>
		<path d="M984.3,1400.7l-2.5,6.9h-11.2v-56.7h14.6v23.5c2.2-5.3,6.6-8,13.2-8c5.7,0,10.1,2,13.2,5.9c3.1,4,4.6,9,4.6,15.2
			c0,6.2-1.6,11.3-4.7,15.3c-3.1,3.9-7.6,5.9-13.4,5.9c-3.2,0-6-0.7-8.4-2.2S985.4,1403.2,984.3,1400.7z M985.1,1387.3v0.5
			c0,2.9,0.7,5.3,2.2,7c1.5,1.7,3.4,2.6,5.9,2.6c2.8,0,4.8-0.9,6.2-2.7c1.4-1.8,2.1-4.2,2.1-7.2c0-3-0.7-5.4-2.1-7.2
			c-1.4-1.8-3.5-2.7-6.2-2.7c-2.5,0-4.4,0.9-5.9,2.6C985.8,1382.1,985.1,1384.4,985.1,1387.3z"/>
		<path d="M1050.5,1393.3l11.7,1.1c-1,4.6-3.3,8.1-6.8,10.6c-3.5,2.5-7.9,3.7-13.3,3.7c-6.5,0-11.8-1.8-15.9-5.5
			c-4.1-3.7-6.1-8.7-6.1-15c0-6.3,2.1-11.5,6.2-15.6c4.1-4.1,9.4-6.2,15.7-6.2c6.4,0,11.4,1.9,15.1,5.8c3.6,3.8,5.4,8.6,5.4,14.3
			v4.1h-28.2c0.2,2.4,1,4.2,2.6,5.4c1.5,1.2,3.5,1.8,5.8,1.8C1046.6,1397.8,1049.2,1396.3,1050.5,1393.3z M1034.4,1383.5h14.1
			c-0.1-1.9-0.8-3.5-2-4.8s-2.8-1.9-4.9-1.9C1037.5,1376.9,1035.1,1379.1,1034.4,1383.5z"/>
		<path d="M1086,1396.5v-18.9h-5.4v-9l3-0.4c1.9-0.3,3.3-0.9,4.2-1.9c0.9-1,1.6-2.5,2.1-4.5l1.4-5.2h9.2v11.1h10.4v10.1h-10.4v14.7
			c0,3.2,1.5,4.8,4.6,4.8c1.9,0,4-0.4,6.2-1.3v9.5c-3.2,2.4-7.3,3.6-12.1,3.6c-3.8,0-7-0.9-9.5-2.8
			C1087.2,1404,1086,1400.9,1086,1396.5z"/>
		<path d="M1116.7,1363.7v-12.8h14.8v12.8H1116.7z M1116.8,1367.5h14.6v40.1h-14.6V1367.5z"/>
		<path d="M1178.9,1374.3c1.1-2.3,2.9-4.2,5.3-5.7c2.4-1.5,5.2-2.2,8.4-2.2c5.1,0,8.8,1.5,11,4.5s3.3,6.8,3.3,11.6v25.2h-14.6v-21.3
			c0-2.9-0.4-5.1-1.1-6.4c-0.8-1.3-2.2-2-4.3-2c-4.3,0-6.5,3.3-6.5,10v19.7h-14.6v-21.3c0-2.9-0.4-5.1-1.2-6.4c-0.8-1.3-2.2-2-4.3-2
			c-4.3,0-6.5,3.3-6.5,10v19.7h-14.6v-40.1h14.6v6c2.3-4.7,6.5-7.1,12.5-7.1C1172.8,1366.4,1177,1369.1,1178.9,1374.3z"/>
		<path d="M1242.6,1393.3l11.7,1.1c-1,4.6-3.3,8.1-6.8,10.6c-3.5,2.5-7.9,3.7-13.3,3.7c-6.5,0-11.8-1.8-15.9-5.5
			c-4.1-3.7-6.1-8.7-6.1-15c0-6.3,2.1-11.5,6.2-15.6c4.1-4.1,9.4-6.2,15.7-6.2c6.4,0,11.4,1.9,15.1,5.8c3.6,3.8,5.4,8.6,5.4,14.3
			v4.1h-28.2c0.2,2.4,1,4.2,2.6,5.4c1.5,1.2,3.5,1.8,5.8,1.8C1238.7,1397.8,1241.3,1396.3,1242.6,1393.3z M1226.6,1383.5h14.1
			c-0.1-1.9-0.8-3.5-2-4.8s-2.8-1.9-4.9-1.9C1229.7,1376.9,1227.2,1379.1,1226.6,1383.5z"/>
		<path d="M1278.1,1396.5v-18.9h-5.4v-9l3-0.4c1.9-0.3,3.3-0.9,4.2-1.9c0.9-1,1.6-2.5,2.1-4.5l1.4-5.2h9.2v11.1h10.4v10.1h-10.4
			v14.7c0,3.2,1.5,4.8,4.6,4.8c1.9,0,4-0.4,6.2-1.3v9.5c-3.2,2.4-7.3,3.6-12.1,3.6c-3.8,0-7-0.9-9.5-2.8
			C1279.4,1404,1278.1,1400.9,1278.1,1396.5z"/>
		<path d="M1344.6,1372.3c4.1,3.9,6.1,9,6.1,15.3s-2,11.3-6.1,15.3c-4,3.9-9.3,5.9-15.9,5.9c-6.5,0-11.8-1.9-15.9-5.8
			s-6.1-9-6.1-15.3c0-6.2,2-11.3,6.1-15.3c4-3.9,9.3-5.9,15.9-5.9C1335.2,1366.4,1340.5,1368.4,1344.6,1372.3z M1321.4,1387.6
			c0,6.8,2.4,10.2,7.3,10.2c2.5,0,4.3-0.9,5.5-2.7c1.2-1.8,1.8-4.3,1.8-7.4c0-3.1-0.6-5.6-1.8-7.4c-1.2-1.8-3-2.7-5.5-2.7
			C1323.9,1377.4,1321.4,1380.8,1321.4,1387.6z"/>
		<path d="M1410.2,1382.2v13.7c0,2,0.8,3,2.4,3c1.1,0,2.2-0.2,3.2-0.6v7.7c-2.5,1.7-5.6,2.6-9.1,2.6c-2.5,0-4.7-0.6-6.5-1.8
			s-3-3-3.7-5.3c-2.4,4.7-6.8,7.1-13.3,7.1c-4,0-7.1-1-9.5-2.9c-2.3-1.9-3.5-4.6-3.5-8c0-3.7,1.2-6.5,3.6-8.4
			c2.4-1.9,6-3.3,10.7-4.2l11.2-1.9v-0.6c0-3.5-1.7-5.3-5-5.3c-2.9,0-4.8,1.7-5.5,5l-13.5-0.9c0.7-4.6,2.7-8.2,6.1-10.9
			c3.4-2.7,8-4.1,13.8-4.1c5.6,0,10.1,1.3,13.5,3.9S1410.2,1376.8,1410.2,1382.2z M1395.9,1390.9v-0.6l-5.9,1.1
			c-1.9,0.4-3.3,0.9-4.2,1.5c-0.9,0.7-1.4,1.6-1.4,2.9c0,1,0.4,1.8,1.1,2.5c0.7,0.6,1.7,0.9,2.9,0.9c2.2,0,3.9-0.8,5.4-2.2
			C1395.2,1395.4,1395.9,1393.4,1395.9,1390.9z"/>
		<path d="M1417.2,1394.6l12.7-0.2c0.5,3.5,3.1,5.2,7.7,5.2c3.3,0,5-0.9,5-2.8c0-1.6-1.2-2.6-3.7-3.1l-5.9-0.9
			c-5.1-0.8-8.9-2.1-11.2-4.1c-2.4-1.9-3.6-4.9-3.6-8.8c0-4,1.6-7.3,5-9.8c3.3-2.5,7.7-3.8,13.2-3.8c5.8,0,10.3,1.2,13.6,3.6
			c3.3,2.4,5.2,5.7,5.6,9.9l-12,0.4c-0.6-3.1-3.1-4.7-7.6-4.7c-2.9,0-4.4,1-4.4,2.9c0,1.3,0.8,2,2.4,2.2l7.8,1.3
			c9.5,1.5,14.2,5.9,14.2,13.3c0,4.2-1.7,7.5-5,9.8s-7.9,3.5-13.6,3.5s-10.5-1.2-14.1-3.6
			C1419.6,1402.8,1417.6,1399.3,1417.2,1394.6z"/>
		<path d="M1476.1,1395v12.7h-14.6v-56.7h14.6v30.4l13.8-13.9h17.1l-16.6,15.8l17.1,24.4h-16.4l-11.5-16.3L1476.1,1395z"/>
		<path d="M1528.6,1377.6h-5.8v-10.1h5.8v-1.7c0-5.1,1.5-9,4.4-11.8c2.9-2.8,6.8-4.1,11.7-4.1c3.8,0,6.9,0.9,9.4,2.7
			c2.5,1.8,4.2,4.4,5,7.7l-8.9,2.8c-1-1.9-2.2-2.8-3.9-2.8c-2.2,0-3.3,1.5-3.3,4.5v2.7h10.2v10.1H1543v30.1h-14.4V1377.6z"/>
		<path d="M1592.1,1372.3c4.1,3.9,6.1,9,6.1,15.3s-2,11.3-6.1,15.3c-4,3.9-9.3,5.9-15.9,5.9c-6.5,0-11.8-1.9-15.9-5.8
			s-6.1-9-6.1-15.3c0-6.2,2-11.3,6.1-15.3c4-3.9,9.3-5.9,15.9-5.9C1582.7,1366.4,1588,1368.4,1592.1,1372.3z M1568.9,1387.6
			c0,6.8,2.4,10.2,7.3,10.2c2.5,0,4.3-0.9,5.5-2.7c1.2-1.8,1.8-4.3,1.8-7.4c0-3.1-0.6-5.6-1.8-7.4c-1.2-1.8-3-2.7-5.5-2.7
			C1571.4,1377.4,1568.9,1380.8,1568.9,1387.6z"/>
		<path d="M1635.1,1368l-0.9,13.8c-1.9-1.1-4.2-1.7-6.9-1.7c-5.8,0-8.7,3.1-8.7,9.3v18.4h-14.6v-40.1h14.6v7.1
			c0.7-2.3,2.1-4.3,4.1-5.8c2-1.6,4.3-2.3,6.9-2.3C1632,1366.4,1633.8,1366.9,1635.1,1368z"/>
		<path d="M1693.3,1382.2v13.7c0,2,0.8,3,2.4,3c1.1,0,2.2-0.2,3.2-0.6v7.7c-2.5,1.7-5.6,2.6-9.1,2.6c-2.5,0-4.7-0.6-6.5-1.8
			s-3-3-3.7-5.3c-2.4,4.7-6.8,7.1-13.3,7.1c-4,0-7.1-1-9.5-2.9c-2.3-1.9-3.5-4.6-3.5-8c0-3.7,1.2-6.5,3.6-8.4
			c2.4-1.9,6-3.3,10.7-4.2l11.2-1.9v-0.6c0-3.5-1.7-5.3-5-5.3c-2.9,0-4.8,1.7-5.5,5l-13.5-0.9c0.7-4.6,2.7-8.2,6.1-10.9
			c3.4-2.7,8-4.1,13.8-4.1c5.6,0,10.1,1.3,13.5,3.9S1693.3,1376.8,1693.3,1382.2z M1679,1390.9v-0.6l-5.9,1.1
			c-1.9,0.4-3.3,0.9-4.2,1.5c-0.9,0.7-1.4,1.6-1.4,2.9c0,1,0.4,1.8,1.1,2.5c0.7,0.6,1.7,0.9,2.9,0.9c2.2,0,3.9-0.8,5.4-2.2
			C1678.3,1395.4,1679,1393.4,1679,1390.9z"/>
		<path d="M1750.6,1368l-0.9,13.8c-1.9-1.1-4.2-1.7-6.9-1.7c-5.8,0-8.7,3.1-8.7,9.3v18.4h-14.6v-40.1h14.6v7.1
			c0.7-2.3,2.1-4.3,4.1-5.8c2-1.6,4.3-2.3,6.9-2.3C1747.4,1366.4,1749.3,1366.9,1750.6,1368z"/>
		<path d="M1791.7,1382.2v13.7c0,2,0.8,3,2.4,3c1.1,0,2.2-0.2,3.2-0.6v7.7c-2.5,1.7-5.6,2.6-9.1,2.6c-2.5,0-4.7-0.6-6.5-1.8
			s-3-3-3.7-5.3c-2.4,4.7-6.8,7.1-13.3,7.1c-4,0-7.1-1-9.5-2.9c-2.3-1.9-3.5-4.6-3.5-8c0-3.7,1.2-6.5,3.6-8.4
			c2.4-1.9,6-3.3,10.7-4.2l11.2-1.9v-0.6c0-3.5-1.7-5.3-5-5.3c-2.9,0-4.8,1.7-5.5,5l-13.5-0.9c0.7-4.6,2.7-8.2,6.1-10.9
			c3.4-2.7,8-4.1,13.8-4.1c5.6,0,10.1,1.3,13.5,3.9S1791.7,1376.8,1791.7,1382.2z M1777.4,1390.9v-0.6l-5.9,1.1
			c-1.9,0.4-3.3,0.9-4.2,1.5c-0.9,0.7-1.4,1.6-1.4,2.9c0,1,0.4,1.8,1.1,2.5c0.7,0.6,1.7,0.9,2.9,0.9c2.2,0,3.9-0.8,5.4-2.2
			C1776.7,1395.4,1777.4,1393.4,1777.4,1390.9z"/>
		<path d="M1801.5,1363.7v-12.8h14.8v12.8H1801.5z M1801.6,1367.5h14.6v40.1h-14.6V1367.5z"/>
		<path d="M1821.2,1394.6l12.7-0.2c0.5,3.5,3.1,5.2,7.7,5.2c3.3,0,5-0.9,5-2.8c0-1.6-1.2-2.6-3.7-3.1l-5.9-0.9
			c-5.1-0.8-8.9-2.1-11.2-4.1c-2.4-1.9-3.6-4.9-3.6-8.8c0-4,1.6-7.3,5-9.8c3.3-2.5,7.7-3.8,13.2-3.8c5.8,0,10.3,1.2,13.6,3.6
			c3.3,2.4,5.2,5.7,5.6,9.9l-12,0.4c-0.6-3.1-3.1-4.7-7.6-4.7c-2.9,0-4.4,1-4.4,2.9c0,1.3,0.8,2,2.4,2.2l7.8,1.3
			c9.5,1.5,14.2,5.9,14.2,13.3c0,4.2-1.7,7.5-5,9.8s-7.9,3.5-13.6,3.5s-10.5-1.2-14.1-3.6
			C1823.6,1402.8,1821.6,1399.3,1821.2,1394.6z"/>
		<path d="M1893.8,1393.3l11.7,1.1c-1,4.6-3.3,8.1-6.8,10.6c-3.5,2.5-7.9,3.7-13.3,3.7c-6.5,0-11.8-1.8-15.9-5.5
			c-4.1-3.7-6.1-8.7-6.1-15c0-6.3,2.1-11.5,6.2-15.6c4.1-4.1,9.4-6.2,15.7-6.2c6.4,0,11.4,1.9,15.1,5.8c3.6,3.8,5.4,8.6,5.4,14.3
			v4.1h-28.2c0.2,2.4,1,4.2,2.6,5.4c1.5,1.2,3.5,1.8,5.8,1.8C1890,1397.8,1892.6,1396.3,1893.8,1393.3z M1877.8,1383.5h14.1
			c-0.1-1.9-0.8-3.5-2-4.8s-2.8-1.9-4.9-1.9C1880.9,1376.9,1878.5,1379.1,1877.8,1383.5z"/>
		<path d="M1910.5,1407.6v-15.5h15.5v15.5H1910.5z"/>
	</g>
</g>
</svg>
