<svg xmlns="http://www.w3.org/2000/svg" viewBox="0 0 2595.28 1876.03"><defs><style>.cls-1,.cls-5{fill:gold;}.cls-1,.cls-2,.cls-3,.cls-4,.cls-5{stroke:#211f21;stroke-miterlimit:10;}.cls-1,.cls-2,.cls-3{stroke-width:9px;}.cls-2,.cls-4{fill:none;}.cls-3{fill:#fff;}.cls-4,.cls-5{stroke-width:6px;}.cls-6{fill:#211f21;}</style></defs><title>Asset 1</title><g id="Layer_2" data-name="Layer 2"><g id="Layer_1-2" data-name="Layer 1"><rect class="cls-1" x="4.5" y="4.5" width="2586.28" height="1867.03"/><path class="cls-2" d="M394.8,1835.17a120,120,0,0,1-120-120"/><path class="cls-2" d="M394.8,1835.17a120,120,0,0,0,120-120"/><path class="cls-2" d="M634.8,1835.17a120,120,0,0,1-120-120"/><path class="cls-2" d="M634.8,1835.17a120,120,0,0,0,120-120"/><path class="cls-2" d="M874.8,1835.17a120,120,0,0,1-120-120"/><path class="cls-2" d="M874.8,1835.17a120,120,0,0,0,120-120"/><path class="cls-2" d="M1114.8,1835.17a120,120,0,0,1-120-120"/><path class="cls-2" d="M1114.8,1835.17a120,120,0,0,0,120-120"/><path class="cls-2" d="M1354.8,1835.17a120,120,0,0,1-120-120"/><path class="cls-2" d="M1354.8,1835.17a120,120,0,0,0,120-120"/><path class="cls-2" d="M1594.8,1835.17a120,120,0,0,1-120-120"/><path class="cls-2" d="M1594.8,1835.17a120,120,0,0,0,120-120"/><path class="cls-2" d="M280.48,1835.17a120,120,0,0,1-120-120"/><path class="cls-2" d="M280.48,1835.17a120,120,0,0,0,120-120"/><path class="cls-2" d="M520.48,1835.17a120,120,0,0,1-120-120"/><path class="cls-2" d="M520.48,1835.17a120,120,0,0,0,120-120"/><path class="cls-2" d="M760.48,1835.17a120,120,0,0,1-120-120"/><path class="cls-2" d="M760.48,1835.17a120,120,0,0,0,120-120"/><path class="cls-2" d="M1000.48,1835.17a120,120,0,0,1-120-120"/><path class="cls-2" d="M1000.48,1835.17a120,120,0,0,0,120-120"/><path class="cls-2" d="M1240.48,1835.17a120,120,0,0,1-120-120"/><path class="cls-2" d="M1240.48,1835.17a120,120,0,0,0,120-120"/><path class="cls-2" d="M1480.48,1835.17a120,120,0,0,1-120-120"/><path class="cls-2" d="M1480.48,1835.17a120,120,0,0,0,120-120"/><path class="cls-2" d="M1720.48,1835.17a120,120,0,0,1-120-120"/><path class="cls-2" d="M40.48,635.17a120,120,0,0,1,120-120"/><path class="cls-2" d="M40.48,635.17a120,120,0,0,0,120,120"/><path class="cls-2" d="M40.48,875.17a120,120,0,0,1,120-120"/><path class="cls-2" d="M40.48,875.17a120,120,0,0,0,120,120"/><path class="cls-2" d="M40.48,1115.17a120,120,0,0,1,120-120"/><path class="cls-2" d="M40.48,1115.17a120,120,0,0,0,120,120"/><path class="cls-2" d="M40.48,1355.17a120,120,0,0,1,120-120"/><path class="cls-2" d="M40.48,1355.17a120,120,0,0,0,120,120"/><path class="cls-2" d="M40.48,1595.17a120,120,0,0,1,120-120"/><path class="cls-2" d="M40.48,1595.17a120,120,0,0,0,120,120"/><path class="cls-2" d="M40.48,520.86a120,120,0,0,0,120,120"/><path class="cls-2" d="M40.48,760.86a120,120,0,0,1,120-120"/><path class="cls-2" d="M40.48,760.86a120,120,0,0,0,120,120"/><path class="cls-2" d="M40.48,1000.86a120,120,0,0,1,120-120"/><path class="cls-2" d="M40.48,1000.86a120,120,0,0,0,120,120"/><path class="cls-2" d="M40.48,1240.86a120,120,0,0,1,120-120"/><path class="cls-2" d="M40.48,1240.86a120,120,0,0,0,120,120"/><path class="cls-2" d="M40.48,1480.86a120,120,0,0,1,120-120"/><path class="cls-2" d="M40.48,1480.86a120,120,0,0,0,120,120"/><path class="cls-2" d="M274.8,1715.17a120,120,0,0,1-120,120h-.61A113.71,113.71,0,0,0,40.48,1721.46v-.61a120,120,0,0,1,120-120"/><path class="cls-2" d="M160.48,1715.17a120,120,0,0,0-120,120A120,120,0,0,0,160.48,1715.17Z"/><path class="cls-2" d="M40.48,520.86"/><path class="cls-2" d="M160.48,515.17"/><path class="cls-2" d="M1834.8,1835.17a120,120,0,0,1-120-120"/><path class="cls-2" d="M1834.8,1835.17a120,120,0,0,0,120-120"/><path class="cls-2" d="M1720.48,1835.17a120,120,0,0,0,120-120"/><path class="cls-2" d="M1960.48,1835.17a120,120,0,0,1-120-120"/><path class="cls-2" d="M2074.8,1835.17a120,120,0,0,1-120-120"/><path class="cls-2" d="M2074.8,1835.17a120,120,0,0,0,120-120"/><path class="cls-2" d="M2314.8,1835.17a120,120,0,0,1-120-120"/><path class="cls-2" d="M2314.8,1835.17"/><path class="cls-2" d="M1960.48,1835.17a120,120,0,0,0,120-120"/><path class="cls-2" d="M2200.48,1835.17a120,120,0,0,1-120-120"/><path class="cls-2" d="M2200.48,1835.17a120,120,0,0,0,120-120"/><path class="cls-2" d="M2320.48,1715.17"/><path class="cls-2" d="M2314.8,1835.17a120,120,0,0,0,120-120"/><path class="cls-2" d="M2554.8,635.17a120,120,0,0,0-120-120"/><path class="cls-2" d="M2554.8,635.17a120,120,0,0,1-120,120"/><path class="cls-2" d="M2554.8,875.17a120,120,0,0,0-120-120"/><path class="cls-2" d="M2554.8,875.17a120,120,0,0,1-120,120"/><path class="cls-2" d="M2554.8,1115.17a120,120,0,0,0-120-120"/><path class="cls-2" d="M2554.8,1115.17a120,120,0,0,1-120,120"/><path class="cls-2" d="M2554.8,1355.17a120,120,0,0,0-120-120"/><path class="cls-2" d="M2554.8,1355.17a120,120,0,0,1-120,120"/><path class="cls-2" d="M2554.8,1595.17a120,120,0,0,0-120-120"/><path class="cls-2" d="M2554.8,1595.17a120,120,0,0,1-120,120"/><path class="cls-2" d="M2554.8,520.86a120,120,0,0,1-120,120"/><path class="cls-2" d="M2554.8,760.86a120,120,0,0,0-120-120"/><path class="cls-2" d="M2554.8,760.86a120,120,0,0,1-120,120"/><path class="cls-2" d="M2554.8,1000.86a120,120,0,0,0-120-120"/><path class="cls-2" d="M2554.8,1000.86a120,120,0,0,1-120,120"/><path class="cls-2" d="M2554.8,1240.86a120,120,0,0,0-120-120"/><path class="cls-2" d="M2554.8,1240.86a120,120,0,0,1-120,120"/><path class="cls-2" d="M2554.8,1480.86a120,120,0,0,0-120-120"/><path class="cls-2" d="M2554.8,1480.86a120,120,0,0,1-120,120"/><path class="cls-2" d="M2320.48,1715.17a120,120,0,0,0,120,120h.61a113.71,113.71,0,0,1,113.71-113.71v-.61a120,120,0,0,0-120-120"/><path class="cls-2" d="M2434.8,1715.17a120,120,0,0,1,120,120A120,120,0,0,1,2434.8,1715.17Z"/><path class="cls-2" d="M2554.8,520.86"/><path class="cls-2" d="M2434.8,515.17"/><path class="cls-2" d="M394.8,40.86a120,120,0,0,0-120,120"/><path class="cls-2" d="M394.8,40.86a120,120,0,0,1,120,120"/><path class="cls-2" d="M634.8,40.86a120,120,0,0,0-120,120"/><path class="cls-2" d="M634.8,40.86a120,120,0,0,1,120,120"/><path class="cls-2" d="M874.8,40.86a120,120,0,0,0-120,120"/><path class="cls-2" d="M874.8,40.86a120,120,0,0,1,120,120"/><path class="cls-2" d="M1114.8,40.86a120,120,0,0,0-120,120"/><path class="cls-2" d="M1114.8,40.86a120,120,0,0,1,120,120"/><path class="cls-2" d="M1354.8,40.86a120,120,0,0,0-120,120"/><path class="cls-2" d="M1354.8,40.86a120,120,0,0,1,120,120"/><path class="cls-2" d="M1594.8,40.86a120,120,0,0,0-120,120"/><path class="cls-2" d="M1594.8,40.86a120,120,0,0,1,120,120"/><path class="cls-2" d="M280.48,40.86a120,120,0,0,0-120,120"/><path class="cls-2" d="M280.48,40.86a120,120,0,0,1,120,120"/><path class="cls-2" d="M520.48,40.86a120,120,0,0,0-120,120"/><path class="cls-2" d="M520.48,40.86a120,120,0,0,1,120,120"/><path class="cls-2" d="M760.48,40.86a120,120,0,0,0-120,120"/><path class="cls-2" d="M760.48,40.86a120,120,0,0,1,120,120"/><path class="cls-2" d="M1000.48,40.86a120,120,0,0,0-120,120"/><path class="cls-2" d="M1000.48,40.86a120,120,0,0,1,120,120"/><path class="cls-2" d="M1240.48,40.86a120,120,0,0,0-120,120"/><path class="cls-2" d="M1240.48,40.86a120,120,0,0,1,120,120"/><path class="cls-2" d="M1480.48,40.86a120,120,0,0,0-120,120"/><path class="cls-2" d="M1480.48,40.86a120,120,0,0,1,120,120"/><path class="cls-2" d="M1720.48,40.86a120,120,0,0,0-120,120"/><path class="cls-2" d="M40.48,280.86a120,120,0,0,1,120-120"/><path class="cls-2" d="M274.8,160.86a120,120,0,0,0-120-120h-.61A113.71,113.71,0,0,1,40.48,154.57v.61a120,120,0,0,0,120,120"/><path class="cls-2" d="M160.48,160.86a120,120,0,0,1-120-120A120,120,0,0,1,160.48,160.86Z"/><path class="cls-2" d="M1834.8,40.86a120,120,0,0,0-120,120"/><path class="cls-2" d="M1834.8,40.86a120,120,0,0,1,120,120"/><path class="cls-2" d="M1720.48,40.86a120,120,0,0,1,120,120"/><path class="cls-2" d="M1960.48,40.86a120,120,0,0,0-120,120"/><path class="cls-2" d="M2074.8,40.86a120,120,0,0,0-120,120"/><path class="cls-2" d="M2074.8,40.86a120,120,0,0,1,120,120"/><path class="cls-2" d="M2314.8,40.86a120,120,0,0,0-120,120"/><path class="cls-2" d="M2314.8,40.86"/><path class="cls-2" d="M1960.48,40.86a120,120,0,0,1,120,120"/><path class="cls-2" d="M2200.48,40.86a120,120,0,0,0-120,120"/><path class="cls-2" d="M2200.48,40.86a120,120,0,0,1,120,120"/><path class="cls-2" d="M2320.48,160.86"/><path class="cls-2" d="M2314.8,40.86a120,120,0,0,1,120,120"/><path class="cls-2" d="M2554.8,280.86a120,120,0,0,0-120-120"/><path class="cls-2" d="M2320.48,160.86a120,120,0,0,1,120-120h.61A113.71,113.71,0,0,0,2554.8,154.57v.61a120,120,0,0,1-120,120"/><path class="cls-2" d="M2434.8,160.86a120,120,0,0,0,120-120A120,120,0,0,0,2434.8,160.86Z"/><path class="cls-2" d="M40.48,395.17a120,120,0,0,1,120-120"/><path class="cls-2" d="M40.48,395.17a120,120,0,0,0,120,120"/><path class="cls-2" d="M40.48,280.86a120,120,0,0,0,120,120"/><path class="cls-2" d="M40.48,520.86a120,120,0,0,1,120-120"/><path class="cls-2" d="M40.48,280.86"/><path class="cls-2" d="M160.48,275.17"/><path class="cls-2" d="M2554.8,395.17a120,120,0,0,0-120-120"/><path class="cls-2" d="M2554.8,395.17a120,120,0,0,1-120,120"/><path class="cls-2" d="M2554.8,280.86a120,120,0,0,1-120,120"/><path class="cls-2" d="M2554.8,520.86a120,120,0,0,0-120-120"/><path class="cls-2" d="M2554.8,280.86"/><path class="cls-2" d="M2434.8,275.17"/><rect class="cls-3" x="160.48" y="160.86" width="2274.32" height="1554.32"/><line class="cls-4" x1="346.74" y1="350.93" x2="1047.8" y2="350.93"/><line class="cls-4" x1="2234.54" y1="350.93" x2="1020.83" y2="350.93"/><path class="cls-5" d="M346.74,350.93a57.83,57.83,0,0,1,81.79,0A57.83,57.83,0,0,1,346.74,350.93Z"/><path class="cls-5" d="M2152.76,350.93a57.83,57.83,0,0,1,81.79,0A57.83,57.83,0,0,1,2152.76,350.93Z"/><line class="cls-4" x1="1047.8" y1="1530.01" x2="393.48" y2="1530.01"/><line class="cls-4" x1="2234.54" y1="1530.01" x2="1533.99" y2="1530.01"/><path class="cls-5" d="M346.74,1530a57.83,57.83,0,0,1,81.79,0A57.83,57.83,0,0,1,346.74,1530Z"/><path class="cls-5" d="M2152.76,1530a57.83,57.83,0,0,1,81.79,0A57.83,57.83,0,0,1,2152.76,1530Z"/><path class="cls-2" d="M1101.7,1530a120,120,0,0,1,169.71,0A120,120,0,0,1,1101.7,1530Z"/><circle class="cls-6" cx="1186.56" cy="1530.01" r="35.15"/><path class="cls-2" d="M1309.87,1530a120,120,0,0,1,169.71,0A120,120,0,0,1,1309.87,1530Z"/><circle class="cls-6" cx="1394.73" cy="1530.01" r="35.15"/></g></g></svg>