<?xml version="1.0" encoding="utf-8"?>
<!-- Generator: Adobe Illustrator 20.1.0, SVG Export Plug-In . SVG Version: 6.00 Build 0)  -->
<svg version="1.1" id="Layer_1" xmlns="http://www.w3.org/2000/svg" xmlns:xlink="http://www.w3.org/1999/xlink" x="0px" y="0px"
	 viewBox="0 0 2595.3 1876" style="enable-background:new 0 0 2595.3 1876;" xml:space="preserve">
<style type="text/css">
	.st0{fill:#FFD700;stroke:#211F21;stroke-width:9;stroke-miterlimit:10;}
	.st1{fill:none;stroke:#211F21;stroke-width:9;stroke-miterlimit:10;}
	.st2{fill:#FFFFFF;stroke:#211F21;stroke-width:9;stroke-miterlimit:10;}
	.st3{fill:none;stroke:#211F21;stroke-width:6;stroke-miterlimit:10;}
	.st4{fill:#FFD700;stroke:#211F21;stroke-width:6;stroke-miterlimit:10;}
	.st5{fill:#211F21;}
	.st6{fill:none;}
	.st7{font-family:'FoundersGrotesk-Bold';}
	.st8{font-size:90px;}
</style>
<rect x="4.5" y="4.5" class="st0" width="2586.3" height="1867"/>
<g>
	<g>
		<g>
			<g>
				<g>
					<g>
						<g>
							<path class="st1" d="M394.8,1835.2c-66.3,0-120-53.7-120-120"/>
						</g>
						<g>
							<path class="st1" d="M394.8,1835.2c66.3,0,120-53.7,120-120"/>
							<path class="st1" d="M634.8,1835.2c-66.3,0-120-53.7-120-120"/>
						</g>
						<g>
							<path class="st1" d="M634.8,1835.2c66.3,0,120-53.7,120-120"/>
							<path class="st1" d="M874.8,1835.2c-66.3,0-120-53.7-120-120"/>
						</g>
						<g>
							<path class="st1" d="M874.8,1835.2c66.3,0,120-53.7,120-120"/>
							<path class="st1" d="M1114.8,1835.2c-66.3,0-120-53.7-120-120"/>
						</g>
						<g>
							<path class="st1" d="M1114.8,1835.2c66.3,0,120-53.7,120-120"/>
							<path class="st1" d="M1354.8,1835.2c-66.3,0-120-53.7-120-120"/>
						</g>
						<g>
							<path class="st1" d="M1354.8,1835.2c66.3,0,120-53.7,120-120"/>
							<path class="st1" d="M1594.8,1835.2c-66.3,0-120-53.7-120-120"/>
						</g>
						<g>
							<path class="st1" d="M1594.8,1835.2c66.3,0,120-53.7,120-120"/>
						</g>
					</g>
					<g>
						<g>
							<path class="st1" d="M280.5,1835.2c-66.3,0-120-53.7-120-120"/>
						</g>
						<g>
							<path class="st1" d="M280.5,1835.2c66.3,0,120-53.7,120-120"/>
							<path class="st1" d="M520.5,1835.2c-66.3,0-120-53.7-120-120"/>
						</g>
						<g>
							<path class="st1" d="M520.5,1835.2c66.3,0,120-53.7,120-120"/>
							<path class="st1" d="M760.5,1835.2c-66.3,0-120-53.7-120-120"/>
						</g>
						<g>
							<path class="st1" d="M760.5,1835.2c66.3,0,120-53.7,120-120"/>
							<path class="st1" d="M1000.5,1835.2c-66.3,0-120-53.7-120-120"/>
						</g>
						<g>
							<path class="st1" d="M1000.5,1835.2c66.3,0,120-53.7,120-120"/>
							<path class="st1" d="M1240.5,1835.2c-66.3,0-120-53.7-120-120"/>
						</g>
						<g>
							<path class="st1" d="M1240.5,1835.2c66.3,0,120-53.7,120-120"/>
							<path class="st1" d="M1480.5,1835.2c-66.3,0-120-53.7-120-120"/>
						</g>
						<g>
							<path class="st1" d="M1480.5,1835.2c66.3,0,120-53.7,120-120"/>
							<path class="st1" d="M1720.5,1835.2c-66.3,0-120-53.7-120-120"/>
						</g>
					</g>
				</g>
				<g>
					<g>
						<g>
							<path class="st1" d="M40.5,635.2c0-66.3,53.7-120,120-120"/>
						</g>
						<g>
							<path class="st1" d="M40.5,635.2c0,66.3,53.7,120,120,120"/>
							<path class="st1" d="M40.5,875.2c0-66.3,53.7-120,120-120"/>
						</g>
						<g>
							<path class="st1" d="M40.5,875.2c0,66.3,53.7,120,120,120"/>
							<path class="st1" d="M40.5,1115.2c0-66.3,53.7-120,120-120"/>
						</g>
						<g>
							<path class="st1" d="M40.5,1115.2c0,66.3,53.7,120,120,120"/>
							<path class="st1" d="M40.5,1355.2c0-66.3,53.7-120,120-120"/>
						</g>
						<g>
							<path class="st1" d="M40.5,1355.2c0,66.3,53.7,120,120,120"/>
							<path class="st1" d="M40.5,1595.2c0-66.3,53.7-120,120-120"/>
						</g>
						<g>
							<path class="st1" d="M40.5,1595.2c0,66.3,53.7,120,120,120"/>
						</g>
					</g>
					<g>
						<g>
							<path class="st1" d="M40.5,520.9c0,66.3,53.7,120,120,120"/>
							<path class="st1" d="M40.5,760.9c0-66.3,53.7-120,120-120"/>
						</g>
						<g>
							<path class="st1" d="M40.5,760.9c0,66.3,53.7,120,120,120"/>
							<path class="st1" d="M40.5,1000.9c0-66.3,53.7-120,120-120"/>
						</g>
						<g>
							<path class="st1" d="M40.5,1000.9c0,66.3,53.7,120,120,120"/>
							<path class="st1" d="M40.5,1240.9c0-66.3,53.7-120,120-120"/>
						</g>
						<g>
							<path class="st1" d="M40.5,1240.9c0,66.3,53.7,120,120,120"/>
							<path class="st1" d="M40.5,1480.9c0-66.3,53.7-120,120-120"/>
						</g>
						<g>
							<path class="st1" d="M40.5,1480.9c0,66.3,53.7,120,120,120"/>
						</g>
					</g>
				</g>
				<path class="st1" d="M274.8,1715.2c0,66.3-53.7,120-120,120h-0.6c0-62.8-50.9-113.7-113.7-113.7v-0.6c0-66.3,53.7-120,120-120"
					/>
				<path class="st1" d="M160.5,1715.2c-66.3,0-120,53.7-120,120C106.8,1835.2,160.5,1781.4,160.5,1715.2z"/>
			</g>
			<g>
				<path class="st1" d="M1834.8,1835.2c-66.3,0-120-53.7-120-120"/>
				<g>
					<path class="st1" d="M1834.8,1835.2c66.3,0,120-53.7,120-120"/>
				</g>
				<path class="st1" d="M1720.5,1835.2c66.3,0,120-53.7,120-120"/>
				<path class="st1" d="M1960.5,1835.2c-66.3,0-120-53.7-120-120"/>
			</g>
			<path class="st1" d="M2074.8,1835.2c-66.3,0-120-53.7-120-120"/>
			<g>
				<path class="st1" d="M2074.8,1835.2c66.3,0,120-53.7,120-120"/>
				<path class="st1" d="M2314.8,1835.2c-66.3,0-120-53.7-120-120"/>
			</g>
			<path class="st1" d="M1960.5,1835.2c66.3,0,120-53.7,120-120"/>
			<path class="st1" d="M2200.5,1835.2c-66.3,0-120-53.7-120-120"/>
			<g>
				<path class="st1" d="M2200.5,1835.2c66.3,0,120-53.7,120-120"/>
			</g>
			<path class="st1" d="M2314.8,1835.2c66.3,0,120-53.7,120-120"/>
			<g>
				<g>
					<g>
						<path class="st1" d="M2554.8,635.2c0-66.3-53.7-120-120-120"/>
					</g>
					<g>
						<path class="st1" d="M2554.8,635.2c0,66.3-53.7,120-120,120"/>
						<path class="st1" d="M2554.8,875.2c0-66.3-53.7-120-120-120"/>
					</g>
					<g>
						<path class="st1" d="M2554.8,875.2c0,66.3-53.7,120-120,120"/>
						<path class="st1" d="M2554.8,1115.2c0-66.3-53.7-120-120-120"/>
					</g>
					<g>
						<path class="st1" d="M2554.8,1115.2c0,66.3-53.7,120-120,120"/>
						<path class="st1" d="M2554.8,1355.2c0-66.3-53.7-120-120-120"/>
					</g>
					<g>
						<path class="st1" d="M2554.8,1355.2c0,66.3-53.7,120-120,120"/>
						<path class="st1" d="M2554.8,1595.2c0-66.3-53.7-120-120-120"/>
					</g>
					<g>
						<path class="st1" d="M2554.8,1595.2c0,66.3-53.7,120-120,120"/>
					</g>
				</g>
				<g>
					<g>
						<path class="st1" d="M2554.8,520.9c0,66.3-53.7,120-120,120"/>
						<path class="st1" d="M2554.8,760.9c0-66.3-53.7-120-120-120"/>
					</g>
					<g>
						<path class="st1" d="M2554.8,760.9c0,66.3-53.7,120-120,120"/>
						<path class="st1" d="M2554.8,1000.9c0-66.3-53.7-120-120-120"/>
					</g>
					<g>
						<path class="st1" d="M2554.8,1000.9c0,66.3-53.7,120-120,120"/>
						<path class="st1" d="M2554.8,1240.9c0-66.3-53.7-120-120-120"/>
					</g>
					<g>
						<path class="st1" d="M2554.8,1240.9c0,66.3-53.7,120-120,120"/>
						<path class="st1" d="M2554.8,1480.9c0-66.3-53.7-120-120-120"/>
					</g>
					<g>
						<path class="st1" d="M2554.8,1480.9c0,66.3-53.7,120-120,120"/>
					</g>
				</g>
			</g>
			<path class="st1" d="M2320.5,1715.2c0,66.3,53.7,120,120,120h0.6c0-62.8,50.9-113.7,113.7-113.7v-0.6c0-66.3-53.7-120-120-120"/>
			<path class="st1" d="M2434.8,1715.2c66.3,0,120,53.7,120,120C2488.5,1835.2,2434.8,1781.4,2434.8,1715.2z"/>
		</g>
	</g>
	<g>
		<g>
			<g>
				<g>
					<path class="st1" d="M394.8,40.9c-66.3,0-120,53.7-120,120"/>
				</g>
				<g>
					<path class="st1" d="M394.8,40.9c66.3,0,120,53.7,120,120"/>
					<path class="st1" d="M634.8,40.9c-66.3,0-120,53.7-120,120"/>
				</g>
				<g>
					<path class="st1" d="M634.8,40.9c66.3,0,120,53.7,120,120"/>
					<path class="st1" d="M874.8,40.9c-66.3,0-120,53.7-120,120"/>
				</g>
				<g>
					<path class="st1" d="M874.8,40.9c66.3,0,120,53.7,120,120"/>
					<path class="st1" d="M1114.8,40.9c-66.3,0-120,53.7-120,120"/>
				</g>
				<g>
					<path class="st1" d="M1114.8,40.9c66.3,0,120,53.7,120,120"/>
					<path class="st1" d="M1354.8,40.9c-66.3,0-120,53.7-120,120"/>
				</g>
				<g>
					<path class="st1" d="M1354.8,40.9c66.3,0,120,53.7,120,120"/>
					<path class="st1" d="M1594.8,40.9c-66.3,0-120,53.7-120,120"/>
				</g>
				<g>
					<path class="st1" d="M1594.8,40.9c66.3,0,120,53.7,120,120"/>
				</g>
			</g>
			<g>
				<g>
					<path class="st1" d="M280.5,40.9c-66.3,0-120,53.7-120,120"/>
				</g>
				<g>
					<path class="st1" d="M280.5,40.9c66.3,0,120,53.7,120,120"/>
					<path class="st1" d="M520.5,40.9c-66.3,0-120,53.7-120,120"/>
				</g>
				<g>
					<path class="st1" d="M520.5,40.9c66.3,0,120,53.7,120,120"/>
					<path class="st1" d="M760.5,40.9c-66.3,0-120,53.7-120,120"/>
				</g>
				<g>
					<path class="st1" d="M760.5,40.9c66.3,0,120,53.7,120,120"/>
					<path class="st1" d="M1000.5,40.9c-66.3,0-120,53.7-120,120"/>
				</g>
				<g>
					<path class="st1" d="M1000.5,40.9c66.3,0,120,53.7,120,120"/>
					<path class="st1" d="M1240.5,40.9c-66.3,0-120,53.7-120,120"/>
				</g>
				<g>
					<path class="st1" d="M1240.5,40.9c66.3,0,120,53.7,120,120"/>
					<path class="st1" d="M1480.5,40.9c-66.3,0-120,53.7-120,120"/>
				</g>
				<g>
					<path class="st1" d="M1480.5,40.9c66.3,0,120,53.7,120,120"/>
					<path class="st1" d="M1720.5,40.9c-66.3,0-120,53.7-120,120"/>
				</g>
			</g>
		</g>
		<path class="st1" d="M40.5,280.9c0-66.3,53.7-120,120-120"/>
		<path class="st1" d="M274.8,160.9c0-66.3-53.7-120-120-120h-0.6c0,62.8-50.9,113.7-113.7,113.7v0.6c0,66.3,53.7,120,120,120"/>
		<path class="st1" d="M160.5,160.9c-66.3,0-120-53.7-120-120C106.8,40.9,160.5,94.6,160.5,160.9z"/>
		<path class="st1" d="M1834.8,40.9c-66.3,0-120,53.7-120,120"/>
		<g>
			<path class="st1" d="M1834.8,40.9c66.3,0,120,53.7,120,120"/>
		</g>
		<path class="st1" d="M1720.5,40.9c66.3,0,120,53.7,120,120"/>
		<path class="st1" d="M1960.5,40.9c-66.3,0-120,53.7-120,120"/>
		<path class="st1" d="M2074.8,40.9c-66.3,0-120,53.7-120,120"/>
		<g>
			<path class="st1" d="M2074.8,40.9c66.3,0,120,53.7,120,120"/>
			<path class="st1" d="M2314.8,40.9c-66.3,0-120,53.7-120,120"/>
		</g>
		<path class="st1" d="M1960.5,40.9c66.3,0,120,53.7,120,120"/>
		<path class="st1" d="M2200.5,40.9c-66.3,0-120,53.7-120,120"/>
		<g>
			<path class="st1" d="M2200.5,40.9c66.3,0,120,53.7,120,120"/>
		</g>
		<path class="st1" d="M2314.8,40.9c66.3,0,120,53.7,120,120"/>
		<path class="st1" d="M2554.8,280.9c0-66.3-53.7-120-120-120"/>
		<path class="st1" d="M2320.5,160.9c0-66.3,53.7-120,120-120h0.6c0,62.8,50.9,113.7,113.7,113.7v0.6c0,66.3-53.7,120-120,120"/>
		<path class="st1" d="M2434.8,160.9c66.3,0,120-53.7,120-120C2488.5,40.9,2434.8,94.6,2434.8,160.9z"/>
	</g>
	<g>
		<path class="st1" d="M40.5,395.2c0-66.3,53.7-120,120-120"/>
	</g>
	<path class="st1" d="M40.5,395.2c0,66.3,53.7,120,120,120"/>
	<path class="st1" d="M40.5,280.9c0,66.3,53.7,120,120,120"/>
	<path class="st1" d="M40.5,520.9c0-66.3,53.7-120,120-120"/>
	<g>
		<path class="st1" d="M2554.8,395.2c0-66.3-53.7-120-120-120"/>
	</g>
	<path class="st1" d="M2554.8,395.2c0,66.3-53.7,120-120,120"/>
	<path class="st1" d="M2554.8,280.9c0,66.3-53.7,120-120,120"/>
	<path class="st1" d="M2554.8,520.9c0-66.3-53.7-120-120-120"/>
</g>
<rect x="160.5" y="160.9" class="st2" width="2274.3" height="1554.3"/>
<g>
	<path d="M381.4,608.5V477.2h49v135.2c0,20.8,1.9,32.8,16.5,32.8s16.5-12,16.5-32.8V477.2h49v131.3c0,46-15.2,75.9-65.5,75.9
		S381.4,654.5,381.4,608.5z"/>
	<path d="M627.2,477.2h44.1v204.3h-36l-47-105.4H587v105.4h-44.1V477.2h43.5l39.6,94h1.3L627.2,477.2L627.2,477.2z"/>
	<path d="M831.1,595.5c0,54.5-20.8,85.9-66.5,85.9h-62.3V477.2h62.3c45.7,0,66.5,31.5,66.5,85.9V595.5z M782.5,546.6
		c0-20.1-6.8-31.8-23.7-31.8H750v129.1h8.8c16.9,0,23.7-11.7,23.7-31.8V546.6z"/>
	<path d="M962.5,681.4H859V477.2h103.4v39.2h-56.7v41.8h42.2v38.9h-42.2v45.1h56.7L962.5,681.4L962.5,681.4z"/>
	<path d="M1070.1,681.4c-2.6-7.8-3.2-19.8-4.5-44.4c-1-19.5-5.8-29.5-20.8-29.5h-6.2v73.9h-47V477.2h58.7c45.7,0,66.2,24,66.2,60.3
		c0,32.1-14.6,48-35.3,51.6c21.4,4.9,28.5,20.1,30.2,45.7c1.6,26.9,1.3,37.3,5.8,46.7L1070.1,681.4L1070.1,681.4z M1043.2,569.9
		c19.1,0,26.6-6.2,26.6-26.9c0-18.5-7.5-27.6-26.6-27.6h-4.5v54.5H1043.2z"/>
	<path d="M1191.7,681.4h-47.3V477.2h57.7c44.7,0,65.8,24.6,65.8,68.4s-21.1,68.7-65.8,68.7h-10.4L1191.7,681.4L1191.7,681.4z
		 M1196.6,575.7c19.8,0,25.3-7.8,25.3-29.8s-5.5-30.5-25.3-30.5h-4.9v60.3H1196.6z"/>
	<path d="M1372.4,477.2l44.1,204.3h-47.3l-6.8-36.3h-40.2l-7.1,36.3h-43.5l44.1-204.3H1372.4z M1328.9,609.1h26.9l-12.3-67.4h-1.3
		L1328.9,609.1z"/>
	<path d="M1508.5,477.2h47l-47.7,132.6v71.7h-46.4v-71.7l-47.7-132.6h49.3l23.7,75.2L1508.5,477.2z"/>
	<path d="M1662.6,580.9h1.3l19.5-103.8h60v204.3h-44.1V565h-1.3l-22.4,116.4h-29.8l-23-116.4h-1.3v116.4h-41.8V477.2h61.3
		L1662.6,580.9z"/>
	<path d="M1877.9,681.4h-103.4V477.2h103.4v39.2h-56.7v41.8h42.2v38.9h-42.2v45.1h56.7V681.4z"/>
	<path d="M1991.4,477.2h44.1v204.3h-36l-47-105.4h-1.3v105.4h-44.1V477.2h43.5l39.6,94h1.3L1991.4,477.2L1991.4,477.2z"/>
	<path d="M2102.3,681.4v-165h-38.9v-39.2h126.1v39.2h-39.9v165.1L2102.3,681.4L2102.3,681.4z"/>
</g>
<g>
	<line class="st3" x1="384.7" y1="772.2" x2="2196.6" y2="772.2"/>
	<line class="st3" x1="384.7" y1="754.2" x2="2196.6" y2="754.2"/>
	<line class="st3" x1="384.7" y1="790.2" x2="2196.6" y2="790.2"/>
</g>
<g>
	<g>
		<path d="M1134.7,352.4h16v74.3h-13.1l-17.1-38.3h-0.5v38.3h-16v-74.3h15.8l14.4,34.2h0.5L1134.7,352.4L1134.7,352.4z"/>
		<path d="M1202.8,394.1c0,21.3-6.7,33.5-24.1,33.5s-24.1-12.1-24.1-33.5v-9.2c0-21.3,6.7-33.5,24.1-33.5s24.1,12.1,24.1,33.5V394.1
			z M1172.6,402.5c0,6.6,1.1,11.1,6.1,11.1c5.1,0,6.1-4.5,6.1-11.1v-25.9c0-6.6-1.1-11.1-6.1-11.1c-5.1,0-6.1,4.5-6.1,11.1V402.5z"
			/>
		<path d="M1217.4,426.7v-60h-14.1v-14.3h45.9v14.3h-14.5v60H1217.4z"/>
		<path d="M1270.5,352.4v74.3h-17.3v-74.3L1270.5,352.4L1270.5,352.4z"/>
		<path d="M1292.3,402.7c0,6.6,0.8,10.8,5.9,10.8s5.9-4.2,5.9-10.8v-8h16.9v3.4c0,17.3-5.5,29.5-22.4,29.5
			c-17.3,0-24.1-11.7-24.1-33v-10.1c0-21.3,6.7-33,24.1-33c16.9,0,22.4,12.1,22.4,29.5v3.4h-16.9v-8c0-6.6-0.8-10.8-5.9-10.8
			s-5.9,4.2-5.9,10.8V402.7z"/>
		<path d="M1362.6,426.7H1325v-74.3h37.6v14.3H1342v15.2h15.3V396H1342v16.4h20.6V426.7z"/>
		<path d="M1428.1,394.1c0,21.3-6.7,33.5-24.1,33.5s-24.1-12.1-24.1-33.5v-9.2c0-21.3,6.7-33.5,24.1-33.5s24.1,12.1,24.1,33.5V394.1
			z M1397.9,402.5c0,6.6,1.1,11.1,6.1,11.1s6.1-4.5,6.1-11.1v-25.9c0-6.6-1.1-11.1-6.1-11.1s-6.1,4.5-6.1,11.1V402.5z"/>
		<path d="M1432.1,426.7v-74.3h36.2v14.3h-18.9v17.2h13.8v14h-13.8v28.8H1432.1z"/>
	</g>
	<line class="st3" x1="346.7" y1="398.2" x2="1047.8" y2="398.2"/>
	<line class="st3" x1="2234.5" y1="398.2" x2="1527.8" y2="398.2"/>
	<g>
		<path class="st4" d="M346.7,398.2c22.6-22.6,59.2-22.6,81.8,0C405.9,420.8,369.3,420.8,346.7,398.2z"/>
	</g>
	<g>
		<path class="st4" d="M2152.8,398.2c22.6-22.6,59.2-22.6,81.8,0C2212,420.8,2175.3,420.8,2152.8,398.2z"/>
	</g>
</g>
<g>
	<line class="st3" x1="2234.5" y1="1505.1" x2="393.5" y2="1505.1"/>
	<g>
		<path class="st4" d="M346.7,1505.1c22.6-22.6,59.2-22.6,81.8,0C405.9,1527.7,369.3,1527.7,346.7,1505.1z"/>
	</g>
	<g>
		<path class="st4" d="M2152.8,1505.1c22.6-22.6,59.2-22.6,81.8,0C2212,1527.7,2175.3,1527.7,2152.8,1505.1z"/>
	</g>
</g>
<g>
	<g>
		<line class="st3" x1="1047.3" y1="1260.9" x2="384.7" y2="1260.9"/>
		<line class="st3" x1="1534" y1="1260.9" x2="2196.6" y2="1260.9"/>
	</g>
	<g>
		<g>
			<path class="st1" d="M1101.7,1260.9c46.9-46.9,122.8-46.9,169.7,0C1224.5,1307.7,1148.6,1307.7,1101.7,1260.9z"/>
			<circle class="st5" cx="1186.6" cy="1260.9" r="35.1"/>
		</g>
		<g>
			<path class="st1" d="M1309.9,1260.9c46.9-46.9,122.8-46.9,169.7,0C1432.7,1307.7,1356.7,1307.7,1309.9,1260.9z"/>
			<circle class="st5" cx="1394.7" cy="1260.9" r="35.1"/>
		</g>
	</g>
</g>
<g>
	<polyline class="st6" points="2272.1,1350.9 321.2,1350.9 321.2,1789.9 2272.1,1789.9 	"/>
	<text transform="matrix(1 0 0 1 494.2106 1407.6421)" class="st7 st8">Will undervaluing your employee pay off?</text>
</g>
</svg>
