<?xml version="1.0" encoding="utf-8"?>
<!-- Generator: Adobe Illustrator 20.1.0, SVG Export Plug-In . SVG Version: 6.00 Build 0)  -->
<svg version="1.1" id="Layer_1" xmlns="http://www.w3.org/2000/svg" xmlns:xlink="http://www.w3.org/1999/xlink" x="0px" y="0px"
	 viewBox="0 0 2595.3 1876" style="enable-background:new 0 0 2595.3 1876;" xml:space="preserve">
<style type="text/css">
	.st0{fill:#FFD700;stroke:#211F21;stroke-width:9;stroke-miterlimit:10;}
	.st1{fill:none;stroke:#211F21;stroke-width:9;stroke-miterlimit:10;}
	.st2{fill:#FFFFFF;stroke:#211F21;stroke-width:9;stroke-miterlimit:10;}
	.st3{fill:none;stroke:#211F21;stroke-width:6;stroke-miterlimit:10;}
	.st4{fill:#FFD700;stroke:#211F21;stroke-width:6;stroke-miterlimit:10;}
	.st5{fill:#211F21;}
	.st6{fill:none;}
	.st7{font-family:'FoundersGrotesk-Bold';}
	.st8{font-size:90px;}
</style>
<rect x="4.5" y="4.5" class="st0" width="2586.3" height="1867"/>
<g>
	<g>
		<g>
			<g>
				<g>
					<g>
						<g>
							<path class="st1" d="M394.8,1835.2c-66.3,0-120-53.7-120-120"/>
						</g>
						<g>
							<path class="st1" d="M394.8,1835.2c66.3,0,120-53.7,120-120"/>
							<path class="st1" d="M634.8,1835.2c-66.3,0-120-53.7-120-120"/>
						</g>
						<g>
							<path class="st1" d="M634.8,1835.2c66.3,0,120-53.7,120-120"/>
							<path class="st1" d="M874.8,1835.2c-66.3,0-120-53.7-120-120"/>
						</g>
						<g>
							<path class="st1" d="M874.8,1835.2c66.3,0,120-53.7,120-120"/>
							<path class="st1" d="M1114.8,1835.2c-66.3,0-120-53.7-120-120"/>
						</g>
						<g>
							<path class="st1" d="M1114.8,1835.2c66.3,0,120-53.7,120-120"/>
							<path class="st1" d="M1354.8,1835.2c-66.3,0-120-53.7-120-120"/>
						</g>
						<g>
							<path class="st1" d="M1354.8,1835.2c66.3,0,120-53.7,120-120"/>
							<path class="st1" d="M1594.8,1835.2c-66.3,0-120-53.7-120-120"/>
						</g>
						<g>
							<path class="st1" d="M1594.8,1835.2c66.3,0,120-53.7,120-120"/>
						</g>
					</g>
					<g>
						<g>
							<path class="st1" d="M280.5,1835.2c-66.3,0-120-53.7-120-120"/>
						</g>
						<g>
							<path class="st1" d="M280.5,1835.2c66.3,0,120-53.7,120-120"/>
							<path class="st1" d="M520.5,1835.2c-66.3,0-120-53.7-120-120"/>
						</g>
						<g>
							<path class="st1" d="M520.5,1835.2c66.3,0,120-53.7,120-120"/>
							<path class="st1" d="M760.5,1835.2c-66.3,0-120-53.7-120-120"/>
						</g>
						<g>
							<path class="st1" d="M760.5,1835.2c66.3,0,120-53.7,120-120"/>
							<path class="st1" d="M1000.5,1835.2c-66.3,0-120-53.7-120-120"/>
						</g>
						<g>
							<path class="st1" d="M1000.5,1835.2c66.3,0,120-53.7,120-120"/>
							<path class="st1" d="M1240.5,1835.2c-66.3,0-120-53.7-120-120"/>
						</g>
						<g>
							<path class="st1" d="M1240.5,1835.2c66.3,0,120-53.7,120-120"/>
							<path class="st1" d="M1480.5,1835.2c-66.3,0-120-53.7-120-120"/>
						</g>
						<g>
							<path class="st1" d="M1480.5,1835.2c66.3,0,120-53.7,120-120"/>
							<path class="st1" d="M1720.5,1835.2c-66.3,0-120-53.7-120-120"/>
						</g>
					</g>
				</g>
				<g>
					<g>
						<g>
							<path class="st1" d="M40.5,635.2c0-66.3,53.7-120,120-120"/>
						</g>
						<g>
							<path class="st1" d="M40.5,635.2c0,66.3,53.7,120,120,120"/>
							<path class="st1" d="M40.5,875.2c0-66.3,53.7-120,120-120"/>
						</g>
						<g>
							<path class="st1" d="M40.5,875.2c0,66.3,53.7,120,120,120"/>
							<path class="st1" d="M40.5,1115.2c0-66.3,53.7-120,120-120"/>
						</g>
						<g>
							<path class="st1" d="M40.5,1115.2c0,66.3,53.7,120,120,120"/>
							<path class="st1" d="M40.5,1355.2c0-66.3,53.7-120,120-120"/>
						</g>
						<g>
							<path class="st1" d="M40.5,1355.2c0,66.3,53.7,120,120,120"/>
							<path class="st1" d="M40.5,1595.2c0-66.3,53.7-120,120-120"/>
						</g>
						<g>
							<path class="st1" d="M40.5,1595.2c0,66.3,53.7,120,120,120"/>
						</g>
					</g>
					<g>
						<g>
							<path class="st1" d="M40.5,520.9c0,66.3,53.7,120,120,120"/>
							<path class="st1" d="M40.5,760.9c0-66.3,53.7-120,120-120"/>
						</g>
						<g>
							<path class="st1" d="M40.5,760.9c0,66.3,53.7,120,120,120"/>
							<path class="st1" d="M40.5,1000.9c0-66.3,53.7-120,120-120"/>
						</g>
						<g>
							<path class="st1" d="M40.5,1000.9c0,66.3,53.7,120,120,120"/>
							<path class="st1" d="M40.5,1240.9c0-66.3,53.7-120,120-120"/>
						</g>
						<g>
							<path class="st1" d="M40.5,1240.9c0,66.3,53.7,120,120,120"/>
							<path class="st1" d="M40.5,1480.9c0-66.3,53.7-120,120-120"/>
						</g>
						<g>
							<path class="st1" d="M40.5,1480.9c0,66.3,53.7,120,120,120"/>
						</g>
					</g>
				</g>
				<path class="st1" d="M274.8,1715.2c0,66.3-53.7,120-120,120h-0.6c0-62.8-50.9-113.7-113.7-113.7v-0.6c0-66.3,53.7-120,120-120"
					/>
				<path class="st1" d="M160.5,1715.2c-66.3,0-120,53.7-120,120C106.8,1835.2,160.5,1781.4,160.5,1715.2z"/>
			</g>
			<g>
				<path class="st1" d="M1834.8,1835.2c-66.3,0-120-53.7-120-120"/>
				<g>
					<path class="st1" d="M1834.8,1835.2c66.3,0,120-53.7,120-120"/>
				</g>
				<path class="st1" d="M1720.5,1835.2c66.3,0,120-53.7,120-120"/>
				<path class="st1" d="M1960.5,1835.2c-66.3,0-120-53.7-120-120"/>
			</g>
			<path class="st1" d="M2074.8,1835.2c-66.3,0-120-53.7-120-120"/>
			<g>
				<path class="st1" d="M2074.8,1835.2c66.3,0,120-53.7,120-120"/>
				<path class="st1" d="M2314.8,1835.2c-66.3,0-120-53.7-120-120"/>
			</g>
			<path class="st1" d="M1960.5,1835.2c66.3,0,120-53.7,120-120"/>
			<path class="st1" d="M2200.5,1835.2c-66.3,0-120-53.7-120-120"/>
			<g>
				<path class="st1" d="M2200.5,1835.2c66.3,0,120-53.7,120-120"/>
			</g>
			<path class="st1" d="M2314.8,1835.2c66.3,0,120-53.7,120-120"/>
			<g>
				<g>
					<g>
						<path class="st1" d="M2554.8,635.2c0-66.3-53.7-120-120-120"/>
					</g>
					<g>
						<path class="st1" d="M2554.8,635.2c0,66.3-53.7,120-120,120"/>
						<path class="st1" d="M2554.8,875.2c0-66.3-53.7-120-120-120"/>
					</g>
					<g>
						<path class="st1" d="M2554.8,875.2c0,66.3-53.7,120-120,120"/>
						<path class="st1" d="M2554.8,1115.2c0-66.3-53.7-120-120-120"/>
					</g>
					<g>
						<path class="st1" d="M2554.8,1115.2c0,66.3-53.7,120-120,120"/>
						<path class="st1" d="M2554.8,1355.2c0-66.3-53.7-120-120-120"/>
					</g>
					<g>
						<path class="st1" d="M2554.8,1355.2c0,66.3-53.7,120-120,120"/>
						<path class="st1" d="M2554.8,1595.2c0-66.3-53.7-120-120-120"/>
					</g>
					<g>
						<path class="st1" d="M2554.8,1595.2c0,66.3-53.7,120-120,120"/>
					</g>
				</g>
				<g>
					<g>
						<path class="st1" d="M2554.8,520.9c0,66.3-53.7,120-120,120"/>
						<path class="st1" d="M2554.8,760.9c0-66.3-53.7-120-120-120"/>
					</g>
					<g>
						<path class="st1" d="M2554.8,760.9c0,66.3-53.7,120-120,120"/>
						<path class="st1" d="M2554.8,1000.9c0-66.3-53.7-120-120-120"/>
					</g>
					<g>
						<path class="st1" d="M2554.8,1000.9c0,66.3-53.7,120-120,120"/>
						<path class="st1" d="M2554.8,1240.9c0-66.3-53.7-120-120-120"/>
					</g>
					<g>
						<path class="st1" d="M2554.8,1240.9c0,66.3-53.7,120-120,120"/>
						<path class="st1" d="M2554.8,1480.9c0-66.3-53.7-120-120-120"/>
					</g>
					<g>
						<path class="st1" d="M2554.8,1480.9c0,66.3-53.7,120-120,120"/>
					</g>
				</g>
			</g>
			<path class="st1" d="M2320.5,1715.2c0,66.3,53.7,120,120,120h0.6c0-62.8,50.9-113.7,113.7-113.7v-0.6c0-66.3-53.7-120-120-120"/>
			<path class="st1" d="M2434.8,1715.2c66.3,0,120,53.7,120,120C2488.5,1835.2,2434.8,1781.4,2434.8,1715.2z"/>
		</g>
	</g>
	<g>
		<g>
			<g>
				<g>
					<path class="st1" d="M394.8,40.9c-66.3,0-120,53.7-120,120"/>
				</g>
				<g>
					<path class="st1" d="M394.8,40.9c66.3,0,120,53.7,120,120"/>
					<path class="st1" d="M634.8,40.9c-66.3,0-120,53.7-120,120"/>
				</g>
				<g>
					<path class="st1" d="M634.8,40.9c66.3,0,120,53.7,120,120"/>
					<path class="st1" d="M874.8,40.9c-66.3,0-120,53.7-120,120"/>
				</g>
				<g>
					<path class="st1" d="M874.8,40.9c66.3,0,120,53.7,120,120"/>
					<path class="st1" d="M1114.8,40.9c-66.3,0-120,53.7-120,120"/>
				</g>
				<g>
					<path class="st1" d="M1114.8,40.9c66.3,0,120,53.7,120,120"/>
					<path class="st1" d="M1354.8,40.9c-66.3,0-120,53.7-120,120"/>
				</g>
				<g>
					<path class="st1" d="M1354.8,40.9c66.3,0,120,53.7,120,120"/>
					<path class="st1" d="M1594.8,40.9c-66.3,0-120,53.7-120,120"/>
				</g>
				<g>
					<path class="st1" d="M1594.8,40.9c66.3,0,120,53.7,120,120"/>
				</g>
			</g>
			<g>
				<g>
					<path class="st1" d="M280.5,40.9c-66.3,0-120,53.7-120,120"/>
				</g>
				<g>
					<path class="st1" d="M280.5,40.9c66.3,0,120,53.7,120,120"/>
					<path class="st1" d="M520.5,40.9c-66.3,0-120,53.7-120,120"/>
				</g>
				<g>
					<path class="st1" d="M520.5,40.9c66.3,0,120,53.7,120,120"/>
					<path class="st1" d="M760.5,40.9c-66.3,0-120,53.7-120,120"/>
				</g>
				<g>
					<path class="st1" d="M760.5,40.9c66.3,0,120,53.7,120,120"/>
					<path class="st1" d="M1000.5,40.9c-66.3,0-120,53.7-120,120"/>
				</g>
				<g>
					<path class="st1" d="M1000.5,40.9c66.3,0,120,53.7,120,120"/>
					<path class="st1" d="M1240.5,40.9c-66.3,0-120,53.7-120,120"/>
				</g>
				<g>
					<path class="st1" d="M1240.5,40.9c66.3,0,120,53.7,120,120"/>
					<path class="st1" d="M1480.5,40.9c-66.3,0-120,53.7-120,120"/>
				</g>
				<g>
					<path class="st1" d="M1480.5,40.9c66.3,0,120,53.7,120,120"/>
					<path class="st1" d="M1720.5,40.9c-66.3,0-120,53.7-120,120"/>
				</g>
			</g>
		</g>
		<path class="st1" d="M40.5,280.9c0-66.3,53.7-120,120-120"/>
		<path class="st1" d="M274.8,160.9c0-66.3-53.7-120-120-120h-0.6c0,62.8-50.9,113.7-113.7,113.7v0.6c0,66.3,53.7,120,120,120"/>
		<path class="st1" d="M160.5,160.9c-66.3,0-120-53.7-120-120C106.8,40.9,160.5,94.6,160.5,160.9z"/>
		<path class="st1" d="M1834.8,40.9c-66.3,0-120,53.7-120,120"/>
		<g>
			<path class="st1" d="M1834.8,40.9c66.3,0,120,53.7,120,120"/>
		</g>
		<path class="st1" d="M1720.5,40.9c66.3,0,120,53.7,120,120"/>
		<path class="st1" d="M1960.5,40.9c-66.3,0-120,53.7-120,120"/>
		<path class="st1" d="M2074.8,40.9c-66.3,0-120,53.7-120,120"/>
		<g>
			<path class="st1" d="M2074.8,40.9c66.3,0,120,53.7,120,120"/>
			<path class="st1" d="M2314.8,40.9c-66.3,0-120,53.7-120,120"/>
		</g>
		<path class="st1" d="M1960.5,40.9c66.3,0,120,53.7,120,120"/>
		<path class="st1" d="M2200.5,40.9c-66.3,0-120,53.7-120,120"/>
		<g>
			<path class="st1" d="M2200.5,40.9c66.3,0,120,53.7,120,120"/>
		</g>
		<path class="st1" d="M2314.8,40.9c66.3,0,120,53.7,120,120"/>
		<path class="st1" d="M2554.8,280.9c0-66.3-53.7-120-120-120"/>
		<path class="st1" d="M2320.5,160.9c0-66.3,53.7-120,120-120h0.6c0,62.8,50.9,113.7,113.7,113.7v0.6c0,66.3-53.7,120-120,120"/>
		<path class="st1" d="M2434.8,160.9c66.3,0,120-53.7,120-120C2488.5,40.9,2434.8,94.6,2434.8,160.9z"/>
	</g>
	<g>
		<path class="st1" d="M40.5,395.2c0-66.3,53.7-120,120-120"/>
	</g>
	<path class="st1" d="M40.5,395.2c0,66.3,53.7,120,120,120"/>
	<path class="st1" d="M40.5,280.9c0,66.3,53.7,120,120,120"/>
	<path class="st1" d="M40.5,520.9c0-66.3,53.7-120,120-120"/>
	<g>
		<path class="st1" d="M2554.8,395.2c0-66.3-53.7-120-120-120"/>
	</g>
	<path class="st1" d="M2554.8,395.2c0,66.3-53.7,120-120,120"/>
	<path class="st1" d="M2554.8,280.9c0,66.3-53.7,120-120,120"/>
	<path class="st1" d="M2554.8,520.9c0-66.3-53.7-120-120-120"/>
</g>
<rect x="160.5" y="160.9" class="st2" width="2274.3" height="1554.3"/>
<g>
	<path d="M419.9,545.5c0,15.1,1.9,24.8,13.5,24.8s13.5-9.7,13.5-24.8v-18.4h38.6v7.8c0,39.7-12.7,67.5-51.3,67.5
		c-39.7,0-55.1-26.7-55.1-75.6v-23.2c0-48.9,15.4-75.6,55.1-75.6c38.6,0,51.3,27.8,51.3,67.5v7.8h-38.6V485
		c0-15.1-1.9-24.8-13.5-24.8s-13.5,9.7-13.5,24.8V545.5z"/>
	<path d="M616.2,525.8c0,48.9-15.4,76.7-55.1,76.7c-39.7,0-55.1-27.8-55.1-76.7v-21.1c0-48.9,15.4-76.7,55.1-76.7
		s55.1,27.8,55.1,76.7V525.8z M547.1,545c0,15.1,2.4,25.4,14,25.4s14-10.3,14-25.4v-59.4c0-15.1-2.4-25.4-14-25.4s-14,10.3-14,25.4
		V545z"/>
	<path d="M709.6,430.2h36.7v170.1h-30l-39.2-87.8H676v87.8h-36.7V430.2h36.2l32.9,78.3h1.1L709.6,430.2L709.6,430.2z"/>
	<path d="M850.5,600.3l-3-15.1c-4.3,11.6-16.5,17.3-30,17.3c-33.8,0-48.1-26.7-48.1-75.6v-23.2c0-48.9,15.9-75.6,54.8-75.6
		c38.6,0,52.7,24.3,52.7,64v4.3h-38.6V485c0-15.1-2.4-24.8-14-24.8s-14,9.7-14,24.8v59.7c0,15.1,3.2,24.8,14.6,24.8
		c11.6,0,14.6-9.7,14.6-24.8v-2.4h-12.4v-29.7h50v87.8L850.5,600.3L850.5,600.3z"/>
	<path d="M967.7,600.3c-2.2-6.5-2.7-16.5-3.8-37c-0.8-16.2-4.9-24.6-17.3-24.6h-5.1v61.6h-39.2V430.2h48.9c38.1,0,55.1,20,55.1,50.2
		c0,26.7-12.1,40-29.4,42.9c17.8,4,23.8,16.7,25.1,38.1c1.3,22.4,1.1,31.1,4.9,38.9L967.7,600.3L967.7,600.3z M945.3,507.4
		c15.9,0,22.1-5.1,22.1-22.4c0-15.4-6.2-23-22.1-23h-3.8v45.4H945.3z"/>
	<path d="M1107.6,430.2l36.7,170.1h-39.4l-5.7-30.2h-33.5l-5.9,30.2h-36.2l36.7-170.1L1107.6,430.2L1107.6,430.2z M1071.4,540.1
		h22.4l-10.3-56.2h-1.1L1071.4,540.1z"/>
	<path d="M1179.1,600.3V462.9h-32.4v-32.7h105v32.7h-33.2v137.4H1179.1z"/>
	<path d="M1274.4,539.6V430.2h40.8v112.6c0,17.3,1.6,27.3,13.8,27.3s13.8-10,13.8-27.3V430.2h40.8v109.4c0,38.3-12.7,63.2-54.5,63.2
		S1274.4,577.9,1274.4,539.6z"/>
	<path d="M1448.6,430.2v137.4h45.9v32.7h-85.6V430.2H1448.6z"/>
	<path d="M1595.7,430.2l36.7,170.1H1593l-5.7-30.2h-33.5l-5.9,30.2h-36.2l36.7-170.1L1595.7,430.2L1595.7,430.2z M1559.6,540.1h22.4
		l-10.3-56.2h-1.1L1559.6,540.1z"/>
	<path d="M1667.3,600.3V462.9h-32.4v-32.7h105v32.7h-33.2v137.4H1667.3z"/>
	<path d="M1802.8,430.2v170.1h-39.7V430.2H1802.8z"/>
	<path d="M1936.2,525.8c0,48.9-15.4,76.7-55.1,76.7s-55.1-27.8-55.1-76.7v-21.1c0-48.9,15.4-76.7,55.1-76.7s55.1,27.8,55.1,76.7
		V525.8z M1867.1,545c0,15.1,2.4,25.4,14,25.4s14-10.3,14-25.4v-59.4c0-15.1-2.4-25.4-14-25.4s-14,10.3-14,25.4V545z"/>
	<path d="M2029.6,430.2h36.7v170.1h-30l-39.2-87.8h-1.1v87.8h-36.7V430.2h36.2l32.9,78.3h1.1L2029.6,430.2L2029.6,430.2z"/>
	<path d="M2123.3,542.8v6.8c0,12.7,5.4,21.1,15.9,21.1c9.2,0,14-5.1,14-14.6c0-9.7-6.2-13.5-16.5-19.2l-14.3-7.8
		c-18.1-10-33.8-22.1-33.8-51.3c0-30.2,19.7-49.7,48.9-49.7c31.1,0,48.9,17.8,48.9,52.7v6.8h-34.8v-7c0-13.8-4.3-20.5-14-20.5
		c-8.4,0-12.7,5.9-12.7,15.1c0,8.6,4.9,14,13,18.4l15.9,8.6c22.4,12.1,35.9,24,35.9,50.5c0,32.9-20.2,50-50.5,50
		s-50.8-16.7-50.8-53.2V543h34.9V542.8z"/>
</g>
<g>
	<line class="st3" x1="384.7" y1="691.1" x2="2196.6" y2="691.1"/>
	<line class="st3" x1="384.7" y1="673.1" x2="2196.6" y2="673.1"/>
	<line class="st3" x1="384.7" y1="709.1" x2="2196.6" y2="709.1"/>
</g>
<g>
	<line class="st3" x1="346.7" y1="350.9" x2="1047.8" y2="350.9"/>
	<line class="st3" x1="2234.5" y1="350.9" x2="1020.8" y2="350.9"/>
	<g>
		<path class="st4" d="M346.7,350.9c22.6-22.6,59.2-22.6,81.8,0C405.9,373.5,369.3,373.5,346.7,350.9z"/>
	</g>
	<g>
		<path class="st4" d="M2152.8,350.9c22.6-22.6,59.2-22.6,81.8,0C2212,373.5,2175.3,373.5,2152.8,350.9z"/>
	</g>
</g>
<g>
	<line class="st3" x1="2234.5" y1="1530" x2="393.5" y2="1530"/>
	<g>
		<path class="st4" d="M346.7,1530c22.6-22.6,59.2-22.6,81.8,0C405.9,1552.6,369.3,1552.6,346.7,1530z"/>
	</g>
	<g>
		<path class="st4" d="M2152.8,1530c22.6-22.6,59.2-22.6,81.8,0C2212,1552.6,2175.3,1552.6,2152.8,1530z"/>
	</g>
</g>
<g>
	<line class="st3" x1="1047.3" y1="1285.8" x2="384.7" y2="1285.8"/>
	<line class="st3" x1="1534" y1="1285.8" x2="2196.6" y2="1285.8"/>
</g>
<g>
	<g>
		<path class="st1" d="M1101.7,1285.8c46.9-46.9,122.8-46.9,169.7,0C1224.5,1332.7,1148.6,1332.7,1101.7,1285.8z"/>
		<circle class="st5" cx="1186.6" cy="1285.8" r="35.1"/>
	</g>
	<g>
		<path class="st1" d="M1309.9,1285.8c46.9-46.9,122.8-46.9,169.7,0C1432.7,1332.7,1356.7,1332.7,1309.9,1285.8z"/>
		<circle class="st5" cx="1394.7" cy="1285.8" r="35.1"/>
	</g>
</g>
<g>
	<polyline class="st6" points="2271.1,1375.7 320.2,1375.7 320.2,1814.7 2271.1,1814.7 	"/>
	<text transform="matrix(1 0 0 1 524.7142 1432.4155)" class="st7 st8">Treat yourself tonight. You’ve earned it.</text>
</g>
</svg>
