<?xml version="1.0" encoding="utf-8"?>
<!-- Generator: Adobe Illustrator 21.0.0, SVG Export Plug-In . SVG Version: 6.00 Build 0)  -->
<svg version="1.1" id="Layer_1" xmlns="http://www.w3.org/2000/svg" xmlns:xlink="http://www.w3.org/1999/xlink" x="0px" y="0px"
	 viewBox="0 0 2595.3 1876" style="enable-background:new 0 0 2595.3 1876;" xml:space="preserve">
<style type="text/css">
	.st0{fill:#FFD700;stroke:#211F21;stroke-width:9;stroke-miterlimit:10;}
	.st1{fill:none;stroke:#211F21;stroke-width:9;stroke-miterlimit:10;}
	.st2{fill:#FFFFFF;stroke:#211F21;stroke-width:9;stroke-miterlimit:10;}
	.st3{fill:none;stroke:#211F21;stroke-width:6;stroke-miterlimit:10;}
	.st4{fill:#FFD700;stroke:#211F21;stroke-width:6;stroke-miterlimit:10;}
	.st5{fill:#FFD700;}
	.st6{fill:none;}
	.st7{enable-background:new    ;}
</style>
<rect x="4.5" y="4.5" class="st0" width="2586.3" height="1867"/>
<g>
	<g>
		<g>
			<g>
				<g>
					<g>
						<g>
							<path class="st1" d="M394.8,1835.2c-66.3,0-120-53.7-120-120"/>
						</g>
						<g>
							<path class="st1" d="M394.8,1835.2c66.3,0,120-53.7,120-120"/>
							<path class="st1" d="M634.8,1835.2c-66.3,0-120-53.7-120-120"/>
						</g>
						<g>
							<path class="st1" d="M634.8,1835.2c66.3,0,120-53.7,120-120"/>
							<path class="st1" d="M874.8,1835.2c-66.3,0-120-53.7-120-120"/>
						</g>
						<g>
							<path class="st1" d="M874.8,1835.2c66.3,0,120-53.7,120-120"/>
							<path class="st1" d="M1114.8,1835.2c-66.3,0-120-53.7-120-120"/>
						</g>
						<g>
							<path class="st1" d="M1114.8,1835.2c66.3,0,120-53.7,120-120"/>
							<path class="st1" d="M1354.8,1835.2c-66.3,0-120-53.7-120-120"/>
						</g>
						<g>
							<path class="st1" d="M1354.8,1835.2c66.3,0,120-53.7,120-120"/>
							<path class="st1" d="M1594.8,1835.2c-66.3,0-120-53.7-120-120"/>
						</g>
						<g>
							<path class="st1" d="M1594.8,1835.2c66.3,0,120-53.7,120-120"/>
						</g>
					</g>
					<g>
						<g>
							<path class="st1" d="M280.5,1835.2c-66.3,0-120-53.7-120-120"/>
						</g>
						<g>
							<path class="st1" d="M280.5,1835.2c66.3,0,120-53.7,120-120"/>
							<path class="st1" d="M520.5,1835.2c-66.3,0-120-53.7-120-120"/>
						</g>
						<g>
							<path class="st1" d="M520.5,1835.2c66.3,0,120-53.7,120-120"/>
							<path class="st1" d="M760.5,1835.2c-66.3,0-120-53.7-120-120"/>
						</g>
						<g>
							<path class="st1" d="M760.5,1835.2c66.3,0,120-53.7,120-120"/>
							<path class="st1" d="M1000.5,1835.2c-66.3,0-120-53.7-120-120"/>
						</g>
						<g>
							<path class="st1" d="M1000.5,1835.2c66.3,0,120-53.7,120-120"/>
							<path class="st1" d="M1240.5,1835.2c-66.3,0-120-53.7-120-120"/>
						</g>
						<g>
							<path class="st1" d="M1240.5,1835.2c66.3,0,120-53.7,120-120"/>
							<path class="st1" d="M1480.5,1835.2c-66.3,0-120-53.7-120-120"/>
						</g>
						<g>
							<path class="st1" d="M1480.5,1835.2c66.3,0,120-53.7,120-120"/>
							<path class="st1" d="M1720.5,1835.2c-66.3,0-120-53.7-120-120"/>
						</g>
					</g>
				</g>
				<g>
					<g>
						<g>
							<path class="st1" d="M40.5,635.2c0-66.3,53.7-120,120-120"/>
						</g>
						<g>
							<path class="st1" d="M40.5,635.2c0,66.3,53.7,120,120,120"/>
							<path class="st1" d="M40.5,875.2c0-66.3,53.7-120,120-120"/>
						</g>
						<g>
							<path class="st1" d="M40.5,875.2c0,66.3,53.7,120,120,120"/>
							<path class="st1" d="M40.5,1115.2c0-66.3,53.7-120,120-120"/>
						</g>
						<g>
							<path class="st1" d="M40.5,1115.2c0,66.3,53.7,120,120,120"/>
							<path class="st1" d="M40.5,1355.2c0-66.3,53.7-120,120-120"/>
						</g>
						<g>
							<path class="st1" d="M40.5,1355.2c0,66.3,53.7,120,120,120"/>
							<path class="st1" d="M40.5,1595.2c0-66.3,53.7-120,120-120"/>
						</g>
						<g>
							<path class="st1" d="M40.5,1595.2c0,66.3,53.7,120,120,120"/>
						</g>
					</g>
					<g>
						<g>
							<path class="st1" d="M40.5,520.9c0,66.3,53.7,120,120,120"/>
							<path class="st1" d="M40.5,760.9c0-66.3,53.7-120,120-120"/>
						</g>
						<g>
							<path class="st1" d="M40.5,760.9c0,66.3,53.7,120,120,120"/>
							<path class="st1" d="M40.5,1000.9c0-66.3,53.7-120,120-120"/>
						</g>
						<g>
							<path class="st1" d="M40.5,1000.9c0,66.3,53.7,120,120,120"/>
							<path class="st1" d="M40.5,1240.9c0-66.3,53.7-120,120-120"/>
						</g>
						<g>
							<path class="st1" d="M40.5,1240.9c0,66.3,53.7,120,120,120"/>
							<path class="st1" d="M40.5,1480.9c0-66.3,53.7-120,120-120"/>
						</g>
						<g>
							<path class="st1" d="M40.5,1480.9c0,66.3,53.7,120,120,120"/>
						</g>
					</g>
				</g>
				<path class="st1" d="M274.8,1715.2c0,66.3-53.7,120-120,120h-0.6c0-62.8-50.9-113.7-113.7-113.7v-0.6c0-66.3,53.7-120,120-120"
					/>
				<path class="st1" d="M160.5,1715.2c-66.3,0-120,53.7-120,120C106.8,1835.2,160.5,1781.4,160.5,1715.2z"/>
			</g>
			<g>
				<path class="st1" d="M1834.8,1835.2c-66.3,0-120-53.7-120-120"/>
				<g>
					<path class="st1" d="M1834.8,1835.2c66.3,0,120-53.7,120-120"/>
				</g>
				<path class="st1" d="M1720.5,1835.2c66.3,0,120-53.7,120-120"/>
				<path class="st1" d="M1960.5,1835.2c-66.3,0-120-53.7-120-120"/>
			</g>
			<path class="st1" d="M2074.8,1835.2c-66.3,0-120-53.7-120-120"/>
			<g>
				<path class="st1" d="M2074.8,1835.2c66.3,0,120-53.7,120-120"/>
				<path class="st1" d="M2314.8,1835.2c-66.3,0-120-53.7-120-120"/>
			</g>
			<path class="st1" d="M1960.5,1835.2c66.3,0,120-53.7,120-120"/>
			<path class="st1" d="M2200.5,1835.2c-66.3,0-120-53.7-120-120"/>
			<g>
				<path class="st1" d="M2200.5,1835.2c66.3,0,120-53.7,120-120"/>
			</g>
			<path class="st1" d="M2314.8,1835.2c66.3,0,120-53.7,120-120"/>
			<g>
				<g>
					<g>
						<path class="st1" d="M2554.8,635.2c0-66.3-53.7-120-120-120"/>
					</g>
					<g>
						<path class="st1" d="M2554.8,635.2c0,66.3-53.7,120-120,120"/>
						<path class="st1" d="M2554.8,875.2c0-66.3-53.7-120-120-120"/>
					</g>
					<g>
						<path class="st1" d="M2554.8,875.2c0,66.3-53.7,120-120,120"/>
						<path class="st1" d="M2554.8,1115.2c0-66.3-53.7-120-120-120"/>
					</g>
					<g>
						<path class="st1" d="M2554.8,1115.2c0,66.3-53.7,120-120,120"/>
						<path class="st1" d="M2554.8,1355.2c0-66.3-53.7-120-120-120"/>
					</g>
					<g>
						<path class="st1" d="M2554.8,1355.2c0,66.3-53.7,120-120,120"/>
						<path class="st1" d="M2554.8,1595.2c0-66.3-53.7-120-120-120"/>
					</g>
					<g>
						<path class="st1" d="M2554.8,1595.2c0,66.3-53.7,120-120,120"/>
					</g>
				</g>
				<g>
					<g>
						<path class="st1" d="M2554.8,520.9c0,66.3-53.7,120-120,120"/>
						<path class="st1" d="M2554.8,760.9c0-66.3-53.7-120-120-120"/>
					</g>
					<g>
						<path class="st1" d="M2554.8,760.9c0,66.3-53.7,120-120,120"/>
						<path class="st1" d="M2554.8,1000.9c0-66.3-53.7-120-120-120"/>
					</g>
					<g>
						<path class="st1" d="M2554.8,1000.9c0,66.3-53.7,120-120,120"/>
						<path class="st1" d="M2554.8,1240.9c0-66.3-53.7-120-120-120"/>
					</g>
					<g>
						<path class="st1" d="M2554.8,1240.9c0,66.3-53.7,120-120,120"/>
						<path class="st1" d="M2554.8,1480.9c0-66.3-53.7-120-120-120"/>
					</g>
					<g>
						<path class="st1" d="M2554.8,1480.9c0,66.3-53.7,120-120,120"/>
					</g>
				</g>
			</g>
			<path class="st1" d="M2320.5,1715.2c0,66.3,53.7,120,120,120h0.6c0-62.8,50.9-113.7,113.7-113.7v-0.6c0-66.3-53.7-120-120-120"/>
			<path class="st1" d="M2434.8,1715.2c66.3,0,120,53.7,120,120C2488.5,1835.2,2434.8,1781.4,2434.8,1715.2z"/>
		</g>
	</g>
	<g>
		<g>
			<g>
				<g>
					<path class="st1" d="M394.8,40.9c-66.3,0-120,53.7-120,120"/>
				</g>
				<g>
					<path class="st1" d="M394.8,40.9c66.3,0,120,53.7,120,120"/>
					<path class="st1" d="M634.8,40.9c-66.3,0-120,53.7-120,120"/>
				</g>
				<g>
					<path class="st1" d="M634.8,40.9c66.3,0,120,53.7,120,120"/>
					<path class="st1" d="M874.8,40.9c-66.3,0-120,53.7-120,120"/>
				</g>
				<g>
					<path class="st1" d="M874.8,40.9c66.3,0,120,53.7,120,120"/>
					<path class="st1" d="M1114.8,40.9c-66.3,0-120,53.7-120,120"/>
				</g>
				<g>
					<path class="st1" d="M1114.8,40.9c66.3,0,120,53.7,120,120"/>
					<path class="st1" d="M1354.8,40.9c-66.3,0-120,53.7-120,120"/>
				</g>
				<g>
					<path class="st1" d="M1354.8,40.9c66.3,0,120,53.7,120,120"/>
					<path class="st1" d="M1594.8,40.9c-66.3,0-120,53.7-120,120"/>
				</g>
				<g>
					<path class="st1" d="M1594.8,40.9c66.3,0,120,53.7,120,120"/>
				</g>
			</g>
			<g>
				<g>
					<path class="st1" d="M280.5,40.9c-66.3,0-120,53.7-120,120"/>
				</g>
				<g>
					<path class="st1" d="M280.5,40.9c66.3,0,120,53.7,120,120"/>
					<path class="st1" d="M520.5,40.9c-66.3,0-120,53.7-120,120"/>
				</g>
				<g>
					<path class="st1" d="M520.5,40.9c66.3,0,120,53.7,120,120"/>
					<path class="st1" d="M760.5,40.9c-66.3,0-120,53.7-120,120"/>
				</g>
				<g>
					<path class="st1" d="M760.5,40.9c66.3,0,120,53.7,120,120"/>
					<path class="st1" d="M1000.5,40.9c-66.3,0-120,53.7-120,120"/>
				</g>
				<g>
					<path class="st1" d="M1000.5,40.9c66.3,0,120,53.7,120,120"/>
					<path class="st1" d="M1240.5,40.9c-66.3,0-120,53.7-120,120"/>
				</g>
				<g>
					<path class="st1" d="M1240.5,40.9c66.3,0,120,53.7,120,120"/>
					<path class="st1" d="M1480.5,40.9c-66.3,0-120,53.7-120,120"/>
				</g>
				<g>
					<path class="st1" d="M1480.5,40.9c66.3,0,120,53.7,120,120"/>
					<path class="st1" d="M1720.5,40.9c-66.3,0-120,53.7-120,120"/>
				</g>
			</g>
		</g>
		<path class="st1" d="M40.5,280.9c0-66.3,53.7-120,120-120"/>
		<path class="st1" d="M274.8,160.9c0-66.3-53.7-120-120-120h-0.6c0,62.8-50.9,113.7-113.7,113.7v0.6c0,66.3,53.7,120,120,120"/>
		<path class="st1" d="M160.5,160.9c-66.3,0-120-53.7-120-120C106.8,40.9,160.5,94.6,160.5,160.9z"/>
		<path class="st1" d="M1834.8,40.9c-66.3,0-120,53.7-120,120"/>
		<g>
			<path class="st1" d="M1834.8,40.9c66.3,0,120,53.7,120,120"/>
		</g>
		<path class="st1" d="M1720.5,40.9c66.3,0,120,53.7,120,120"/>
		<path class="st1" d="M1960.5,40.9c-66.3,0-120,53.7-120,120"/>
		<path class="st1" d="M2074.8,40.9c-66.3,0-120,53.7-120,120"/>
		<g>
			<path class="st1" d="M2074.8,40.9c66.3,0,120,53.7,120,120"/>
			<path class="st1" d="M2314.8,40.9c-66.3,0-120,53.7-120,120"/>
		</g>
		<path class="st1" d="M1960.5,40.9c66.3,0,120,53.7,120,120"/>
		<path class="st1" d="M2200.5,40.9c-66.3,0-120,53.7-120,120"/>
		<g>
			<path class="st1" d="M2200.5,40.9c66.3,0,120,53.7,120,120"/>
		</g>
		<path class="st1" d="M2314.8,40.9c66.3,0,120,53.7,120,120"/>
		<path class="st1" d="M2554.8,280.9c0-66.3-53.7-120-120-120"/>
		<path class="st1" d="M2320.5,160.9c0-66.3,53.7-120,120-120h0.6c0,62.8,50.9,113.7,113.7,113.7v0.6c0,66.3-53.7,120-120,120"/>
		<path class="st1" d="M2434.8,160.9c66.3,0,120-53.7,120-120C2488.5,40.9,2434.8,94.6,2434.8,160.9z"/>
	</g>
	<g>
		<path class="st1" d="M40.5,395.2c0-66.3,53.7-120,120-120"/>
	</g>
	<path class="st1" d="M40.5,395.2c0,66.3,53.7,120,120,120"/>
	<path class="st1" d="M40.5,280.9c0,66.3,53.7,120,120,120"/>
	<path class="st1" d="M40.5,520.9c0-66.3,53.7-120,120-120"/>
	<g>
		<path class="st1" d="M2554.8,395.2c0-66.3-53.7-120-120-120"/>
	</g>
	<path class="st1" d="M2554.8,395.2c0,66.3-53.7,120-120,120"/>
	<path class="st1" d="M2554.8,280.9c0,66.3-53.7,120-120,120"/>
	<path class="st1" d="M2554.8,520.9c0-66.3-53.7-120-120-120"/>
</g>
<rect x="160.5" y="160.9" class="st2" width="2274.3" height="1554.3"/>
<g>
	<path d="M419.9,545.5c0,15.1,1.9,24.8,13.5,24.8s13.5-9.7,13.5-24.8v-18.4h38.6v7.8c0,39.7-12.7,67.5-51.3,67.5
		c-39.7,0-55.1-26.7-55.1-75.6v-23.2c0-48.9,15.4-75.6,55.1-75.6c38.6,0,51.3,27.8,51.3,67.5v7.8h-38.6V485
		c0-15.1-1.9-24.8-13.5-24.8s-13.5,9.7-13.5,24.8V545.5z"/>
	<path d="M616.2,525.8c0,48.9-15.4,76.7-55.1,76.7c-39.7,0-55.1-27.8-55.1-76.7v-21.1c0-48.9,15.4-76.7,55.1-76.7
		s55.1,27.8,55.1,76.7V525.8z M547.1,545c0,15.1,2.4,25.4,14,25.4s14-10.3,14-25.4v-59.4c0-15.1-2.4-25.4-14-25.4s-14,10.3-14,25.4
		V545z"/>
	<path d="M709.6,430.2h36.7v170.1h-30l-39.2-87.8H676v87.8h-36.7V430.2h36.2l32.9,78.3h1.1L709.6,430.2L709.6,430.2z"/>
	<path d="M850.5,600.3l-3-15.1c-4.3,11.6-16.5,17.3-30,17.3c-33.8,0-48.1-26.7-48.1-75.6v-23.2c0-48.9,15.9-75.6,54.8-75.6
		c38.6,0,52.7,24.3,52.7,64v4.3h-38.6V485c0-15.1-2.4-24.8-14-24.8s-14,9.7-14,24.8v59.7c0,15.1,3.2,24.8,14.6,24.8
		c11.6,0,14.6-9.7,14.6-24.8v-2.4h-12.4v-29.7h50v87.8L850.5,600.3L850.5,600.3z"/>
	<path d="M967.7,600.3c-2.2-6.5-2.7-16.5-3.8-37c-0.8-16.2-4.9-24.6-17.3-24.6h-5.1v61.6h-39.2V430.2h48.9c38.1,0,55.1,20,55.1,50.2
		c0,26.7-12.1,40-29.4,42.9c17.8,4,23.8,16.7,25.1,38.1c1.3,22.4,1.1,31.1,4.9,38.9H967.7L967.7,600.3z M945.3,507.4
		c15.9,0,22.1-5.1,22.1-22.4c0-15.4-6.2-23-22.1-23h-3.8v45.4H945.3z"/>
	<path d="M1107.6,430.2l36.7,170.1h-39.4l-5.7-30.2h-33.5l-5.9,30.2h-36.2l36.7-170.1H1107.6L1107.6,430.2z M1071.4,540.1h22.4
		l-10.3-56.2h-1.1L1071.4,540.1z"/>
	<path d="M1179.1,600.3V462.9h-32.4v-32.7h105v32.7h-33.2v137.4H1179.1L1179.1,600.3z"/>
	<path d="M1274.4,539.6V430.2h40.8v112.6c0,17.3,1.6,27.3,13.8,27.3s13.8-10,13.8-27.3V430.2h40.8v109.4c0,38.3-12.7,63.2-54.5,63.2
		S1274.4,577.9,1274.4,539.6z"/>
	<path d="M1448.6,430.2v137.4h45.9v32.7h-85.6V430.2H1448.6z"/>
	<path d="M1595.7,430.2l36.7,170.1H1593l-5.7-30.2h-33.5l-5.9,30.2h-36.2l36.7-170.1H1595.7L1595.7,430.2z M1559.6,540.1h22.4
		l-10.3-56.2h-1.1L1559.6,540.1z"/>
	<path d="M1667.3,600.3V462.9h-32.4v-32.7h105v32.7h-33.2v137.4H1667.3L1667.3,600.3z"/>
	<path d="M1802.8,430.2v170.1h-39.7V430.2H1802.8z"/>
	<path d="M1936.2,525.8c0,48.9-15.4,76.7-55.1,76.7c-39.7,0-55.1-27.8-55.1-76.7v-21.1c0-48.9,15.4-76.7,55.1-76.7
		c39.7,0,55.1,27.8,55.1,76.7V525.8z M1867.1,545c0,15.1,2.4,25.4,14,25.4s14-10.3,14-25.4v-59.4c0-15.1-2.4-25.4-14-25.4
		s-14,10.3-14,25.4V545z"/>
	<path d="M2029.6,430.2h36.7v170.1h-30l-39.2-87.8h-1.1v87.8h-36.7V430.2h36.2l32.9,78.3h1.1L2029.6,430.2L2029.6,430.2z"/>
	<path d="M2123.3,542.8v6.8c0,12.7,5.4,21.1,15.9,21.1c9.2,0,14-5.1,14-14.6c0-9.7-6.2-13.5-16.5-19.2l-14.3-7.8
		c-18.1-10-33.8-22.1-33.8-51.3c0-30.2,19.7-49.7,48.9-49.7c31.1,0,48.9,17.8,48.9,52.7v6.8h-34.8v-7c0-13.8-4.3-20.5-14-20.5
		c-8.4,0-12.7,5.9-12.7,15.1c0,8.6,4.9,14,13,18.4l15.9,8.6c22.4,12.1,35.9,24,35.9,50.5c0,32.9-20.2,50-50.5,50
		s-50.8-16.7-50.8-53.2V543h34.9L2123.3,542.8L2123.3,542.8z"/>
</g>
<g>
	<line class="st3" x1="384.7" y1="691.1" x2="2196.6" y2="691.1"/>
	<line class="st3" x1="384.7" y1="673.1" x2="2196.6" y2="673.1"/>
	<line class="st3" x1="384.7" y1="709.1" x2="2196.6" y2="709.1"/>
</g>
<g>
	<line class="st3" x1="346.7" y1="350.9" x2="1047.8" y2="350.9"/>
	<line class="st3" x1="2234.5" y1="350.9" x2="1020.8" y2="350.9"/>
	<g>
		<path class="st4" d="M346.7,350.9c22.6-22.6,59.2-22.6,81.8,0C405.9,373.5,369.3,373.5,346.7,350.9z"/>
	</g>
	<g>
		<path class="st4" d="M2152.8,350.9c22.6-22.6,59.2-22.6,81.8,0C2212,373.5,2175.3,373.5,2152.8,350.9z"/>
	</g>
</g>
<g>
	<line class="st3" x1="2234.5" y1="1530" x2="393.5" y2="1530"/>
	<g>
		<path class="st4" d="M346.7,1530c22.6-22.6,59.2-22.6,81.8,0C405.9,1552.6,369.3,1552.6,346.7,1530z"/>
	</g>
	<g>
		<path class="st4" d="M2152.8,1530c22.6-22.6,59.2-22.6,81.8,0C2212,1552.6,2175.3,1552.6,2152.8,1530z"/>
	</g>
</g>
<g>
	<line class="st3" x1="1066.6" y1="1285.8" x2="384.7" y2="1285.8"/>
	<line class="st3" x1="1514.8" y1="1285.8" x2="2196.6" y2="1285.8"/>
</g>
<g>
	<path class="st5" d="M1460.3,1285.8c-34.4-34.4-84.5-43.6-127.3-27.4c-27.3-10.3-57.6-10.3-84.8,0c-42.8-16.1-92.8-7-127.3,27.4
		c34.4,34.4,84.5,43.6,127.3,27.5c27.3,10.3,57.6,10.3,84.8,0C1375.8,1329.4,1425.9,1320.2,1460.3,1285.8z"/>
	<g>
		<path class="st1" d="M1120.9,1285.8c46.9-46.9,122.8-46.9,169.7,0C1243.8,1332.7,1167.9,1332.7,1120.9,1285.8z"/>
	</g>
	<g>
		<path class="st1" d="M1205.8,1285.8c46.9-46.9,122.8-46.9,169.7,0C1328.6,1332.7,1252.6,1332.7,1205.8,1285.8z"/>
	</g>
	<g>
		<path class="st1" d="M1290.6,1285.8c46.9-46.9,122.8-46.9,169.7,0C1413.4,1332.7,1337.4,1332.7,1290.6,1285.8z"/>
	</g>
</g>
<g>
	<polyline class="st6" points="2271.1,1375.7 320.2,1375.7 320.2,1814.7 2271.1,1814.7 	"/>
	<g class="st7">
		<path d="M561.6,1432.4h-15.2v-44.1H527v-12.6h54.4v12.6h-19.7V1432.4z"/>
		<path d="M614.2,1392.7l-0.9,13.8c-1.9-1.1-4.2-1.7-6.9-1.7c-5.8,0-8.7,3.1-8.7,9.3v18.4H583v-40.1h14.6v7.1
			c0.7-2.3,2.1-4.3,4.1-5.8c2-1.6,4.3-2.3,6.9-2.3C611.1,1391.2,612.9,1391.7,614.2,1392.7z"/>
		<path d="M646.2,1418.1l11.7,1.1c-1,4.6-3.3,8.1-6.8,10.6c-3.5,2.5-7.9,3.7-13.3,3.7c-6.5,0-11.9-1.8-15.9-5.5
			c-4.1-3.7-6.1-8.7-6.1-15c0-6.3,2.1-11.5,6.2-15.6c4.1-4.1,9.4-6.2,15.7-6.2c6.4,0,11.4,1.9,15.1,5.8c3.6,3.8,5.4,8.6,5.4,14.3
			v4.1H630c0.2,2.4,1,4.2,2.6,5.4c1.5,1.2,3.5,1.8,5.8,1.8C642.3,1422.6,645,1421.1,646.2,1418.1z M630.2,1408.3h14.1
			c-0.1-1.9-0.8-3.5-2-4.8c-1.2-1.3-2.8-1.9-4.9-1.9C633.3,1401.6,630.9,1403.9,630.2,1408.3z"/>
		<path d="M701.7,1406.9v13.7c0,2,0.8,3,2.4,3c1.1,0,2.2-0.2,3.2-0.6v7.7c-2.5,1.7-5.6,2.6-9.1,2.6c-2.5,0-4.7-0.6-6.5-1.8
			c-1.8-1.2-3-3-3.7-5.3c-2.4,4.7-6.8,7.1-13.3,7.1c-4,0-7.1-1-9.5-2.9c-2.3-1.9-3.5-4.6-3.5-8c0-3.7,1.2-6.5,3.6-8.4
			c2.4-1.9,6-3.3,10.7-4.2l11.2-1.9v-0.6c0-3.5-1.7-5.3-5-5.3c-2.9,0-4.8,1.7-5.5,5l-13.5-0.9c0.7-4.6,2.7-8.2,6.1-10.9
			c3.4-2.7,8-4.1,13.8-4.1c5.6,0,10.1,1.3,13.5,3.9S701.7,1401.6,701.7,1406.9z M687.3,1415.7v-0.6l-5.9,1.1
			c-1.9,0.4-3.3,0.9-4.2,1.5c-0.9,0.7-1.4,1.6-1.4,2.9c0,1,0.4,1.8,1.1,2.5c0.7,0.6,1.7,0.9,2.9,0.9c2.2,0,3.9-0.8,5.4-2.2
			C686.6,1420.2,687.3,1418.2,687.3,1415.7z"/>
		<path d="M712.5,1421.3v-18.9h-5.4v-9l3-0.4c1.9-0.3,3.3-0.9,4.2-1.9c0.9-1,1.6-2.5,2.1-4.5l1.4-5.2h9.2v11.1h10.4v10.1h-10.4v14.7
			c0,3.2,1.5,4.8,4.6,4.8c1.9,0,4-0.4,6.2-1.3v9.5c-3.2,2.4-7.3,3.6-12.1,3.6c-3.8,0-7-0.9-9.4-2.8
			C713.8,1428.8,712.5,1425.6,712.5,1421.3z"/>
		<path d="M780.3,1446.8H766l5.8-13.9l-16.4-40.7h15.3l8.9,23.5h0.4l9.1-23.5h14.3L780.3,1446.8z"/>
		<path d="M841.4,1397.1c4.1,3.9,6.1,9,6.1,15.3s-2,11.3-6.1,15.3c-4,3.9-9.3,5.9-15.9,5.9c-6.5,0-11.8-1.9-15.9-5.8
			s-6.1-9-6.1-15.3c0-6.2,2-11.3,6.1-15.3c4-3.9,9.3-5.9,15.9-5.9C832.1,1391.2,837.3,1393.2,841.4,1397.1z M818.3,1412.3
			c0,6.8,2.4,10.2,7.3,10.2c2.5,0,4.3-0.9,5.5-2.7c1.2-1.8,1.8-4.3,1.8-7.4c0-3.1-0.6-5.6-1.8-7.4c-1.2-1.8-3-2.7-5.5-2.7
			C820.7,1402.2,818.3,1405.6,818.3,1412.3z"/>
		<path d="M879.8,1412v-19.7h14.6v40.1h-14.6v-6c-2.3,4.7-6.5,7.1-12.6,7.1c-5.1,0-8.8-1.5-11-4.5c-2.2-3-3.3-6.8-3.3-11.5v-25.3
			h14.6v21.4c0,2.8,0.5,4.9,1.4,6.3c0.9,1.4,2.4,2.1,4.6,2.1C877.6,1422.1,879.8,1418.7,879.8,1412z"/>
		<path d="M933.4,1392.7l-0.9,13.8c-1.9-1.1-4.2-1.7-6.9-1.7c-5.8,0-8.7,3.1-8.7,9.3v18.4h-14.6v-40.1h14.6v7.1
			c0.7-2.3,2.1-4.3,4.1-5.8c2-1.6,4.3-2.3,6.9-2.3C930.3,1391.2,932.1,1391.7,933.4,1392.7z"/>
		<path d="M935,1419.4l12.7-0.2c0.5,3.5,3.1,5.2,7.7,5.2c3.3,0,5-0.9,5-2.8c0-1.6-1.2-2.6-3.7-3.1l-5.9-0.9
			c-5.1-0.8-8.9-2.1-11.2-4.1c-2.4-1.9-3.6-4.9-3.6-8.8c0-4,1.6-7.3,5-9.8c3.3-2.5,7.7-3.8,13.2-3.8c5.8,0,10.3,1.2,13.6,3.6
			c3.3,2.4,5.2,5.7,5.6,9.9l-12,0.4c-0.6-3.1-3.1-4.7-7.6-4.7c-2.9,0-4.4,1-4.4,2.9c0,1.3,0.8,2,2.4,2.2l7.8,1.3
			c9.5,1.5,14.2,5.9,14.2,13.3c0,4.2-1.7,7.5-5,9.8s-7.9,3.5-13.6,3.5s-10.5-1.2-14.1-3.6C937.5,1427.6,935.4,1424,935,1419.4z"/>
		<path d="M1007.6,1418.1l11.7,1.1c-1,4.6-3.3,8.1-6.8,10.6c-3.5,2.5-7.9,3.7-13.3,3.7c-6.5,0-11.8-1.8-15.9-5.5
			c-4.1-3.7-6.1-8.7-6.1-15c0-6.3,2.1-11.5,6.2-15.6c4.1-4.1,9.4-6.2,15.7-6.2c6.4,0,11.4,1.9,15.1,5.8c3.6,3.8,5.4,8.6,5.4,14.3
			v4.1h-28.2c0.2,2.4,1,4.2,2.6,5.4c1.5,1.2,3.5,1.8,5.8,1.8C1003.8,1422.6,1006.4,1421.1,1007.6,1418.1z M991.6,1408.3h14.1
			c-0.1-1.9-0.8-3.5-2-4.8s-2.8-1.9-4.9-1.9C994.7,1401.6,992.3,1403.9,991.6,1408.3z"/>
		<path d="M1025.6,1375.7h14.6v56.7h-14.6V1375.7z"/>
		<path d="M1049.7,1402.4h-5.8v-10.1h5.8v-1.7c0-5.1,1.5-9,4.4-11.8c2.9-2.8,6.8-4.1,11.7-4.1c3.8,0,6.9,0.9,9.4,2.7
			c2.5,1.8,4.2,4.4,5,7.7l-8.9,2.8c-1-1.9-2.2-2.8-3.9-2.8c-2.2,0-3.3,1.5-3.3,4.5v2.7h10.2v10.1h-10.2v30.1h-14.4V1402.4z"/>
		<path d="M1095.1,1421.3v-18.9h-5.4v-9l3-0.4c1.9-0.3,3.3-0.9,4.2-1.9c0.9-1,1.6-2.5,2.1-4.5l1.4-5.2h9.2v11.1h10.4v10.1h-10.4
			v14.7c0,3.2,1.5,4.8,4.6,4.8c1.9,0,4-0.4,6.2-1.3v9.5c-3.2,2.4-7.3,3.6-12.1,3.6c-3.8,0-7-0.9-9.5-2.8
			C1096.4,1428.8,1095.1,1425.6,1095.1,1421.3z"/>
		<path d="M1161.5,1397.1c4.1,3.9,6.1,9,6.1,15.3s-2,11.3-6.1,15.3c-4,3.9-9.3,5.9-15.9,5.9c-6.5,0-11.8-1.9-15.9-5.8
			s-6.1-9-6.1-15.3c0-6.2,2-11.3,6.1-15.3c4-3.9,9.3-5.9,15.9-5.9C1152.2,1391.2,1157.5,1393.2,1161.5,1397.1z M1138.4,1412.3
			c0,6.8,2.4,10.2,7.3,10.2c2.5,0,4.3-0.9,5.5-2.7c1.2-1.8,1.8-4.3,1.8-7.4c0-3.1-0.6-5.6-1.8-7.4c-1.2-1.8-3-2.7-5.5-2.7
			C1140.8,1402.2,1138.4,1405.6,1138.4,1412.3z"/>
		<path d="M1188,1412.7v19.7h-14.6v-40.1h14.6v6c1.1-2.2,2.8-4,5-5.2c2.3-1.3,4.9-1.9,7.9-1.9c5.1,0,8.8,1.5,11.1,4.5
			c2.3,3,3.4,6.8,3.4,11.5v25.2h-14.6v-21.3c0-2.8-0.5-4.9-1.4-6.3c-0.9-1.4-2.4-2.1-4.6-2.1C1190.3,1402.7,1188,1406,1188,1412.7z"
			/>
		<path d="M1222.8,1388.5v-12.8h14.8v12.8H1222.8z M1222.9,1392.3h14.6v40.1h-14.6V1392.3z"/>
		<path d="M1283.3,1405c0,4.1-1.8,7.5-5.4,9.9c-3.6,2.5-8.3,3.7-14.1,3.7c-3.3,0-6.2-0.4-8.7-1.2c-0.5,0.5-0.8,1.1-0.8,1.9
			c0,1.6,1.1,2.4,3.4,2.4h16.6c4.4,0,7.8,1.1,10.2,3.2c2.3,2.1,3.5,4.9,3.5,8.4c0,3.2-1.2,5.9-3.6,8.1c-2.4,2.2-5.5,3.9-9.2,4.9
			c-3.7,1-7.8,1.5-12.3,1.5c-14.2,0-21.3-3.3-21.3-9.8c0-1.7,0.7-3.2,2.2-4.5c1.4-1.3,3.3-2,5.5-2.2c-1.7-0.6-3.1-1.6-4.2-3.1
			c-1.1-1.4-1.6-3-1.6-4.8c0-4,2.3-6.8,6.8-8.5c-3.8-2.5-5.8-5.9-5.8-10.2c0-4.2,1.8-7.5,5.4-10c3.6-2.5,8.2-3.7,14-3.7
			c5,0,9.3,1.1,12.9,3.2c1.3-1.7,2.9-3.2,5-4.4c2.1-1.2,4.2-1.8,6.3-1.8v11c-2,0-4,0.2-5.9,0.6
			C1282.9,1401.4,1283.3,1403.1,1283.3,1405z M1253.4,1436.6c0,2.5,3.2,3.7,9.5,3.7c3.5,0,6.3-0.3,8.5-1s3.2-1.6,3.2-2.8
			c0-1.6-1.2-2.3-3.7-2.3h-14.8C1254.3,1434.2,1253.4,1435,1253.4,1436.6z M1268.2,1405c0-1.7-0.4-3.1-1.2-4.2
			c-0.8-1-1.8-1.6-3.1-1.6s-2.3,0.5-3.1,1.6c-0.8,1-1.2,2.4-1.2,4.2c0,1.8,0.4,3.2,1.2,4.3c0.8,1.1,1.8,1.6,3.1,1.6s2.3-0.5,3.1-1.6
			C1267.8,1408.2,1268.2,1406.8,1268.2,1405z"/>
		<path d="M1306.5,1412.7v19.7H1292v-56.7h14.6v22.6c1.1-2.2,2.8-4,5-5.2c2.3-1.3,4.9-1.9,7.9-1.9c5.1,0,8.8,1.5,11.1,4.5
			c2.3,3,3.4,6.8,3.4,11.5v25.2h-14.6v-21.3c0-2.8-0.5-4.9-1.4-6.3c-0.9-1.4-2.4-2.1-4.6-2.1
			C1308.8,1402.7,1306.5,1406,1306.5,1412.7z"/>
		<path d="M1342.9,1421.3v-18.9h-5.4v-9l3-0.4c1.9-0.3,3.3-0.9,4.2-1.9c0.9-1,1.6-2.5,2.1-4.5l1.4-5.2h9.2v11.1h10.4v10.1h-10.4
			v14.7c0,3.2,1.5,4.8,4.6,4.8c1.9,0,4-0.4,6.2-1.3v9.5c-3.2,2.4-7.3,3.6-12.1,3.6c-3.8,0-7-0.9-9.5-2.8
			C1344.1,1428.8,1342.9,1425.6,1342.9,1421.3z"/>
		<path d="M1373.3,1432.4v-15.5h15.5v15.5H1373.3z"/>
		<path d="M1437.5,1396.1l12.2-20.4h16.5l-21.8,35.2v21.5h-14.8v-21.5l-21.8-35.2h17L1437.5,1396.1z"/>
		<path d="M1497.2,1397.1c4.1,3.9,6.1,9,6.1,15.3s-2,11.3-6.1,15.3c-4,3.9-9.3,5.9-15.9,5.9c-6.5,0-11.8-1.9-15.9-5.8
			s-6.1-9-6.1-15.3c0-6.2,2-11.3,6.1-15.3c4-3.9,9.3-5.9,15.9-5.9C1487.8,1391.2,1493.1,1393.2,1497.2,1397.1z M1474,1412.3
			c0,6.8,2.4,10.2,7.3,10.2c2.5,0,4.3-0.9,5.5-2.7c1.2-1.8,1.8-4.3,1.8-7.4c0-3.1-0.6-5.6-1.8-7.4c-1.2-1.8-3-2.7-5.5-2.7
			C1476.5,1402.2,1474,1405.6,1474,1412.3z"/>
		<path d="M1535.5,1412v-19.7h14.6v40.1h-14.6v-6c-2.3,4.7-6.5,7.1-12.6,7.1c-5.1,0-8.8-1.5-11-4.5c-2.2-3-3.3-6.8-3.3-11.5v-25.3
			h14.6v21.4c0,2.8,0.5,4.9,1.4,6.3c0.9,1.4,2.4,2.1,4.6,2.1C1533.4,1422.1,1535.5,1418.7,1535.5,1412z"/>
		<path d="M1556.7,1389.2v-13.5h15.2v12.6c0,4.3-1.2,7.5-3.7,9.5c-2.5,2-6.3,3.1-11.5,3.2v-6.9c2.3-0.1,4-0.5,5.1-1.3
			c1.1-0.7,1.7-1.9,1.8-3.7H1556.7z"/>
		<path d="M1606.8,1432.4h-17.4l-14.9-40.1h15.3l8.7,24.9h0.4l8.7-24.9h14.1L1606.8,1432.4z"/>
		<path d="M1652.8,1418.1l11.7,1.1c-1,4.6-3.3,8.1-6.8,10.6c-3.5,2.5-7.9,3.7-13.3,3.7c-6.5,0-11.8-1.8-15.9-5.5
			c-4.1-3.7-6.1-8.7-6.1-15c0-6.3,2.1-11.5,6.2-15.6c4.1-4.1,9.4-6.2,15.7-6.2c6.4,0,11.4,1.9,15.1,5.8c3.6,3.8,5.4,8.6,5.4,14.3
			v4.1h-28.2c0.2,2.4,1,4.2,2.6,5.4c1.5,1.2,3.5,1.8,5.8,1.8C1649,1422.6,1651.6,1421.1,1652.8,1418.1z M1636.8,1408.3h14.1
			c-0.1-1.9-0.8-3.5-2-4.8s-2.8-1.9-4.9-1.9C1639.9,1401.6,1637.5,1403.9,1636.8,1408.3z"/>
		<path d="M1715.2,1418.1l11.7,1.1c-1,4.6-3.3,8.1-6.8,10.6c-3.5,2.5-7.9,3.7-13.3,3.7c-6.5,0-11.8-1.8-15.9-5.5
			c-4.1-3.7-6.1-8.7-6.1-15c0-6.3,2.1-11.5,6.2-15.6c4.1-4.1,9.4-6.2,15.7-6.2c6.4,0,11.4,1.9,15.1,5.8c3.6,3.8,5.4,8.6,5.4,14.3
			v4.1H1699c0.2,2.4,1,4.2,2.6,5.4c1.5,1.2,3.5,1.8,5.8,1.8C1711.3,1422.6,1714,1421.1,1715.2,1418.1z M1699.2,1408.3h14.1
			c-0.1-1.9-0.8-3.5-2-4.8s-2.8-1.9-4.9-1.9C1702.3,1401.6,1699.9,1403.9,1699.2,1408.3z"/>
		<path d="M1770.7,1406.9v13.7c0,2,0.8,3,2.4,3c1.1,0,2.2-0.2,3.2-0.6v7.7c-2.5,1.7-5.6,2.6-9.1,2.6c-2.5,0-4.7-0.6-6.5-1.8
			s-3-3-3.7-5.3c-2.4,4.7-6.8,7.1-13.3,7.1c-4,0-7.1-1-9.5-2.9c-2.3-1.9-3.5-4.6-3.5-8c0-3.7,1.2-6.5,3.6-8.4
			c2.4-1.9,6-3.3,10.7-4.2l11.2-1.9v-0.6c0-3.5-1.7-5.3-5-5.3c-2.9,0-4.8,1.7-5.5,5l-13.5-0.9c0.7-4.6,2.7-8.2,6.1-10.9
			c3.4-2.7,8-4.1,13.8-4.1c5.6,0,10.1,1.3,13.5,3.9S1770.7,1401.6,1770.7,1406.9z M1756.3,1415.7v-0.6l-5.9,1.1
			c-1.9,0.4-3.3,0.9-4.2,1.5c-0.9,0.7-1.4,1.6-1.4,2.9c0,1,0.4,1.8,1.1,2.5c0.7,0.6,1.7,0.9,2.9,0.9c2.2,0,3.9-0.8,5.4-2.2
			C1755.6,1420.2,1756.3,1418.2,1756.3,1415.7z"/>
		<path d="M1811.7,1392.7l-0.9,13.8c-1.9-1.1-4.2-1.7-6.9-1.7c-5.8,0-8.7,3.1-8.7,9.3v18.4h-14.6v-40.1h14.6v7.1
			c0.7-2.3,2.1-4.3,4.1-5.8c2-1.6,4.3-2.3,6.9-2.3C1808.6,1391.2,1810.4,1391.7,1811.7,1392.7z"/>
		<path d="M1830.8,1412.7v19.7h-14.6v-40.1h14.6v6c1.1-2.2,2.8-4,5-5.2c2.3-1.3,4.9-1.9,7.9-1.9c5.1,0,8.8,1.5,11.1,4.5
			c2.3,3,3.4,6.8,3.4,11.5v25.2h-14.6v-21.3c0-2.8-0.5-4.9-1.4-6.3c-0.9-1.4-2.4-2.1-4.6-2.1
			C1833.1,1402.7,1830.8,1406,1830.8,1412.7z"/>
		<path d="M1894,1418.1l11.7,1.1c-1,4.6-3.3,8.1-6.8,10.6c-3.5,2.5-7.9,3.7-13.3,3.7c-6.5,0-11.8-1.8-15.9-5.5
			c-4.1-3.7-6.1-8.7-6.1-15c0-6.3,2.1-11.5,6.2-15.6c4.1-4.1,9.4-6.2,15.7-6.2c6.4,0,11.4,1.9,15.1,5.8c3.6,3.8,5.4,8.6,5.4,14.3
			v4.1h-28.2c0.2,2.4,1,4.2,2.6,5.4c1.5,1.2,3.5,1.8,5.8,1.8C1890.1,1422.6,1892.7,1421.1,1894,1418.1z M1877.9,1408.3h14.1
			c-0.1-1.9-0.8-3.5-2-4.8s-2.8-1.9-4.9-1.9C1881,1401.6,1878.6,1403.9,1877.9,1408.3z"/>
		<path d="M1941.1,1432.4v-6.8c-1,2.4-2.6,4.3-4.9,5.8c-2.3,1.4-5,2.2-8.3,2.2c-5.7,0-10.1-2-13.2-5.9c-3.1-3.9-4.6-9-4.6-15.3
			c0-6.2,1.5-11.2,4.6-15.2c3.1-4,7.5-5.9,13.2-5.9c3.2,0,6,0.7,8.3,2.2c2.3,1.4,3.9,3.4,4.9,5.8v-23.5h14.6v56.7H1941.1z
			 M1941.1,1412.6v-0.5c0-2.9-0.7-5.2-2.2-6.9c-1.5-1.7-3.4-2.6-5.8-2.6c-2.8,0-4.8,0.9-6.2,2.7c-1.4,1.8-2.1,4.2-2.1,7.2
			c0,3.1,0.7,5.5,2.1,7.2c1.4,1.8,3.4,2.7,6.2,2.7c2.5,0,4.4-0.9,5.8-2.6C1940.4,1417.9,1941.1,1415.6,1941.1,1412.6z"/>
		<path d="M1979.7,1388.5v-12.8h14.8v12.8H1979.7z M1979.8,1392.3h14.6v40.1h-14.6V1392.3z"/>
		<path d="M2003.8,1421.3v-18.9h-5.4v-9l3-0.4c1.9-0.3,3.3-0.9,4.2-1.9c0.9-1,1.6-2.5,2.1-4.5l1.4-5.2h9.2v11.1h10.4v10.1h-10.4
			v14.7c0,3.2,1.5,4.8,4.6,4.8c1.9,0,4-0.4,6.2-1.3v9.5c-3.2,2.4-7.3,3.6-12.1,3.6c-3.8,0-7-0.9-9.5-2.8
			C2005,1428.8,2003.8,1425.6,2003.8,1421.3z"/>
		<path d="M2034.2,1432.4v-15.5h15.5v15.5H2034.2z"/>
	</g>
</g>
</svg>
